<svg width="176" height="48" viewBox="0 0 176 48" fill="none" xmlns="http://www.w3.org/2000/svg">
<path d="M124.691 25.3057C124.691 27.1225 124.349 28.4997 123.64 29.5252C122.943 30.5508 121.99 31.0783 120.731 31.0783C119.484 31.0783 118.531 30.5508 117.834 29.5252C117.138 28.4997 116.796 27.1225 116.796 25.3204C116.796 23.533 117.138 22.1558 117.847 21.1302C118.556 20.1046 119.509 19.5772 120.756 19.5772C122.014 19.5772 122.956 20.1046 123.664 21.1302C124.373 22.0972 124.716 23.533 124.716 25.335L124.691 25.3057ZM128.15 33.9498V16.6616H125.583L124.997 18.6542H124.948C124.3 17.8191 123.542 17.1598 122.748 16.7495C121.941 16.31 121.086 16.1342 120.132 16.1342C118.116 16.1342 116.514 16.9693 115.219 18.6542C113.911 20.3391 113.263 22.5074 113.263 25.1006V25.6867C113.263 28.2653 113.911 30.375 115.219 31.9866C116.514 33.5982 118.116 34.448 119.986 34.448C121.024 34.448 121.941 34.2136 122.723 33.7887C123.53 33.3492 124.19 32.6899 124.679 31.8548H124.74L125.29 33.9645H128.138L128.15 33.9498ZM141.717 25.3057C141.717 27.1225 141.374 28.4997 140.678 29.5252C139.981 30.5508 139.028 31.0783 137.769 31.0783C136.522 31.0783 135.569 30.5508 134.86 29.5252C134.163 28.4997 133.809 27.1225 133.809 25.3204C133.809 23.533 134.176 22.1558 134.86 21.1302C135.569 20.1046 136.522 19.5772 137.769 19.5772C139.028 19.5772 139.969 20.1046 140.678 21.1302C141.374 22.0972 141.729 23.533 141.729 25.335L141.717 25.3057ZM145.139 33.9498V9.96613H141.631V18.0242H141.582C141.093 17.3502 140.482 16.8521 139.822 16.5591C139.126 16.2661 138.319 16.0903 137.378 16.0903C135.3 16.0903 133.613 16.9254 132.244 18.6102C130.961 20.2951 130.289 22.4488 130.289 25.0567V25.7013C130.289 28.2213 130.949 30.3164 132.306 31.9427C133.65 33.6275 135.214 34.404 137.121 34.404C138.221 34.404 139.113 34.2282 139.908 33.818C140.714 33.3785 141.374 32.7924 141.961 31.9427H142.022L142.511 33.8473H145.139V33.9938V33.9498ZM50.1478 17.0572V27.1957C50.1478 29.4227 50.7589 31.1515 51.9078 32.4701C53.0567 33.7887 54.56 34.4626 56.43 34.4626C58.2633 34.4626 59.7667 33.8033 60.9278 32.4847C62.0767 31.1662 62.6755 29.3494 62.6755 27.1811V17.0279H59.2167V26.9467C59.2167 28.2653 58.9722 29.2322 58.52 29.9501C58.0678 30.6094 57.3711 30.9757 56.4178 30.9757C55.5133 30.9757 54.8289 30.6094 54.3155 29.9501C53.8633 29.2908 53.6067 28.2653 53.6067 26.9467V17.0279H50.1478V17.0572ZM68.3833 12.2663C67.8944 13.6435 67.3322 14.7277 66.7333 15.4896C66.1222 16.2807 65.3278 17.0133 64.4355 17.4821V19.4453H66.3911V28.4411C66.3911 30.3457 66.7822 31.8108 67.5889 32.8364C68.3833 33.7887 69.5444 34.2722 71.0966 34.2722C71.4878 34.2722 71.9889 34.2136 72.6 34.0231C73.2111 33.8473 73.6511 33.6715 73.9933 33.4371V29.9941H73.5044C73.1378 30.2871 72.7955 30.4922 72.49 30.6094C72.16 30.7266 71.8544 30.7852 71.5122 30.7852C70.95 30.7852 70.5589 30.6094 70.29 30.3017C70.0455 30.0087 69.8989 29.5399 69.8989 28.8806V19.4453H73.5655V16.1928H69.8989V12.2956H68.3955L68.3833 12.2663ZM86.6189 25.3057C86.6189 27.0346 86.2767 28.4118 85.5678 29.4373C84.8833 30.4629 83.93 30.9903 82.7322 30.9903C81.51 30.9903 80.5689 30.4483 79.8722 29.4373C79.1755 28.4118 78.87 27.0346 78.87 25.2911C78.87 23.5623 79.2366 22.1851 79.8722 21.1595C80.5689 20.1339 81.5222 19.6065 82.7322 19.6065C83.93 19.6065 84.8833 20.1486 85.58 21.1595C86.3133 22.1265 86.6433 23.5037 86.6433 25.3057H86.6189ZM90.1266 25.5988V25.0127C90.1266 22.3462 89.43 20.2511 87.9755 18.5663C86.57 16.9547 84.7733 16.1049 82.6589 16.1049C80.5566 16.1049 78.8089 16.94 77.4033 18.5663C75.9978 20.1779 75.3011 22.3462 75.3011 25.0127V25.5988C75.3011 28.236 76.01 30.331 77.4155 32.0159C78.8211 33.6275 80.5689 34.4773 82.6711 34.4773C84.7855 34.4773 86.5822 33.6422 87.9878 32.0159C89.4544 30.3457 90.1389 28.236 90.1389 25.5988H90.1266ZM94.0867 33.9498H97.7533V14.801H103.058V11.0357H88.5133V14.8156H94.1111V33.9498H94.0867ZM108.02 21.6869C108.57 21.0276 109.511 20.6614 110.831 20.6614H112.114V16.5591C112.017 16.5591 111.821 16.5005 111.626 16.5005C111.381 16.5005 111.173 16.4126 110.966 16.4126C109.951 16.4126 109.108 16.7056 108.35 17.3795C107.617 17.9656 107.152 18.8153 106.944 19.8995H106.908L106.174 16.603H103.644V33.8912H107.164V25.6134C107.164 23.7527 107.458 22.4195 108.02 21.7016V21.6869ZM157.96 23.2986H151.152C151.397 22.0532 151.849 21.1009 152.448 20.4856C153.059 19.8995 153.853 19.5332 154.807 19.5332C155.76 19.5332 156.518 19.8849 157.056 20.5588C157.606 21.2035 157.911 22.1118 157.96 23.3132V23.2986ZM161.566 25.6427V24.8076C161.566 22.229 160.906 20.1193 159.61 18.5077C158.302 16.8961 156.64 16.1049 154.636 16.1049C152.582 16.1049 150.883 16.94 149.527 18.6249C148.182 20.3097 147.473 22.4634 147.473 24.9834V25.5255C147.473 28.1187 148.17 30.2138 149.527 31.8987C150.871 33.5836 152.631 34.4187 154.684 34.4187C156.444 34.4187 157.899 33.9352 159.084 32.9829C160.148 32.1331 160.844 30.9317 161.248 29.4373H157.703C157.459 29.9208 157.141 30.2138 156.787 30.5215C156.298 30.8731 155.626 31.0636 154.782 31.0636C153.731 31.0636 152.876 30.6241 152.216 29.8622C151.568 29.0711 151.164 28.0015 151.018 26.5511H161.492C161.492 26.2581 161.492 25.965 161.541 25.672L161.566 25.6427ZM168.324 21.6869C168.874 21.0276 169.816 20.6614 171.136 20.6614H172.431V16.5591C172.309 16.5591 172.113 16.5005 171.918 16.5005C171.673 16.5005 171.466 16.4126 171.258 16.4126C170.256 16.4126 169.424 16.7056 168.654 17.3795C167.921 17.9656 167.469 18.8153 167.261 19.8995H167.212L166.479 16.603H163.961V33.8912H167.469V25.6134C167.469 23.7527 167.713 22.4195 168.324 21.7016V21.6869ZM42.3744 24.6025H36.96L38.6711 19.1816C38.9644 18.2293 39.2211 17.5114 39.3189 17.0279C39.4655 16.5591 39.5633 16.1489 39.6244 15.7093H39.6733C39.7222 16.0023 39.82 16.2954 39.8689 16.6177C39.9667 16.9107 40.2355 17.8191 40.6267 19.1963L42.3744 24.6171V24.6025ZM49.0355 33.9792V33.4224L41.6411 11.5045H37.8278L30.4333 33.3638V33.9059H33.9778L35.42 29.3641L35.7255 28.3825H43.4867L43.7922 29.3494L45.2589 33.8912H49.0478V33.9645L49.0355 33.9792ZM25.5933 29.5838C24.7378 32.1038 22.7822 33.8326 20.4844 33.9059H3.54443L6.67332 24.6025H27.2555L25.6055 29.5838H25.5933Z" fill="white" fill-opacity="0.7"/>
<path fill-rule="evenodd" clip-rule="evenodd" d="M31.6556 11.4459L28.5756 20.7639H7.9689L9.6189 15.7826C10.4745 13.2479 12.4789 11.5045 14.7278 11.4459H31.6678H31.6556Z" fill="white" fill-opacity="0.7"/>
</svg>
