<svg width="158" height="39" viewBox="0 0 158 39" fill="none" xmlns="http://www.w3.org/2000/svg">
<path d="M7.16234 19.0543L3.57962 23.349L0 19.0543L3.57962 14.7595L7.16234 19.0543ZM15.8482 8.62573L21.9825 15.9892L25.5621 11.6945L15.8482 0.039917L6.13428 11.6945L9.71391 15.9892L15.8482 8.62573ZM28.1199 14.7595L24.5402 19.0543L28.1199 23.349L31.6964 19.0543L28.1199 14.7595ZM15.8482 29.4828L9.71391 22.123L6.13428 26.4141L15.8482 38.0686L25.5621 26.4141L21.9825 22.123L15.8482 29.4828ZM15.8482 23.349L19.4278 19.0543L15.8482 14.7595L12.2686 19.0543L15.8482 23.349ZM53.6262 23.7614V23.702C53.6262 20.9007 52.3876 19.5001 50.3717 18.5787C51.6104 17.7428 52.657 16.4313 52.657 14.0796V14.0202C52.657 10.7434 50.4708 8.62573 46.9191 8.62573H38.8556V29.4828H47.1234C51.0468 29.4828 53.6324 27.5769 53.6324 23.7614H53.6262ZM48.8575 14.845C48.8575 16.3942 47.7892 17.0518 46.1016 17.0518H42.5808V12.6493H46.3555C47.9688 12.6493 48.8637 13.422 48.8637 14.7929L48.8575 14.845ZM49.8267 23.1893C49.8267 24.7385 48.808 25.4518 47.1173 25.4518H42.5808V20.871H46.9996C48.9628 20.871 49.8329 21.7366 49.8329 23.1373L49.8267 23.1893ZM61.6618 29.4828V8.62573H57.8252V29.4828H61.6618ZM82.2199 29.4828V8.62573H78.4328V21.4692L70.2888 8.62573H66.7618V29.4828H70.5365V16.2233L78.953 29.4828H82.2199ZM103.403 29.4828L95.9407 8.47712H92.4137L84.9665 29.4828H88.8651L90.4598 24.8054H97.811L99.3996 29.4828H103.403ZM96.4516 20.7521H91.8192L94.1292 13.9905L96.4516 20.7521ZM121.633 29.4828V8.62573H117.846V21.4692L109.699 8.62573H106.175V29.4828H109.946V16.2233L118.366 29.4828H121.633ZM141.373 26.1169L138.943 23.167C137.577 24.6531 136.36 25.6079 134.372 25.6079C131.393 25.6079 129.331 22.6357 129.331 19.0543V18.9948C129.331 15.4208 131.443 12.5007 134.372 12.5007C136.109 12.5007 137.469 13.3923 138.819 14.8524L141.243 11.4864C139.63 9.58053 137.67 8.26907 134.391 8.26907C129.052 8.26907 125.327 13.1248 125.327 19.0431V19.1026C125.327 25.0915 129.127 29.8283 134.242 29.8283C137.589 29.8395 139.574 28.4091 141.361 26.1169H141.373ZM157.692 29.4828V25.3961H148.242V21.0085H156.438V16.9218H148.242V12.7087H157.556V8.62201H144.442V29.4791L157.692 29.4828Z" fill="white" fill-opacity="0.7"/>
</svg>
