<svg width="82" height="35" viewBox="0 0 82 35" fill="none" xmlns="http://www.w3.org/2000/svg">
<path d="M74.9493 31.4392V32.5141H75.9943V33.7623H76.8942V32.5141H77.9393V31.4392H76.8942V30.1909H75.9943V31.4392H74.9493ZM20.6362 7.40986C21.449 7.40986 21.6232 7.54856 21.8845 7.86063C22.2328 8.31139 22.407 8.65814 22.407 8.93553C22.407 9.2476 21.8264 9.76771 21.3329 10.2185L21.1878 10.3572C20.6362 10.8426 20.3459 10.9466 19.2719 10.9466H8.03768C7.89253 10.9466 7.74739 10.8773 7.6603 10.7386C7.57322 10.5999 7.54419 10.4265 7.60225 10.2532L8.00865 8.27672C8.09574 7.82595 8.47311 7.44453 8.85049 7.44453H20.6362V7.40986ZM19.0396 15.4196C19.8524 15.4196 20.0266 15.5583 20.2879 15.8704C20.6362 16.3212 20.8104 16.6679 20.8104 16.9453C20.8104 17.292 20.2298 17.7775 19.7073 18.2282L19.5622 18.3323C19.0106 18.8177 18.7203 18.9217 17.6462 18.9217H6.41206C6.26692 18.9217 6.12177 18.8524 6.06371 18.7137C5.97663 18.575 5.97663 18.4016 6.00566 18.1936L6.41206 16.2171C6.49915 15.7664 6.87652 15.385 7.2539 15.385H19.0396V15.4196ZM24.3519 12.7844L26.442 10.8079C27.3129 9.97576 27.5451 8.24204 26.9065 7.02844L24.5842 3.0409C24.3229 2.59013 23.7133 2.17404 23.2779 2.17404H10.0697C9.60524 2.17404 9.34398 1.72327 9.4601 1.16848V1.02979C9.57621 0.474997 9.28592 0.024231 8.82146 0.024231H5.48314C5.01867 0.024231 4.61227 0.3363 4.49615 0.891089L0.0257015 23.1173C-0.0904141 23.6721 0.199875 24.1229 0.635308 24.1229H18.9525C19.417 24.1229 20.0847 23.8455 20.433 23.4987L24.7293 19.4418C25.6873 18.5056 25.8034 16.4252 25.1647 15.2809C25.1647 15.2809 24.2358 13.6859 24.2358 13.6512C24.1197 13.4779 24.1487 12.9924 24.3519 12.7844ZM64.4699 2.17404C64.0054 2.17404 63.3377 2.45143 62.9894 2.79818L59.0415 6.57768C58.6641 6.92442 58.2867 7.65258 58.1706 8.24204L56.2257 17.8815C56.1095 18.4363 56.2257 19.2685 56.5159 19.7539L58.548 23.2907C58.8092 23.7415 59.4188 24.1229 59.8543 24.1229H76.9233C77.3587 24.1229 77.8522 23.6721 77.9683 23.1173L78.636 19.9273C78.7521 19.3725 78.4618 18.9217 78.0264 18.9217H62.7862C62.3508 18.9217 62.2056 18.679 62.0605 18.4363L61.625 17.6735C61.3928 17.188 61.4218 16.98 61.538 16.4252L63.1345 8.48476C63.2507 7.92997 63.7151 7.47921 64.1506 7.47921H80.3196C80.7841 7.47921 81.2195 7.02844 81.3357 6.47365L81.9743 3.28362C82.0904 2.72883 81.8001 2.27806 81.3647 2.27806H64.4699V2.17404ZM33.5831 1.34185C33.8444 1.79262 34.425 2.20871 34.8894 2.20871H51.2907C51.7552 2.20871 52.3358 2.59013 52.597 3.0409L54.9774 7.16714C55.2387 7.61791 55.3838 8.48476 55.2677 9.03955L52.4229 23.152C52.3068 23.7068 51.8423 24.1576 51.4069 24.1576H48.0685C47.6041 24.1576 47.3428 23.7068 47.4589 23.152L50.4199 8.48476C50.536 7.92997 50.2457 7.47921 49.8103 7.47921H46.0946C45.6301 7.47921 45.1656 7.92997 45.0786 8.48476L42.1176 23.152C42.0015 23.7068 41.537 24.1576 41.1016 24.1576H37.7633C37.2988 24.1576 37.0376 23.7068 37.1537 23.152L40.0566 8.45009C40.1727 7.8953 39.9114 7.44453 39.447 7.44453H35.7022C35.2378 7.44453 34.7733 7.8953 34.6862 8.45009L31.7253 23.152C31.6091 23.7068 31.1447 24.1576 30.7093 24.1576H27.3419C26.8774 24.1576 26.6162 23.7068 26.7323 23.152L29.9255 7.30584C30.0416 6.75105 29.9255 5.91886 29.6352 5.43342L29.3159 4.91331C29.0546 4.46254 29.1127 3.76906 29.49 3.42231L32.2478 0.82174C32.5961 0.474997 33.1187 0.57902 33.4089 1.06446L33.5831 1.34185ZM3.42208 30.919C3.335 30.1562 2.87053 29.8441 2.20287 29.8441C1.65132 29.8441 1.1288 30.0522 1.1288 30.7457C1.1288 31.4045 1.88355 31.4738 2.66733 31.6819C3.42208 31.8553 4.20586 32.1673 4.20586 33.1729C4.20586 34.2825 3.18985 34.7332 2.31898 34.7332C1.24492 34.7332 0.345019 34.1784 0.345019 32.8955H0.954626C0.954626 33.7623 1.62229 34.1438 2.34801 34.1438C2.92859 34.1438 3.56723 33.9357 3.56723 33.2075C3.56723 32.4794 2.81248 32.3754 2.0287 32.1673C1.27394 31.9939 0.490164 31.7512 0.490164 30.7803C0.490164 29.7054 1.36103 29.2547 2.2319 29.2547C3.21888 29.2547 3.97363 29.7748 4.00266 30.919H3.42208ZM9.4601 30.1909L8.357 34.5945H7.68933L6.44109 29.3587H7.10875L8.03768 33.7277H8.06671L9.14078 29.3587H9.83747L10.8825 33.7277H10.9115L11.8985 29.3587H12.5372L11.2309 34.5945H10.5632L9.4601 30.1909ZM15.3239 29.3587H15.9626V34.5945H15.3239V29.3587ZM18.5752 29.3587H22.436V29.9482H20.8104V34.5945H20.1718V29.9482H18.5752V29.3587ZM25.0776 29.9482V29.3587H28.5901V29.9482L25.6002 34.0051H28.6772V34.5945H24.8454V34.0051L27.8354 29.9482H25.0776ZM34.9184 29.9482H32.2188V31.6125H34.7443V32.202H32.2188V34.0051H34.9475V34.5945H31.5801V29.3587H34.9184V29.9482ZM40.1437 31.7859C40.7533 31.7859 41.2467 31.6125 41.2467 30.8497C41.2467 30.3296 40.9855 29.9482 40.3759 29.9482H38.7793V31.7859H40.1437ZM38.1697 29.3587H40.4339C41.3338 29.3587 41.8854 29.8788 41.8854 30.711C41.8854 31.3351 41.6241 31.8553 41.0435 32.0286C41.5951 32.1326 41.7112 32.5834 41.7693 33.1035C41.7983 33.6236 41.7693 34.1784 42.0596 34.5598H41.3338C41.1597 34.3518 41.2467 33.797 41.1597 33.2769C41.1016 32.7568 40.9855 32.3407 40.3469 32.3407H38.7793V34.5598H38.1407V29.3587H38.1697ZM45.6011 34.0051H48.1266V34.5945H44.9624V29.3587H45.6011V34.0051ZM51.6972 32.4447H53.3228L52.51 30.0175L51.6972 32.4447ZM52.1616 29.3587H52.8583L54.7452 34.5945H54.0485L53.526 33.0342H51.494L50.9424 34.5945H50.2747L52.1616 29.3587ZM60.5219 33.6236H60.551V29.3587H61.1606V34.5945H60.4639L57.9384 30.3989V34.5945H57.3288V29.3587H57.9964L60.5219 33.6236ZM64.8763 34.0051H65.9503C66.3858 34.0051 67.576 33.8664 67.576 31.9593C67.576 30.711 67.1405 29.9482 65.9794 29.9482H64.9053V34.0051H64.8763ZM64.2376 29.3587H65.8923C67.3728 29.3587 68.2146 30.1562 68.2146 31.8553C68.2146 33.589 67.5179 34.5945 65.8923 34.5945H64.2376V29.3587Z" fill="white" fill-opacity="0.7"/>
</svg>
