<svg width="116" height="31" viewBox="0 0 116 31" fill="none" xmlns="http://www.w3.org/2000/svg">
<path fill-rule="evenodd" clip-rule="evenodd" d="M9.02867 26.5603C9.92767 26.5603 10.7687 26.3661 11.5613 25.9891C11.5613 26.0234 13.1757 28.9822 13.2047 28.9936C11.7759 29.8982 10.1758 30.3582 8.555 30.3302C3.596 30.3416 0 26.4689 0 20.3114C0 14.1082 3.77 10.2583 8.555 10.2583C10.2467 10.2583 11.5903 10.6924 12.934 11.5378L11.3873 14.6223C10.5753 14.2453 9.744 14.0739 8.874 14.0739C5.945 14.0739 3.67333 16.2787 3.67333 20.3114C3.67333 24.127 5.86767 26.5603 9.02867 26.5603ZM21.5277 10.2583C26.3997 10.2583 29.928 14.3367 29.928 20.3114C29.928 26.2518 26.3997 30.3302 21.518 30.3302C16.6847 30.3302 13.1563 26.2518 13.1563 20.3114C13.1563 14.3367 16.6847 10.2583 21.5277 10.2583ZM21.5277 13.9368C18.8113 13.9368 16.8297 16.4158 16.8297 20.3114C16.8297 24.1727 18.8113 26.6517 21.5277 26.6517C24.3117 26.6517 26.2643 24.1727 26.2643 20.3114C26.2643 16.4158 24.3117 13.9368 21.5277 13.9368ZM32.2383 29.8961V10.6924H35.873V29.8846H32.2383V29.8961ZM31.755 4.78626C31.7927 4.10303 32.0489 3.46235 32.4717 2.99423C32.8945 2.52611 33.4521 2.26561 34.0315 2.26561C34.6109 2.26561 35.1685 2.52611 35.5913 2.99423C36.0141 3.46235 36.2703 4.10303 36.308 4.78626C36.3081 5.50362 36.0703 6.19248 35.6457 6.70504C35.221 7.21761 34.6432 7.51306 34.0363 7.528C33.4294 7.51306 32.8517 7.21761 32.427 6.70504C32.0023 6.19248 31.7645 5.50362 31.7647 4.78626H31.755ZM39.0437 11.9034C41.4245 10.8458 43.9437 10.289 46.487 10.2583C50.6437 10.2583 53.273 12.1204 53.273 17.5354V29.8961H49.6867V17.9352C49.6867 15.1592 48.227 14.1653 46.2067 14.1653C44.921 14.1653 43.6353 14.3709 42.6783 14.7251V29.8846H39.0533V11.9034H39.0437ZM56.318 0.410889H59.9527V11.2065C60.726 10.7267 62.2243 10.2583 63.655 10.2583C68.353 10.2583 71.8717 13.7997 71.8717 19.9687C71.8717 26.1719 68.3917 30.3302 62.379 30.3302C60.03 30.3302 57.971 29.759 56.318 29.0735V0.410889ZM59.9527 26.2518C60.6487 26.5146 61.567 26.6517 62.4853 26.6517C65.8203 26.6517 68.208 24.4811 68.208 20.0601C68.208 16.3244 65.9653 14.1196 63.22 14.1196C61.7893 14.1196 60.6873 14.5537 59.9527 15.0335V26.2518ZM82.3793 17.0213C82.3793 14.9421 81.0453 13.9825 79.2473 13.9825C77.3817 13.9825 75.9123 14.6337 74.559 15.5476V11.812C76.1779 10.7722 77.9945 10.2375 79.837 10.2583C83.3943 10.2583 85.927 11.9948 85.927 16.8042V29.5077C84.3803 29.9875 82.186 30.2845 80.3493 30.2845C76.1347 30.2845 73.051 28.7765 73.051 24.4354C73.051 20.5284 75.8737 18.6206 80.5717 18.6206H82.3697V17.0213H82.3793ZM82.3793 21.4766H80.8327C78.3 21.4766 76.647 22.3563 76.647 24.3098C76.647 26.2975 78.1937 27.0744 80.388 27.0744C80.939 27.0744 81.7123 26.9944 82.3697 26.8687V21.4881L82.3793 21.4766ZM88.566 24.6982C89.9826 26.0245 91.7191 26.7846 93.525 26.8687C95.1393 26.8687 96.2027 26.2176 96.2027 24.6982C96.2027 23.1331 95.2457 22.5733 93.1577 21.9222C89.7743 21.0082 88.3533 19.4089 88.3533 16.0617C88.3533 12.1661 90.8473 10.2583 94.1533 10.2583C95.99 10.2583 97.4497 10.7267 98.8127 11.732V15.6733C97.5172 14.4514 95.9168 13.7688 94.2597 13.7312C92.684 13.7312 91.843 14.6451 91.843 15.9017C91.843 17.1584 92.5293 17.7981 94.4047 18.415C98.1167 19.3632 99.7213 21.0082 99.7213 24.4697C99.7213 28.5138 97.121 30.3302 93.6023 30.3302C91.8374 30.3718 90.0973 29.834 88.5757 28.7765V24.6982H88.566ZM104.7 21.271V21.351C104.922 24.7781 107.406 26.6517 109.949 26.6517C112.182 26.6517 113.796 26.0348 115.41 24.7781V28.548C113.941 29.7704 111.776 30.3302 109.688 30.3302C104.622 30.3302 101.181 26.5146 101.181 20.4485C101.181 14.3367 104.555 10.2583 109.03 10.2583C113.767 10.2583 116 13.8569 116 19.1005V21.271H104.69H104.7ZM112.588 18.495C112.51 15.5019 111.263 13.8569 108.914 13.8569C106.826 13.8569 105.289 15.5933 104.806 18.495H112.588Z" fill="white" fill-opacity="0.7"/>
</svg>
