<svg width="500" height="500" viewBox="0 0 500 500" fill="none" xmlns="http://www.w3.org/2000/svg">
<path d="M83.5299 247.26C-8.41014 300.34 -8.40014 386.4 83.5299 439.48C175.46 492.56 324.53 492.56 416.46 439.48C508.39 386.4 508.39 300.34 416.46 247.26C324.53 194.18 175.47 194.18 83.5299 247.26Z" fill="#FAFAFA"/>
<path d="M417.46 456.41C456.098 456.41 487.42 438.327 487.42 416.02C487.42 393.713 456.098 375.63 417.46 375.63C378.822 375.63 347.5 393.713 347.5 416.02C347.5 438.327 378.822 456.41 417.46 456.41Z" fill="#E0E0E0"/>
<path d="M231.36 338.53L54.2702 440.72C52.5102 441.72 52.5102 443.39 54.2702 444.41L77.8502 458C78.8399 458.498 79.9324 458.757 81.0402 458.757C82.148 458.757 83.2405 458.498 84.2302 458L261.33 355.8C263.09 354.8 263.09 353.13 261.33 352.11L237.75 338.53C236.759 338.032 235.665 337.773 234.555 337.773C233.446 337.773 232.352 338.032 231.36 338.53Z" fill="#E0E0E0"/>
<path d="M63.7704 448.41L74.9104 442C74.9104 442 81.5504 414.43 78.9104 389.62C75.2004 354.75 52.2404 341.62 43.5104 344.62C34.7804 347.62 32.2504 357.78 46.7004 378.55C55.2104 390.79 65.6804 416.31 63.7704 448.41Z" fill="#BA68C8"/>
<g opacity="0.65">
<path d="M63.7704 448.41L74.9104 442C74.9104 442 81.5504 414.43 78.9104 389.62C75.2004 354.75 52.2404 341.62 43.5104 344.62C34.7804 347.62 32.2504 357.78 46.7004 378.55C55.2104 390.79 65.6804 416.31 63.7704 448.41Z" fill="white"/>
</g>
<path d="M68.3901 434.86H68.2801C68.1802 434.842 68.0847 434.804 67.9994 434.749C67.914 434.694 67.8404 434.623 67.7828 434.539C67.7252 434.456 67.6846 434.361 67.6636 434.262C67.6425 434.163 67.6414 434.06 67.6601 433.96C73.7701 401.79 62.5401 365.64 48.6601 350.6C48.5885 350.529 48.5316 350.444 48.4928 350.35C48.454 350.257 48.4341 350.156 48.4341 350.055C48.4341 349.954 48.454 349.854 48.4928 349.76C48.5316 349.667 48.5885 349.582 48.6601 349.51C48.8063 349.365 49.004 349.283 49.2101 349.283C49.4163 349.283 49.614 349.365 49.7601 349.51C63.9301 364.83 75.3801 401.57 69.1801 434.21C69.1509 434.396 69.0543 434.565 68.9087 434.685C68.7631 434.805 68.5786 434.867 68.3901 434.86Z" fill="white"/>
<path d="M35.7102 464.6C34.0502 465.45 29.6202 461.66 28.3802 460.74C26.2673 459.134 24.601 457.013 23.5402 454.58C22.3609 451.821 22.0674 448.763 22.7002 445.83C23.0284 444.279 23.4627 442.752 24.0002 441.26C24.5002 439.79 25.0002 438.31 25.5202 436.84C26.111 435.417 26.4103 433.891 26.4002 432.35C26.1602 429.26 23.5502 426.97 21.1702 424.99C18.5302 422.8 15.8202 419.99 16.0202 416.26C16.1702 413.41 17.7802 410.84 19.6602 408.69C21.5402 406.54 23.7402 404.69 25.4502 402.39C26.7969 400.811 27.5564 398.815 27.6002 396.74C27.4935 395.464 27.1295 394.222 26.5302 393.09C25.3502 390.62 23.7402 388.33 22.9702 385.7C22.2002 383.07 22.4902 379.87 24.6002 378.12C26.3302 376.68 28.8002 376.6 31.0402 376.86C33.1232 377.223 35.1023 378.036 36.8402 379.24C42.5402 382.79 45.5402 389.91 51.6402 392.73C53.9902 393.82 56.6402 394.16 59.0802 394.95C61.5202 395.74 64.0802 397.15 65.0802 399.52C67.0802 404.2 62.6102 409.61 63.9702 414.52C65.1702 418.88 69.2602 420.73 71.4002 424.71C72.2714 426.464 72.5554 428.452 72.2102 430.38C71.8402 433.647 70.8778 436.819 69.3702 439.74C67.6708 442.738 65.7907 445.63 63.7402 448.4C63.7402 448.4 36.0002 464.47 35.7102 464.6Z" fill="#BA68C8"/>
<g opacity="0.3">
<path d="M35.7102 464.6C34.0502 465.45 29.6202 461.66 28.3802 460.74C26.2673 459.134 24.601 457.013 23.5402 454.58C22.3609 451.821 22.0674 448.763 22.7002 445.83C23.0284 444.279 23.4627 442.752 24.0002 441.26C24.5002 439.79 25.0002 438.31 25.5202 436.84C26.111 435.417 26.4103 433.891 26.4002 432.35C26.1602 429.26 23.5502 426.97 21.1702 424.99C18.5302 422.8 15.8202 419.99 16.0202 416.26C16.1702 413.41 17.7802 410.84 19.6602 408.69C21.5402 406.54 23.7402 404.69 25.4502 402.39C26.7969 400.811 27.5564 398.815 27.6002 396.74C27.4935 395.464 27.1295 394.222 26.5302 393.09C25.3502 390.62 23.7402 388.33 22.9702 385.7C22.2002 383.07 22.4902 379.87 24.6002 378.12C26.3302 376.68 28.8002 376.6 31.0402 376.86C33.1232 377.223 35.1023 378.036 36.8402 379.24C42.5402 382.79 45.5402 389.91 51.6402 392.73C53.9902 393.82 56.6402 394.16 59.0802 394.95C61.5202 395.74 64.0802 397.15 65.0802 399.52C67.0802 404.2 62.6102 409.61 63.9702 414.52C65.1702 418.88 69.2602 420.73 71.4002 424.71C72.2714 426.464 72.5554 428.452 72.2102 430.38C71.8402 433.647 70.8778 436.819 69.3702 439.74C67.6708 442.738 65.7907 445.63 63.7402 448.4C63.7402 448.4 36.0002 464.47 35.7102 464.6Z" fill="white"/>
</g>
<path d="M51.8502 456.19C51.7537 456.184 51.6595 456.158 51.5732 456.115C51.4868 456.071 51.4101 456.011 51.3475 455.937C51.285 455.864 51.238 455.778 51.2092 455.686C51.1805 455.593 51.1706 455.496 51.1802 455.4C53.8402 426.47 41.8002 393.77 32.3302 383.97C32.2051 383.834 32.1357 383.655 32.1357 383.47C32.1357 383.285 32.2051 383.107 32.3302 382.97C32.4656 382.843 32.6444 382.772 32.8302 382.772C33.016 382.772 33.1948 382.843 33.3302 382.97C42.9902 392.97 55.3302 426.21 52.5802 455.55C52.5603 455.729 52.4744 455.893 52.3393 456.012C52.2042 456.13 52.0298 456.194 51.8502 456.19Z" fill="white"/>
<path d="M49.0002 420.52C48.9305 420.53 48.8599 420.53 48.7902 420.52C39.5902 417.13 28.0002 416 27.8902 416C27.7946 415.993 27.7015 415.966 27.6163 415.922C27.5311 415.878 27.4555 415.818 27.394 415.744C27.3325 415.67 27.2864 415.585 27.2582 415.494C27.2301 415.402 27.2206 415.306 27.2302 415.21C27.2349 415.114 27.2596 415.019 27.3027 414.932C27.3458 414.846 27.4063 414.769 27.4806 414.707C27.5548 414.645 27.6411 414.599 27.7339 414.572C27.8268 414.545 27.9243 414.538 28.0202 414.55C28.1402 414.55 39.9102 415.67 49.2602 419.08C49.4293 419.137 49.5719 419.253 49.6611 419.408C49.7502 419.562 49.7797 419.744 49.744 419.919C49.7084 420.093 49.6099 420.249 49.4674 420.356C49.3248 420.463 49.148 420.514 48.9702 420.5L49.0002 420.52Z" fill="white"/>
<path d="M248.67 27.5499L78.45 125.71C77.5224 126.312 76.7507 127.125 76.1979 128.083C75.6452 129.041 75.3272 130.116 75.27 131.22V443.3C75.3298 444.403 75.6501 445.477 76.2045 446.433C76.759 447.389 77.5319 448.2 78.46 448.8L79.1 449.17C80.0897 449.668 81.1822 449.927 82.29 449.927C83.3979 449.927 84.4903 449.668 85.48 449.17L255.7 350.87C256.629 350.267 257.402 349.452 257.954 348.493C258.507 347.533 258.824 346.456 258.88 345.35V33.4099C258.82 32.3064 258.5 31.2328 257.946 30.2768C257.391 29.3209 256.618 28.5098 255.69 27.9099L255.04 27.5399C254.051 27.0431 252.96 26.7851 251.854 26.7869C250.747 26.7886 249.657 27.05 248.67 27.5499Z" fill="#BA68C8"/>
<path opacity="0.45" d="M248.67 27.5499L78.45 125.71C77.5224 126.312 76.7507 127.125 76.1979 128.083C75.6452 129.041 75.3272 130.116 75.27 131.22V443.3C75.3298 444.403 75.6501 445.477 76.2045 446.433C76.759 447.389 77.5319 448.2 78.46 448.8L79.1 449.17C80.0897 449.668 81.1822 449.927 82.29 449.927C83.3979 449.927 84.4903 449.668 85.48 449.17L255.7 350.87C256.629 350.267 257.402 349.452 257.954 348.493C258.507 347.533 258.824 346.456 258.88 345.35V33.4099C258.82 32.3064 258.5 31.2328 257.946 30.2768C257.391 29.3209 256.618 28.5098 255.69 27.9099L255.04 27.5399C254.051 27.0431 252.96 26.7851 251.854 26.7869C250.747 26.7886 249.657 27.05 248.67 27.5499Z" fill="black"/>
<path d="M258.88 345.58C258.88 348.38 256.88 350.16 254.48 351.58L86.6902 448.43C84.2702 449.83 82.2902 448.7 82.2902 445.89V136.62C82.2822 135.076 82.6833 133.558 83.4526 132.219C84.222 130.881 85.3321 129.77 86.6702 129L254.48 32.1298C254.926 31.8713 255.432 31.7349 255.947 31.7344C256.462 31.7339 256.969 31.8692 257.415 32.1268C257.861 32.3844 258.232 32.7552 258.489 33.2017C258.746 33.6481 258.881 34.1545 258.88 34.6698V345.58Z" fill="#BA68C8"/>
<path opacity="0.3" d="M258.88 345.58C258.88 348.38 256.88 350.16 254.48 351.58L86.6902 448.43C84.2702 449.83 82.2902 448.7 82.2902 445.89V136.62C82.2822 135.076 82.6833 133.558 83.4526 132.219C84.222 130.881 85.3321 129.77 86.6702 129L254.48 32.1298C254.926 31.8713 255.432 31.7349 255.947 31.7344C256.462 31.7339 256.969 31.8692 257.415 32.1268C257.861 32.3844 258.232 32.7552 258.489 33.2017C258.746 33.6481 258.881 34.1545 258.88 34.6698V345.58Z" fill="black"/>
<path d="M258.88 33.4099V34.6599C258.877 34.1452 258.739 33.6403 258.48 33.1956C258.221 32.7509 257.85 32.382 257.403 32.1259C256.957 31.8697 256.451 31.7353 255.936 31.736C255.421 31.7367 254.916 31.8725 254.47 32.1299L86.6702 129C85.3355 129.76 84.2301 130.865 83.4702 132.2C83.4662 132.233 83.4662 132.267 83.4702 132.3L76.2002 128.1C76.744 127.111 77.5325 126.277 78.4902 125.68L248.67 27.5499C249.659 27.0546 250.749 26.7966 251.855 26.7966C252.961 26.7966 254.052 27.0546 255.04 27.5499L255.69 27.9199C256.617 28.5188 257.389 29.3283 257.943 30.2824C258.498 31.2365 258.819 32.3082 258.88 33.4099Z" fill="#BA68C8"/>
<path opacity="0.2" d="M258.88 33.4099V34.6599C258.877 34.1452 258.739 33.6403 258.48 33.1956C258.221 32.7509 257.85 32.382 257.403 32.1259C256.957 31.8697 256.451 31.7353 255.936 31.736C255.421 31.7367 254.916 31.8725 254.47 32.1299L86.6702 129C85.3355 129.76 84.2301 130.865 83.4702 132.2C83.4662 132.233 83.4662 132.267 83.4702 132.3L76.2002 128.1C76.744 127.111 77.5325 126.277 78.4902 125.68L248.67 27.5499C249.659 27.0546 250.749 26.7966 251.855 26.7966C252.961 26.7966 254.052 27.0546 255.04 27.5499L255.69 27.9199C256.617 28.5188 257.389 29.3283 257.943 30.2824C258.498 31.2365 258.819 32.3082 258.88 33.4099Z" fill="black"/>
<path opacity="0.25" d="M254.73 332.69C254.73 335.57 252.73 337.41 250.2 338.85L91.6202 430.41C89.1202 431.85 87.0802 430.69 87.0802 427.79V152.85C87.0714 151.26 87.4841 149.695 88.2763 148.317C89.0685 146.938 90.212 145.793 91.5902 145L250.2 53.4399C250.659 53.168 251.181 53.0232 251.714 53.0203C252.247 53.0174 252.771 53.1565 253.232 53.4233C253.694 53.6902 254.076 54.0751 254.339 54.5385C254.602 55.0018 254.737 55.527 254.73 56.0599V332.69Z" fill="black"/>
<path d="M91.14 148.47L249.14 57.2399C249.56 57.0273 250.024 56.9165 250.495 56.9165C250.966 56.9165 251.43 57.0273 251.85 57.2399L253.37 58.1199C253.764 58.3782 254.091 58.7256 254.326 59.1338C254.56 59.5421 254.695 59.9998 254.72 60.4699V336.68C254.694 337.148 254.558 337.604 254.323 338.01C254.089 338.417 253.762 338.763 253.37 339.02L95.37 430.25C94.95 430.463 94.4858 430.573 94.015 430.573C93.5442 430.573 93.0801 430.463 92.66 430.25L91.13 429.37C90.7356 429.109 90.4086 428.758 90.1757 428.346C89.9428 427.934 89.8107 427.473 89.79 427V150.81C89.8164 150.341 89.9523 149.886 90.1867 149.479C90.4212 149.073 90.7477 148.727 91.14 148.47Z" fill="#F5F5F5"/>
<path d="M95.05 430.4C94.8884 430.461 94.7208 430.504 94.55 430.53H94.29C94.0175 430.56 93.7426 430.56 93.47 430.53C93.2995 430.503 93.132 430.46 92.97 430.4L92.67 430.25L91.15 429.38C90.7506 429.12 90.4188 428.768 90.1823 428.354C89.9458 427.94 89.8113 427.476 89.79 427V150.82C89.8023 150.349 89.9404 149.89 90.19 149.49L94.42 151.92C94.1783 152.327 94.0408 152.787 94.02 153.26V429.47C94 430.21 94.46 430.57 95.05 430.4Z" fill="#E0E0E0"/>
<path d="M253.38 58.1199L251.86 57.2399C251.44 57.0273 250.976 56.9165 250.505 56.9165C250.034 56.9165 249.57 57.0273 249.15 57.2399L91.1498 148.47C90.7575 148.727 90.431 149.073 90.1965 149.479C89.962 149.886 89.8262 150.341 89.7998 150.81V167.87L93.9998 170.33L254.73 77.5399V60.4699C254.705 59.9998 254.57 59.5421 254.335 59.1338C254.101 58.7256 253.773 58.3782 253.38 58.1199Z" fill="#BA68C8"/>
<path opacity="0.4" d="M253.38 58.1199L251.86 57.2399C251.44 57.0273 250.976 56.9165 250.505 56.9165C250.034 56.9165 249.57 57.0273 249.15 57.2399L91.1498 148.47C90.7575 148.727 90.431 149.073 90.1965 149.479C89.962 149.886 89.8262 150.341 89.7998 150.81V167.87L93.9998 170.33L254.73 77.5399V60.4699C254.705 59.9998 254.57 59.5421 254.335 59.1338C254.101 58.7256 253.773 58.3782 253.38 58.1199Z" fill="white"/>
<path d="M254.68 60.06C254.52 59.51 254 59.33 253.38 59.68L95.3799 150.91C94.9627 151.147 94.6173 151.493 94.3799 151.91L90.1499 149.47C90.3873 149.053 90.7327 148.707 91.1499 148.47L249.15 57.25C249.567 57.0334 250.03 56.9204 250.5 56.9204C250.97 56.9204 251.433 57.0334 251.85 57.25L253.38 58.1199C253.715 58.34 254.003 58.625 254.226 58.9583C254.45 59.2915 254.604 59.6661 254.68 60.06Z" fill="#BA68C8"/>
<path opacity="0.6" d="M254.68 60.06C254.52 59.51 254 59.33 253.38 59.68L95.3799 150.91C94.9627 151.147 94.6173 151.493 94.3799 151.91L90.1499 149.47C90.3873 149.053 90.7327 148.707 91.1499 148.47L249.15 57.25C249.567 57.0334 250.03 56.9204 250.5 56.9204C250.97 56.9204 251.433 57.0334 251.85 57.25L253.38 58.1199C253.715 58.34 254.003 58.625 254.226 58.9583C254.45 59.2915 254.604 59.6661 254.68 60.06Z" fill="white"/>
<path d="M89.79 150.82V167.89L94 170.33V153.25C94.0212 152.78 94.1587 152.323 94.4 151.92L90.17 149.48C89.9284 149.886 89.7973 150.348 89.79 150.82Z" fill="#BA68C8"/>
<g opacity="0.25">
<path d="M218.18 68.6701V82.2501C218.09 84.1003 217.559 85.9023 216.632 87.506C215.705 89.1097 214.408 90.4688 212.85 91.4701L186.56 106.65C185.26 107.4 184.56 108.9 183.74 110.47C183.22 111.659 182.547 112.775 181.74 113.79C179.74 116.11 175.24 118.52 172.1 119.53C171.073 119.861 170.019 120.102 168.95 120.25C168.55 120.32 168.11 120.38 167.65 120.43C164.79 120.82 161.21 121.3 159.12 122.52L128.35 140.27C127.543 140.771 126.619 141.051 125.67 141.08C125.039 141.085 124.418 140.923 123.87 140.61C123.209 140.184 122.674 139.587 122.322 138.884C121.971 138.18 121.814 137.395 121.87 136.61V123C121.958 121.151 122.487 119.349 123.412 117.745C124.337 116.141 125.633 114.782 127.19 113.78L137.53 107.78C137.572 107.75 137.619 107.73 137.67 107.72C137.914 107.621 138.185 107.613 138.434 107.699C138.683 107.784 138.893 107.957 139.025 108.185C139.156 108.413 139.201 108.68 139.15 108.939C139.1 109.197 138.958 109.428 138.75 109.59C138.719 109.631 138.678 109.662 138.63 109.68L128.3 115.68C127.079 116.49 126.063 117.572 125.329 118.84C124.595 120.108 124.164 121.528 124.07 122.99V136.58C123.953 136.979 123.974 137.405 124.129 137.79C124.285 138.175 124.565 138.497 124.925 138.704C125.285 138.91 125.704 138.99 126.115 138.929C126.526 138.869 126.905 138.672 127.19 138.37L158 120.6C160.47 119.17 164.28 118.66 167.34 118.25L168.62 118.07C169.57 117.934 170.507 117.716 171.42 117.42C174.21 116.54 178.36 114.28 180.06 112.34C180.749 111.467 181.324 110.509 181.77 109.49C182.67 107.68 183.59 105.82 185.47 104.74L211.76 89.5601C212.981 88.7491 213.998 87.6679 214.733 86.4001C215.469 85.1324 215.902 83.7123 216 82.2501V68.6701C216.114 68.2707 216.092 67.8445 215.936 67.4595C215.78 67.0745 215.499 66.7528 215.139 66.5457C214.779 66.3386 214.36 66.258 213.949 66.3168C213.537 66.3756 213.158 66.5704 212.87 66.8701L203.9 72.0001C203.6 71.3243 203.22 70.6865 202.77 70.1001L211.77 64.9201C212.398 64.427 213.159 64.1332 213.956 64.0765C214.752 64.0198 215.547 64.2027 216.239 64.6018C216.93 65.0008 217.487 65.5977 217.836 66.3156C218.186 67.0335 218.312 67.8396 218.2 68.6301L218.18 68.6701Z" fill="black"/>
</g>
<path d="M199 68.9199C199.445 68.7112 199.937 68.6252 200.426 68.6709C200.914 68.7166 201.382 68.8924 201.78 69.1799C202.924 69.9271 203.875 70.9347 204.555 72.1201C205.234 73.3055 205.623 74.6351 205.69 75.9999C205.741 76.4883 205.66 76.9815 205.456 77.4281C205.253 77.8748 204.933 78.2587 204.53 78.5399L142.15 114.54L136.62 104.97L199 68.9199Z" fill="#37474F"/>
<path d="M139.4 109.75L204.55 72.12C203.894 70.9192 202.94 69.9069 201.78 69.18C201.65 69.11 201.53 69.07 201.4 69.01L137.26 106.01L139.4 109.75Z" fill="#455A64"/>
<path d="M139.4 105.21C137.24 103.96 135.49 104.97 135.49 107.46C135.565 108.816 135.957 110.136 136.637 111.312C137.316 112.488 138.263 113.488 139.4 114.23C141.56 115.48 143.31 114.47 143.31 111.97C143.237 110.615 142.845 109.296 142.166 108.121C141.486 106.946 140.539 105.949 139.4 105.21Z" fill="#263238"/>
<path d="M219.29 69.63V83.22C219.205 85.0667 218.68 86.8663 217.76 88.4698C216.84 90.0732 215.551 91.4343 214 92.44L187.71 107.61C186.41 108.36 185.71 109.86 184.89 111.44C184.37 112.629 183.697 113.745 182.89 114.76C180.89 117.07 176.39 119.49 173.25 120.49C172.222 120.83 171.164 121.075 170.09 121.22C169.7 121.29 169.26 121.34 168.8 121.4C165.94 121.78 162.36 122.27 160.27 123.48L129.5 141.24C128.692 141.737 127.768 142.013 126.82 142.04C126.19 142.049 125.569 141.89 125.02 141.58C124.352 141.149 123.813 140.544 123.461 139.831C123.109 139.118 122.956 138.323 123.02 137.53V124C123.106 122.15 123.634 120.348 124.56 118.744C125.486 117.14 126.782 115.781 128.34 114.78L138.68 108.78C138.724 108.756 138.771 108.739 138.82 108.73C139.064 108.617 139.342 108.599 139.599 108.68C139.856 108.761 140.073 108.935 140.208 109.168C140.343 109.4 140.387 109.675 140.33 109.939C140.273 110.202 140.119 110.434 139.9 110.59C139.87 110.634 139.829 110.669 139.78 110.69L129.45 116.69C128.225 117.497 127.203 118.577 126.466 119.846C125.728 121.114 125.295 122.536 125.2 124V137.58C125.08 137.979 125.098 138.408 125.252 138.795C125.405 139.183 125.686 139.508 126.047 139.716C126.408 139.925 126.829 140.005 127.242 139.944C127.655 139.883 128.035 139.684 128.32 139.38L159.09 121.61C161.56 120.19 165.38 119.67 168.44 119.26C168.89 119.26 169.32 119.14 169.71 119.09C170.664 118.955 171.604 118.737 172.52 118.44C175.31 117.55 179.45 115.29 181.16 113.35C181.85 112.481 182.425 111.526 182.87 110.51C183.77 108.7 184.69 106.83 186.57 105.75L212.86 90.58C214.077 89.7669 215.091 88.6847 215.822 87.4171C216.554 86.1495 216.985 84.7306 217.08 83.27V69.63C217.2 69.2306 217.182 68.8023 217.028 68.4146C216.875 68.0268 216.594 67.7024 216.233 67.494C215.872 67.2855 215.451 67.2053 215.038 67.2663C214.625 67.3273 214.246 67.526 213.96 67.83L205 73C204.701 72.3239 204.321 71.686 203.87 71.1L212.87 65.92C213.497 65.428 214.258 65.1347 215.053 65.0778C215.848 65.0209 216.642 65.203 217.333 65.6006C218.024 65.9983 218.581 66.5934 218.931 67.3096C219.282 68.0258 219.41 68.8304 219.3 69.62L219.29 69.63Z" fill="#455A64"/>
<path d="M122.88 166.71C123.06 166.61 123.19 166.6 123.27 166.71C123.385 166.826 123.465 166.971 123.5 167.13L127.5 178.55C127.506 178.597 127.506 178.644 127.5 178.69C127.493 178.861 127.449 179.028 127.37 179.18C127.303 179.324 127.195 179.446 127.06 179.53L125.89 180.21C125.67 180.33 125.52 180.36 125.43 180.29C125.346 180.223 125.284 180.132 125.25 180.03L124.55 178.03L119.41 181.03L118.71 183.84C118.663 183.998 118.602 184.152 118.53 184.3C118.428 184.495 118.267 184.652 118.07 184.75L116.9 185.43C116.856 185.465 116.801 185.484 116.745 185.484C116.689 185.484 116.634 185.465 116.59 185.43C116.541 185.389 116.503 185.337 116.48 185.277C116.458 185.218 116.451 185.153 116.46 185.09C116.455 185.037 116.455 184.983 116.46 184.93L120.46 168.93C120.515 168.697 120.592 168.469 120.69 168.25C120.778 168.079 120.913 167.936 121.08 167.84L122.88 166.71ZM123.78 175.71L122 170.57L120.21 177.79L123.78 175.71Z" fill="#455A64"/>
<path d="M133.45 160.61C134.086 160.21 134.797 159.944 135.54 159.83C136.063 159.75 136.597 159.875 137.03 160.18C137.465 160.53 137.783 161.004 137.94 161.54C138.172 162.268 138.3 163.026 138.32 163.79C138.36 164.843 138.36 165.913 138.32 167C138.283 167.91 138.155 168.815 137.94 169.7C137.737 170.538 137.431 171.347 137.03 172.11C136.639 172.839 136.151 173.512 135.58 174.11C134.98 174.742 134.289 175.281 133.53 175.71L129.43 178.08C129.386 178.115 129.331 178.134 129.275 178.134C129.219 178.134 129.164 178.115 129.12 178.08C129.073 178.04 129.036 177.989 129.013 177.932C128.99 177.874 128.982 177.811 128.99 177.75V163.75C128.992 163.582 129.037 163.416 129.12 163.27C129.188 163.124 129.295 162.999 129.43 162.91L133.45 160.61ZM136.12 165.06C136.108 164.663 136.04 164.269 135.92 163.89C135.829 163.594 135.652 163.333 135.41 163.14C135.168 162.964 134.867 162.889 134.57 162.93C134.144 162.991 133.735 163.14 133.37 163.37L131.19 164.63V174.4L133.45 173.09C133.882 172.849 134.273 172.542 134.61 172.18C135.248 171.473 135.699 170.617 135.92 169.69C136.031 169.224 136.098 168.749 136.12 168.27C136.173 167.183 136.173 166.113 136.12 165.06Z" fill="#455A64"/>
<path d="M144.21 165.3L147 153.36C147.043 153.202 147.1 153.048 147.17 152.9C147.246 152.732 147.376 152.595 147.54 152.51L148.77 151.79C148.816 151.758 148.87 151.741 148.925 151.741C148.981 151.741 149.035 151.758 149.08 151.79C149.127 151.832 149.163 151.885 149.186 151.944C149.209 152.004 149.217 152.067 149.21 152.13V152.2C149.215 152.253 149.215 152.307 149.21 152.36L145.56 168.12C145.516 168.36 145.438 168.592 145.33 168.81C145.247 168.985 145.11 169.128 144.94 169.22L143.64 169.97C143.47 170.07 143.34 170.08 143.25 169.97C143.137 169.854 143.057 169.709 143.02 169.55L139.3 158C139.297 157.96 139.297 157.92 139.3 157.88V157.8C139.306 157.632 139.35 157.468 139.43 157.32C139.498 157.174 139.605 157.049 139.74 156.96L140.98 156.25C141.14 156.15 141.27 156.15 141.35 156.25C141.428 156.321 141.486 156.41 141.52 156.51L144.21 165.3Z" fill="#455A64"/>
<path d="M155.41 147.93C155.59 147.83 155.72 147.82 155.8 147.93C155.917 148.044 155.998 148.19 156.03 148.35L160.03 159.77C160.037 159.817 160.037 159.864 160.03 159.91C160.024 160.081 159.979 160.248 159.9 160.4C159.83 160.542 159.723 160.663 159.59 160.75L158.42 161.43C158.2 161.55 158.05 161.58 157.96 161.51C157.877 161.443 157.814 161.352 157.78 161.25L157.08 159.25L151.94 162.25L151.24 165.06C151.193 165.218 151.132 165.372 151.06 165.52C150.955 165.712 150.795 165.869 150.6 165.97L149.43 166.65C149.386 166.685 149.331 166.704 149.275 166.704C149.219 166.704 149.164 166.685 149.12 166.65C149.073 166.608 149.036 166.555 149.013 166.496C148.99 166.437 148.983 166.373 148.99 166.31C148.98 166.257 148.98 166.203 148.99 166.15L152.99 150.15C153.041 149.915 153.118 149.687 153.22 149.47C153.308 149.299 153.443 149.156 153.61 149.06L155.41 147.93ZM156.31 156.93L154.52 151.78L152.73 159L156.31 156.93Z" fill="#455A64"/>
<path d="M168.91 155.33C168.73 155.44 168.58 155.46 168.49 155.33C168.412 155.28 168.341 155.219 168.28 155.15L163.72 148.75V157.7C163.715 157.868 163.67 158.032 163.59 158.18C163.522 158.326 163.415 158.451 163.28 158.54L161.96 159.3C161.916 159.335 161.861 159.354 161.805 159.354C161.749 159.354 161.694 159.335 161.65 159.3C161.602 159.26 161.566 159.209 161.543 159.152C161.52 159.094 161.512 159.031 161.52 158.97V145C161.522 144.832 161.567 144.666 161.65 144.52C161.718 144.373 161.825 144.249 161.96 144.16L163.1 143.5C163.28 143.4 163.42 143.38 163.52 143.5C163.598 143.55 163.669 143.61 163.73 143.68L168.29 150.08V141.13C168.295 140.962 168.34 140.798 168.42 140.65C168.488 140.503 168.595 140.379 168.73 140.29L170.05 139.53C170.094 139.495 170.149 139.476 170.205 139.476C170.261 139.476 170.316 139.495 170.36 139.53C170.408 139.57 170.444 139.621 170.467 139.678C170.49 139.736 170.498 139.798 170.49 139.86V153.86C170.488 154.028 170.443 154.193 170.36 154.34C170.292 154.486 170.185 154.611 170.05 154.7L168.91 155.33Z" fill="#455A64"/>
<path d="M180.62 133.38C180.664 133.345 180.719 133.326 180.775 133.326C180.831 133.326 180.886 133.345 180.93 133.38C180.976 133.421 181.012 133.472 181.035 133.529C181.057 133.587 181.066 133.649 181.06 133.71V135.25C181.055 135.421 181.01 135.589 180.93 135.74C180.865 135.886 180.757 136.008 180.62 136.09L177.69 137.79V149.68C177.683 149.851 177.639 150.018 177.56 150.17C177.492 150.314 177.385 150.435 177.25 150.52L175.93 151.28C175.885 151.312 175.83 151.329 175.775 151.329C175.72 151.329 175.665 151.312 175.62 151.28C175.573 151.238 175.537 151.185 175.514 151.126C175.491 151.067 175.483 151.003 175.49 150.94V139.06L172.56 140.75C172.516 140.785 172.461 140.804 172.405 140.804C172.349 140.804 172.294 140.785 172.25 140.75C172.203 140.71 172.167 140.659 172.144 140.601C172.121 140.544 172.113 140.481 172.12 140.42V138.87C172.122 138.702 172.167 138.537 172.25 138.39C172.318 138.244 172.425 138.119 172.56 138.03L180.62 133.38Z" fill="#455A64"/>
<path d="M186.88 129.76C187.06 129.66 187.19 129.65 187.27 129.76C187.387 129.874 187.467 130.02 187.5 130.18L191.5 141.6C191.506 141.646 191.506 141.694 191.5 141.74C191.493 141.911 191.449 142.078 191.37 142.23C191.302 142.374 191.195 142.495 191.06 142.58L189.89 143.26C189.67 143.38 189.52 143.41 189.43 143.34C189.346 143.272 189.284 143.182 189.25 143.08L188.55 141.08L183.41 144.08L182.71 146.89C182.662 147.048 182.602 147.202 182.53 147.35C182.428 147.544 182.267 147.702 182.07 147.8L180.9 148.48C180.856 148.515 180.801 148.534 180.745 148.534C180.689 148.534 180.634 148.515 180.59 148.48C180.542 148.438 180.506 148.385 180.483 148.326C180.46 148.267 180.452 148.203 180.46 148.14C180.45 148.087 180.45 148.033 180.46 147.98L184.46 131.98C184.515 131.747 184.592 131.519 184.69 131.3C184.778 131.129 184.913 130.986 185.08 130.89L186.88 129.76ZM187.78 138.76L186 133.62L184.21 140.84L187.78 138.76Z" fill="#455A64"/>
<path d="M192.35 132.23C192.378 131.356 192.499 130.488 192.71 129.64C192.928 128.808 193.247 128.005 193.66 127.25C194.074 126.497 194.585 125.801 195.18 125.18C195.801 124.535 196.512 123.982 197.29 123.54C197.991 123.078 198.788 122.784 199.62 122.68C200.132 122.626 200.647 122.739 201.09 123C201.444 123.243 201.711 123.594 201.85 124C201.989 124.345 202.077 124.709 202.11 125.08C202.12 125.255 202.078 125.429 201.99 125.58C201.916 125.72 201.806 125.838 201.67 125.92L200.35 126.68C200.23 126.75 200.13 126.77 200.06 126.68C199.994 126.645 199.941 126.589 199.91 126.52C199.86 126.423 199.803 126.33 199.74 126.24C199.63 126.084 199.477 125.962 199.3 125.89C199.052 125.781 198.779 125.743 198.51 125.78C198.076 125.839 197.659 125.993 197.29 126.23C196.451 126.699 195.759 127.391 195.29 128.23C194.812 129.092 194.544 130.055 194.51 131.04C194.51 131.6 194.51 132.19 194.51 132.82C194.51 133.45 194.51 134.04 194.51 134.57C194.51 135.76 194.81 136.48 195.29 136.74C195.622 136.87 195.982 136.908 196.334 136.852C196.685 136.796 197.016 136.647 197.29 136.42C197.689 136.191 198.061 135.92 198.4 135.61C198.738 135.295 199.03 134.935 199.27 134.54C199.52 134.118 199.712 133.664 199.84 133.19C199.978 132.634 200.045 132.063 200.04 131.49V131.32L198.04 132.47C197.996 132.505 197.942 132.524 197.885 132.524C197.829 132.524 197.774 132.505 197.73 132.47C197.684 132.427 197.648 132.374 197.626 132.315C197.603 132.256 197.594 132.193 197.6 132.13V130.59C197.607 130.419 197.651 130.252 197.73 130.1C197.801 129.958 197.908 129.837 198.04 129.75L201.79 127.59C201.834 127.555 201.889 127.536 201.945 127.536C202.002 127.536 202.056 127.555 202.1 127.59C202.147 127.631 202.182 127.682 202.205 127.739C202.228 127.797 202.236 127.859 202.23 127.92V130.31C202.227 131.179 202.123 132.045 201.92 132.89C201.714 133.733 201.401 134.546 200.99 135.31C200.573 136.087 200.052 136.804 199.44 137.44C198.806 138.108 198.079 138.681 197.28 139.14C196.628 139.554 195.895 139.827 195.13 139.94C194.602 140.025 194.061 139.903 193.62 139.6C193.181 139.259 192.856 138.791 192.69 138.26C192.467 137.548 192.349 136.807 192.34 136.06C192.34 135.79 192.34 135.49 192.34 135.16C192.34 134.83 192.34 134.49 192.34 134.16C192.34 133.83 192.34 133.47 192.34 133.16C192.34 132.85 192.34 132.51 192.35 132.23Z" fill="#455A64"/>
<path d="M211.88 127.81C211.923 127.778 211.976 127.76 212.03 127.76C212.084 127.76 212.137 127.778 212.18 127.81C212.229 127.851 212.267 127.904 212.291 127.963C212.316 128.022 212.325 128.086 212.32 128.15V129.69C212.316 129.863 212.268 130.032 212.18 130.18C212.113 130.321 212.009 130.442 211.88 130.53L204.73 134.66C204.685 134.692 204.63 134.709 204.575 134.709C204.519 134.709 204.465 134.692 204.42 134.66C204.372 134.618 204.335 134.565 204.313 134.506C204.29 134.447 204.282 134.383 204.29 134.32V120.32C204.29 120.148 204.335 119.98 204.42 119.83C204.491 119.688 204.598 119.567 204.73 119.48L211.73 115.48C211.775 115.448 211.829 115.431 211.885 115.431C211.94 115.431 211.995 115.448 212.04 115.48C212.083 115.525 212.117 115.578 212.137 115.637C212.158 115.696 212.166 115.758 212.16 115.82V117.36C212.157 117.53 212.116 117.698 212.04 117.85C211.972 117.994 211.865 118.116 211.73 118.2L206.47 121.2V124.65L211.37 121.82C211.415 121.788 211.469 121.771 211.525 121.771C211.58 121.771 211.635 121.788 211.68 121.82C211.725 121.864 211.76 121.917 211.783 121.976C211.805 122.034 211.814 122.097 211.81 122.16V123.7C211.805 123.871 211.76 124.039 211.68 124.19C211.612 124.334 211.505 124.456 211.37 124.54L206.47 127.37V130.98L211.88 127.81Z" fill="#455A64"/>
<path d="M218.24 111.44C218.825 111.073 219.478 110.828 220.16 110.72C220.631 110.648 221.113 110.71 221.55 110.9C221.911 111.071 222.206 111.356 222.39 111.71C222.574 112.067 222.679 112.459 222.7 112.86C222.71 113.032 222.668 113.202 222.58 113.35C222.509 113.495 222.398 113.616 222.26 113.7L221.12 114.36C220.94 114.46 220.8 114.5 220.71 114.46C220.606 114.405 220.52 114.322 220.46 114.22C220.378 114.089 220.271 113.976 220.143 113.888C220.016 113.801 219.872 113.74 219.72 113.71C219.191 113.681 218.668 113.836 218.24 114.15C217.955 114.32 217.687 114.517 217.44 114.74C217.189 114.956 216.964 115.201 216.77 115.47C216.586 115.72 216.435 115.992 216.32 116.28C216.215 116.547 216.16 116.832 216.16 117.12C216.142 117.369 216.194 117.619 216.31 117.84C216.372 117.918 216.451 117.981 216.542 118.023C216.632 118.064 216.731 118.084 216.83 118.08C217.168 118.085 217.505 118.041 217.83 117.95L219.33 117.54C219.879 117.369 220.447 117.265 221.02 117.23C221.419 117.193 221.82 117.277 222.17 117.47C222.482 117.666 222.718 117.962 222.84 118.31C222.998 118.78 223.072 119.274 223.06 119.77C223.056 120.45 222.944 121.125 222.73 121.77C222.515 122.475 222.206 123.148 221.81 123.77C221.383 124.425 220.884 125.028 220.32 125.57C219.72 126.147 219.048 126.645 218.32 127.05C217.78 127.377 217.193 127.619 216.58 127.77C216.098 127.892 215.593 127.892 215.11 127.77C214.702 127.646 214.348 127.385 214.11 127.03C213.83 126.587 213.678 126.074 213.67 125.55C213.66 125.377 213.706 125.205 213.8 125.06C213.871 124.918 213.978 124.797 214.11 124.71L215.25 124.05C215.373 123.958 215.528 123.918 215.68 123.94C215.737 123.961 215.787 123.994 215.829 124.038C215.87 124.081 215.902 124.133 215.92 124.19C215.999 124.333 216.093 124.467 216.2 124.59C216.314 124.722 216.469 124.81 216.64 124.84C216.868 124.887 217.103 124.887 217.33 124.84C217.683 124.732 218.019 124.578 218.33 124.38C218.679 124.191 219.013 123.977 219.33 123.74C219.624 123.505 219.892 123.24 220.13 122.95C220.346 122.678 220.531 122.383 220.68 122.07C220.824 121.757 220.896 121.415 220.89 121.07C220.905 120.951 220.892 120.831 220.852 120.718C220.812 120.605 220.747 120.503 220.66 120.42C220.559 120.355 220.446 120.311 220.328 120.29C220.209 120.27 220.088 120.273 219.97 120.3C219.581 120.351 219.196 120.434 218.82 120.55C218.37 120.68 217.82 120.82 217.24 120.96C216.778 121.091 216.301 121.159 215.82 121.16C215.457 121.186 215.096 121.082 214.803 120.865C214.509 120.649 214.303 120.335 214.22 119.98C214.072 119.47 214.005 118.941 214.02 118.41C214.022 117.73 214.133 117.055 214.35 116.41C214.562 115.731 214.862 115.082 215.24 114.48C215.627 113.86 216.083 113.286 216.6 112.77C217.087 112.257 217.638 111.81 218.24 111.44Z" fill="#455A64"/>
<g opacity="0.2">
<path d="M106.39 201.67L256.57 114.93C257.2 114.57 257.72 114.86 257.72 115.6V151.43C257.698 151.83 257.583 152.219 257.383 152.567C257.183 152.914 256.905 153.21 256.57 153.43L106.39 240.16C105.76 240.53 105.25 240.23 105.25 239.5V203.66C105.271 203.262 105.386 202.875 105.584 202.53C105.782 202.184 106.058 201.89 106.39 201.67Z" fill="black"/>
</g>
<path d="M264.54 119.68C264.317 119.603 264.078 119.579 263.844 119.61C263.61 119.642 263.386 119.727 263.19 119.86L114.76 205.6C114.175 205.988 113.69 206.507 113.342 207.117C112.995 207.726 112.795 208.409 112.76 209.11V243.11C112.734 243.354 112.771 243.601 112.868 243.827C112.964 244.052 113.116 244.25 113.31 244.4C112.96 244.18 109.9 242.4 109.53 242.22C109.328 242.073 109.169 241.875 109.067 241.647C108.965 241.419 108.925 241.168 108.95 240.92V206.92C108.986 206.219 109.186 205.537 109.533 204.927C109.88 204.318 110.366 203.798 110.95 203.41L259.37 117.67C259.578 117.52 259.821 117.428 260.076 117.403C260.331 117.379 260.588 117.422 260.82 117.53C261.16 117.73 263.82 119.24 264.54 119.68Z" fill="#BA68C8"/>
<g opacity="0.2">
<path d="M264.54 119.68C263.82 119.24 261.16 117.68 260.83 117.53C260.597 117.422 260.341 117.379 260.086 117.403C259.831 117.428 259.587 117.52 259.38 117.67L111 203.41C110.401 203.782 109.908 204.302 109.57 204.92L113.37 207.12C113.708 206.499 114.201 205.976 114.8 205.6L263.23 119.86C263.421 119.733 263.637 119.651 263.864 119.62C264.091 119.589 264.322 119.609 264.54 119.68Z" fill="white"/>
</g>
<path d="M114.76 205.6L263.19 119.86C264.31 119.22 265.19 119.74 265.19 121.03V155.03C265.155 155.73 264.956 156.411 264.609 157.02C264.261 157.628 263.775 158.145 263.19 158.53L114.76 244.26C113.64 244.91 112.76 244.38 112.76 243.09V209.09C112.799 208.393 113 207.714 113.347 207.109C113.694 206.503 114.178 205.986 114.76 205.6Z" fill="#FAFAFA"/>
<path d="M113.33 207.12L109.53 204.92C109.162 205.524 108.956 206.213 108.93 206.92V240.92C108.905 241.168 108.945 241.419 109.047 241.647C109.149 241.875 109.308 242.073 109.51 242.22C109.88 242.44 112.94 244.22 113.29 244.4C113.096 244.25 112.944 244.052 112.848 243.826C112.751 243.601 112.714 243.354 112.74 243.11V209.11C112.762 208.407 112.965 207.721 113.33 207.12Z" fill="#BA68C8"/>
<path opacity="0.15" d="M113.33 207.12L109.53 204.92C109.162 205.524 108.956 206.213 108.93 206.92V240.92C108.905 241.168 108.945 241.419 109.047 241.647C109.149 241.875 109.308 242.073 109.51 242.22C109.88 242.44 112.94 244.22 113.29 244.4C113.096 244.25 112.944 244.052 112.848 243.826C112.751 243.601 112.714 243.354 112.74 243.11V209.11C112.762 208.407 112.965 207.721 113.33 207.12Z" fill="black"/>
<path d="M264.09 120.52C264.27 120.52 264.28 120.98 264.28 121.03V155.03C264.24 155.567 264.079 156.088 263.809 156.554C263.539 157.02 263.166 157.419 262.72 157.72L114.29 243.45C114.159 243.539 114.007 243.591 113.85 243.6C113.67 243.6 113.67 243.14 113.67 243.09V209.09C113.708 208.551 113.868 208.028 114.138 207.56C114.409 207.092 114.782 206.692 115.23 206.39L263.66 120.66C263.787 120.571 263.935 120.516 264.09 120.5M264.09 119.57C263.772 119.582 263.462 119.675 263.19 119.84L114.76 205.6C114.175 205.988 113.69 206.508 113.343 207.117C112.995 207.727 112.796 208.409 112.76 209.11V243.11C112.76 244.03 113.22 244.56 113.88 244.56C114.202 244.549 114.516 244.452 114.79 244.28L263.22 158.54C263.805 158.155 264.291 157.638 264.639 157.03C264.986 156.421 265.185 155.74 265.22 155.04V121C265.22 120.09 264.77 119.56 264.1 119.56L264.09 119.57Z" fill="#BA68C8"/>
<path d="M141.33 202.67C143.33 203.83 144.59 206.33 144.59 209.88C144.59 216.99 139.59 225.63 133.45 229.18C130.37 230.96 127.59 231.13 125.57 229.96L122 227.91C120 226.75 118.73 224.25 118.73 220.7C118.73 213.59 123.73 204.95 129.88 201.39C132.95 199.62 135.74 199.45 137.76 200.61L141.33 202.67Z" fill="#BA68C8"/>
<path opacity="0.2" d="M141.33 202.67C143.33 203.83 144.59 206.33 144.59 209.88C144.59 216.99 139.59 225.63 133.45 229.18C130.37 230.96 127.59 231.13 125.57 229.96L122 227.91C120 226.75 118.73 224.25 118.73 220.7C118.73 213.59 123.73 204.95 129.88 201.39C132.95 199.62 135.74 199.45 137.76 200.61L141.33 202.67Z" fill="black"/>
<path d="M133.45 229.18C130.37 230.96 127.59 231.13 125.57 229.96C123.55 228.79 122.31 226.3 122.31 222.75C122.31 215.64 127.31 207 133.45 203.45C136.53 201.67 139.31 201.5 141.33 202.67C143.35 203.84 144.59 206.33 144.59 209.88C144.59 217 139.6 225.63 133.45 229.18Z" fill="#BA68C8"/>
<path d="M139.37 211.3L134.65 214V207.71C134.65 206.83 134.11 206.42 133.45 206.8C133.085 207.062 132.787 207.405 132.579 207.803C132.37 208.2 132.258 208.641 132.25 209.09V215.39L127.53 218.11C127.165 218.374 126.867 218.719 126.659 219.118C126.45 219.517 126.338 219.96 126.33 220.41C126.33 221.29 126.87 221.7 127.53 221.31L132.25 218.59V224.88C132.25 225.76 132.79 226.17 133.45 225.79C133.815 225.528 134.113 225.185 134.321 224.787C134.53 224.389 134.642 223.949 134.65 223.5V217.2L139.37 214.48C139.735 214.216 140.033 213.871 140.242 213.472C140.45 213.072 140.562 212.63 140.57 212.18C140.57 211.32 140 210.91 139.37 211.3Z" fill="#FAFAFA"/>
<path d="M152.26 199.69L256.78 139.32C257.538 138.776 258.159 138.062 258.593 137.236C259.027 136.409 259.262 135.493 259.28 134.56C259.28 132.72 258.16 131.87 256.78 132.67L152.26 193C151.504 193.545 150.885 194.259 150.453 195.086C150.02 195.912 149.787 196.828 149.77 197.76C149.77 199.64 150.89 200.48 152.26 199.69ZM256.78 146.69L152.26 207C151.502 207.546 150.883 208.262 150.45 209.09C150.018 209.918 149.785 210.836 149.77 211.77C149.77 213.61 150.89 214.45 152.26 213.65L256.78 153.29C257.54 152.745 258.161 152.029 258.595 151.201C259.029 150.373 259.264 149.455 259.28 148.52C259.28 146.72 258.16 145.87 256.78 146.67V146.69Z" fill="#E0E0E0"/>
<g opacity="0.2">
<path d="M106.39 256.25L256.57 169.51C257.2 169.14 257.72 169.44 257.72 170.17V206C257.698 206.4 257.583 206.789 257.383 207.137C257.183 207.484 256.905 207.78 256.57 208L106.39 294.74C105.76 295.1 105.25 294.81 105.25 294.07V258.24C105.271 257.842 105.386 257.455 105.584 257.109C105.782 256.764 106.058 256.469 106.39 256.25Z" fill="black"/>
</g>
<path d="M264.54 174.25C264.316 174.174 264.077 174.152 263.843 174.185C263.608 174.218 263.385 174.305 263.19 174.44L114.76 260.18C114.174 260.566 113.687 261.085 113.339 261.695C112.991 262.305 112.793 262.989 112.76 263.69V297.69C112.736 297.934 112.774 298.18 112.87 298.405C112.966 298.631 113.118 298.828 113.31 298.98C112.96 298.75 109.9 296.98 109.53 296.8C109.329 296.652 109.17 296.454 109.068 296.227C108.967 295.999 108.926 295.748 108.95 295.5V261.5C108.985 260.799 109.184 260.116 109.531 259.506C109.879 258.896 110.365 258.377 110.95 257.99L259.37 172.24C259.579 172.091 259.823 172.001 260.078 171.978C260.332 171.955 260.589 172.001 260.82 172.11C261.16 172.31 263.82 173.81 264.54 174.25Z" fill="#BA68C8"/>
<g opacity="0.2">
<path d="M264.54 174.25C263.82 173.81 261.16 172.31 260.83 172.11C260.598 172.001 260.342 171.955 260.087 171.978C259.832 172.001 259.588 172.091 259.38 172.24L111 258C110.398 258.368 109.905 258.889 109.57 259.51L113.37 261.7C113.711 261.084 114.203 260.564 114.8 260.19L263.23 174.45C263.419 174.32 263.635 174.234 263.862 174.2C264.089 174.165 264.321 174.182 264.54 174.25Z" fill="white"/>
</g>
<path d="M114.76 260.18L263.19 174.44C264.31 173.8 265.19 174.32 265.19 175.61V209.61C265.155 210.311 264.955 210.993 264.608 211.603C264.26 212.213 263.775 212.732 263.19 213.12L114.76 298.84C113.64 299.48 112.76 298.96 112.76 297.67V263.67C112.797 262.972 112.998 262.293 113.345 261.687C113.692 261.081 114.177 260.565 114.76 260.18Z" fill="#FAFAFA"/>
<path d="M113.33 261.69L109.53 259.5C109.161 260.103 108.954 260.792 108.93 261.5V295.5C108.906 295.748 108.947 295.999 109.048 296.226C109.15 296.454 109.309 296.652 109.51 296.8C109.88 297.02 112.94 298.8 113.29 298.98C113.098 298.828 112.946 298.631 112.85 298.405C112.754 298.18 112.716 297.934 112.74 297.69V263.69C112.762 262.983 112.965 262.295 113.33 261.69Z" fill="#BA68C8"/>
<path opacity="0.15" d="M113.33 261.69L109.53 259.5C109.161 260.103 108.954 260.792 108.93 261.5V295.5C108.906 295.748 108.947 295.999 109.048 296.226C109.15 296.454 109.309 296.652 109.51 296.8C109.88 297.02 112.94 298.8 113.29 298.98C113.098 298.828 112.946 298.631 112.85 298.405C112.754 298.18 112.716 297.934 112.74 297.69V263.69C112.762 262.983 112.965 262.295 113.33 261.69Z" fill="black"/>
<path d="M264.09 175.1C264.27 175.1 264.28 175.56 264.28 175.61V209.61C264.242 210.149 264.081 210.672 263.811 211.14C263.541 211.608 263.168 212.008 262.72 212.31L114.29 298C114.157 298.084 114.006 298.135 113.85 298.15C113.67 298.15 113.67 297.69 113.67 297.64V263.64C113.708 263.101 113.868 262.578 114.138 262.11C114.409 261.642 114.782 261.242 115.23 260.94L263.66 175.2C263.79 175.117 263.937 175.066 264.09 175.05M264.09 174.11C263.77 174.122 263.46 174.218 263.19 174.39L114.76 260.18C114.174 260.567 113.688 261.086 113.341 261.696C112.993 262.306 112.794 262.989 112.76 263.69V297.69C112.76 298.6 113.22 299.13 113.88 299.13C114.202 299.122 114.516 299.029 114.79 298.86L263.19 213.1C263.775 212.712 264.26 212.193 264.608 211.583C264.955 210.973 265.155 210.291 265.19 209.59V175.59C265.19 174.67 264.74 174.14 264.07 174.14L264.09 174.11Z" fill="#BA68C8"/>
<path d="M141.33 257.24C143.33 258.41 144.59 260.9 144.59 264.46C144.59 271.56 139.59 280.21 133.45 283.76C130.37 285.54 127.59 285.7 125.57 284.54L122 282.49C120 281.32 118.73 278.83 118.73 275.27C118.73 268.17 123.73 259.52 129.88 255.97C132.95 254.19 135.74 254.03 137.76 255.19L141.33 257.24Z" fill="#BA68C8"/>
<path opacity="0.2" d="M141.33 257.24C143.33 258.41 144.59 260.9 144.59 264.46C144.59 271.56 139.59 280.21 133.45 283.76C130.37 285.54 127.59 285.7 125.57 284.54L122 282.49C120 281.32 118.73 278.83 118.73 275.27C118.73 268.17 123.73 259.52 129.88 255.97C132.95 254.19 135.74 254.03 137.76 255.19L141.33 257.24Z" fill="black"/>
<path d="M133.45 283.76C130.37 285.54 127.59 285.7 125.57 284.54C123.55 283.38 122.31 280.88 122.31 277.33C122.31 270.22 127.31 261.58 133.45 258.02C136.53 256.25 139.31 256.08 141.33 257.24C143.35 258.4 144.59 260.9 144.59 264.46C144.59 271.56 139.6 280.21 133.45 283.76Z" fill="#BA68C8"/>
<path d="M139.37 265.87L134.65 268.6V262.31C134.65 261.42 134.11 261.02 133.45 261.4C133.085 261.662 132.787 262.005 132.579 262.403C132.37 262.8 132.258 263.241 132.25 263.69V270L127.53 272.73C127.165 272.992 126.867 273.335 126.659 273.733C126.45 274.13 126.338 274.571 126.33 275.02C126.33 275.91 126.87 276.31 127.53 275.93L132.25 273.2V279.5C132.25 280.38 132.79 280.79 133.45 280.4C133.816 280.139 134.115 279.796 134.324 279.398C134.532 279 134.644 278.559 134.65 278.11V271.8L139.37 269.07C139.735 268.808 140.033 268.465 140.241 268.067C140.45 267.67 140.562 267.229 140.57 266.78C140.57 265.9 140 265.49 139.37 265.87Z" fill="#FAFAFA"/>
<path d="M152.26 254.26L256.78 193.9C257.54 193.355 258.161 192.639 258.595 191.811C259.029 190.983 259.264 190.065 259.28 189.13C259.28 187.3 258.16 186.45 256.78 187.25L152.26 247.61C151.502 248.156 150.883 248.872 150.45 249.7C150.018 250.528 149.785 251.446 149.77 252.38C149.77 254.21 150.89 255.06 152.26 254.26ZM256.78 201.26L152.26 261.61C151.502 262.156 150.883 262.872 150.45 263.7C150.018 264.528 149.785 265.446 149.77 266.38C149.77 268.21 150.89 269.06 152.26 268.26L256.78 207.89C257.538 207.346 258.159 206.632 258.593 205.806C259.027 204.979 259.262 204.063 259.28 203.13C259.28 201.29 258.16 200.45 256.78 201.24V201.26Z" fill="#E0E0E0"/>
<g opacity="0.2">
<path d="M106.39 310.83L256.57 224.09C257.2 223.72 257.72 224.02 257.72 224.75V260.58C257.701 260.981 257.586 261.371 257.386 261.719C257.186 262.066 256.907 262.362 256.57 262.58L106.39 349.31C105.76 349.68 105.25 349.38 105.25 348.65V312.81C105.271 312.413 105.385 312.027 105.583 311.683C105.781 311.339 106.057 311.047 106.39 310.83Z" fill="black"/>
</g>
<path d="M264.54 228.83C264.316 228.752 264.077 228.728 263.842 228.761C263.607 228.794 263.383 228.883 263.19 229.02L114.76 314.75C114.175 315.137 113.689 315.657 113.342 316.267C112.994 316.876 112.795 317.559 112.76 318.26V352.26C112.734 352.504 112.771 352.751 112.867 352.976C112.963 353.202 113.116 353.4 113.31 353.55C112.96 353.33 109.9 351.6 109.53 351.37C109.327 351.223 109.167 351.026 109.065 350.798C108.963 350.569 108.923 350.318 108.95 350.07V316.07C108.986 315.369 109.185 314.687 109.533 314.077C109.88 313.468 110.365 312.948 110.95 312.56L259.37 226.82C259.577 226.668 259.821 226.576 260.077 226.553C260.332 226.53 260.589 226.578 260.82 226.69C261.16 226.88 263.82 228.39 264.54 228.83Z" fill="#BA68C8"/>
<g opacity="0.2">
<path d="M264.54 228.83C263.82 228.39 261.16 226.83 260.83 226.69C260.599 226.578 260.342 226.53 260.087 226.553C259.831 226.576 259.587 226.668 259.38 226.82L111 312.56C110.403 312.934 109.911 313.454 109.57 314.07L113.37 316.27C113.711 315.651 114.203 315.128 114.8 314.75L263.19 229C263.385 228.866 263.61 228.781 263.844 228.752C264.079 228.722 264.317 228.749 264.54 228.83Z" fill="white"/>
</g>
<path d="M114.76 314.75L263.19 229C264.31 228.35 265.19 228.88 265.19 230.17V264.17C265.155 264.871 264.955 265.554 264.608 266.163C264.26 266.773 263.775 267.292 263.19 267.68L114.76 353.41C113.64 354.06 112.76 353.54 112.76 352.24V318.24C112.799 317.543 113 316.864 113.347 316.258C113.694 315.653 114.178 315.136 114.76 314.75Z" fill="#FAFAFA"/>
<path d="M113.33 316.27L109.53 314.07C109.163 314.675 108.956 315.363 108.93 316.07V350.07C108.903 350.318 108.943 350.569 109.045 350.798C109.147 351.026 109.307 351.223 109.51 351.37C109.88 351.6 112.94 353.37 113.29 353.55C113.096 353.399 112.943 353.202 112.847 352.976C112.751 352.751 112.714 352.504 112.74 352.26V318.26C112.762 317.557 112.965 316.871 113.33 316.27Z" fill="#BA68C8"/>
<path opacity="0.15" d="M113.33 316.27L109.53 314.07C109.163 314.675 108.956 315.363 108.93 316.07V350.07C108.903 350.318 108.943 350.569 109.045 350.798C109.147 351.026 109.307 351.223 109.51 351.37C109.88 351.6 112.94 353.37 113.29 353.55C113.096 353.399 112.943 353.202 112.847 352.976C112.751 352.751 112.714 352.504 112.74 352.26V318.26C112.762 317.557 112.965 316.871 113.33 316.27Z" fill="black"/>
<path d="M264.09 229.68C264.27 229.68 264.28 230.14 264.28 230.19V264.19C264.242 264.729 264.081 265.252 263.811 265.72C263.541 266.188 263.168 266.588 262.72 266.89L114.29 352.6C114.159 352.69 114.008 352.745 113.85 352.76C113.67 352.76 113.67 352.3 113.67 352.24V318.24C113.708 317.702 113.868 317.181 114.139 316.715C114.409 316.248 114.782 315.85 115.23 315.55L263.66 229.81C263.787 229.722 263.935 229.67 264.09 229.66M264.09 228.72C263.77 228.732 263.46 228.828 263.19 229L114.76 314.75C114.175 315.138 113.69 315.658 113.343 316.267C112.995 316.877 112.796 317.559 112.76 318.26V352.26C112.76 353.18 113.22 353.71 113.88 353.71C114.202 353.699 114.516 353.602 114.79 353.43L263.22 267.7C263.805 267.312 264.29 266.793 264.638 266.183C264.985 265.574 265.185 264.891 265.22 264.19V230.19C265.22 229.27 264.77 228.74 264.1 228.74L264.09 228.72Z" fill="#BA68C8"/>
<path d="M141.33 311.82C143.33 312.98 144.59 315.48 144.59 319.03C144.59 326.14 139.59 334.78 133.45 338.34C130.37 340.11 127.59 340.28 125.57 339.12L122 337.07C120 335.9 118.73 333.4 118.73 329.85C118.73 322.74 123.73 314.1 129.88 310.55C132.95 308.77 135.74 308.6 137.76 309.77L141.33 311.82Z" fill="#BA68C8"/>
<path opacity="0.2" d="M141.33 311.82C143.33 312.98 144.59 315.48 144.59 319.03C144.59 326.14 139.59 334.78 133.45 338.34C130.37 340.11 127.59 340.28 125.57 339.12L122 337.07C120 335.9 118.73 333.4 118.73 329.85C118.73 322.74 123.73 314.1 129.88 310.55C132.95 308.77 135.74 308.6 137.76 309.77L141.33 311.82Z" fill="black"/>
<path d="M133.45 338.34C130.37 340.11 127.59 340.28 125.57 339.12C123.55 337.96 122.31 335.46 122.31 331.9C122.31 324.79 127.31 316.15 133.45 312.6C136.53 310.82 139.31 310.6 141.33 311.82C143.35 313.04 144.59 315.48 144.59 319.03C144.59 326.14 139.6 334.78 133.45 338.34Z" fill="#BA68C8"/>
<path d="M139.37 320.45L134.65 323.17V316.88C134.65 316 134.11 315.59 133.45 315.97C133.085 316.234 132.787 316.579 132.579 316.978C132.37 317.378 132.258 317.82 132.25 318.27V324.56L127.53 327.29C127.164 327.551 126.865 327.894 126.657 328.292C126.448 328.69 126.336 329.131 126.33 329.58C126.33 330.46 126.87 330.87 127.53 330.49L132.25 327.76V334.05C132.25 334.94 132.79 335.34 133.45 334.96C133.815 334.698 134.113 334.355 134.321 333.957C134.53 333.56 134.642 333.119 134.65 332.67V326.37L139.37 323.65C139.735 323.388 140.033 323.045 140.241 322.647C140.45 322.25 140.562 321.809 140.57 321.36C140.57 320.47 140 320.07 139.37 320.45Z" fill="#FAFAFA"/>
<path d="M152.26 308.84L256.78 248.47C257.538 247.926 258.159 247.212 258.593 246.386C259.027 245.559 259.262 244.643 259.28 243.71C259.28 241.87 258.16 241.03 256.78 241.82L152.26 302.19C151.504 302.735 150.885 303.45 150.453 304.276C150.02 305.102 149.787 306.018 149.77 306.95C149.77 308.79 150.89 309.63 152.26 308.84ZM256.78 255.84L152.26 316.19C151.504 316.735 150.885 317.45 150.453 318.276C150.02 319.102 149.787 320.018 149.77 320.95C149.77 322.79 150.89 323.63 152.26 322.84L256.78 262.47C257.538 261.926 258.159 261.212 258.593 260.386C259.027 259.559 259.262 258.643 259.28 257.71C259.28 255.87 258.16 255 256.78 255.82V255.84Z" fill="#E0E0E0"/>
<g opacity="0.2">
<path d="M106.39 365.4L256.57 278.66C257.2 278.3 257.72 278.59 257.72 279.32V315.16C257.698 315.56 257.583 315.949 257.383 316.297C257.183 316.644 256.905 316.94 256.57 317.16L106.39 403.89C105.76 404.26 105.25 403.96 105.25 403.23V367.39C105.271 366.992 105.386 366.605 105.584 366.26C105.782 365.914 106.058 365.62 106.39 365.4Z" fill="black"/>
</g>
<path d="M264.54 283.41C264.317 283.331 264.078 283.305 263.843 283.337C263.609 283.368 263.385 283.455 263.19 283.59L114.76 369.33C114.175 369.718 113.69 370.237 113.342 370.847C112.995 371.456 112.795 372.139 112.76 372.84V406.84C112.734 407.084 112.771 407.331 112.868 407.557C112.964 407.782 113.116 407.98 113.31 408.13C112.96 407.91 109.9 406.13 109.53 405.95C109.328 405.803 109.169 405.605 109.067 405.377C108.965 405.149 108.925 404.898 108.95 404.65V370.65C108.986 369.949 109.186 369.267 109.533 368.657C109.88 368.048 110.366 367.528 110.95 367.14L259.38 281.4C259.588 281.25 259.831 281.158 260.086 281.133C260.341 281.109 260.598 281.152 260.83 281.26C261.16 281.46 263.82 283 264.54 283.41Z" fill="#BA68C8"/>
<g opacity="0.2">
<path d="M264.54 283.41C263.82 282.97 261.16 281.41 260.83 281.26C260.597 281.152 260.341 281.109 260.086 281.133C259.831 281.158 259.587 281.25 259.38 281.4L111 367.14C110.401 367.512 109.908 368.032 109.57 368.65L113.37 370.85C113.708 370.229 114.201 369.706 114.8 369.33L263.23 283.59C263.42 283.461 263.637 283.378 263.864 283.347C264.091 283.316 264.322 283.337 264.54 283.41Z" fill="white"/>
</g>
<path d="M114.76 369.33L263.19 283.59C264.31 282.95 265.19 283.47 265.19 284.76V318.76C265.157 319.461 264.959 320.145 264.611 320.755C264.263 321.365 263.776 321.884 263.19 322.27L114.76 408C113.64 408.65 112.76 408.12 112.76 406.83V372.83C112.797 372.131 112.998 371.451 113.345 370.843C113.692 370.235 114.177 369.717 114.76 369.33Z" fill="#FAFAFA"/>
<path d="M113.33 370.85L109.53 368.65C109.162 369.254 108.956 369.943 108.93 370.65V404.65C108.905 404.898 108.945 405.149 109.047 405.377C109.149 405.605 109.308 405.803 109.51 405.95C109.88 406.17 112.94 407.95 113.29 408.13C113.096 407.98 112.944 407.782 112.848 407.556C112.751 407.331 112.714 407.084 112.74 406.84V372.84C112.758 372.136 112.962 371.45 113.33 370.85Z" fill="#BA68C8"/>
<path opacity="0.15" d="M113.33 370.85L109.53 368.65C109.162 369.254 108.956 369.943 108.93 370.65V404.65C108.905 404.898 108.945 405.149 109.047 405.377C109.149 405.605 109.308 405.803 109.51 405.95C109.88 406.17 112.94 407.95 113.29 408.13C113.096 407.98 112.944 407.782 112.848 407.556C112.751 407.331 112.714 407.084 112.74 406.84V372.84C112.758 372.136 112.962 371.45 113.33 370.85Z" fill="black"/>
<path d="M264.09 284.25C264.27 284.25 264.28 284.71 264.28 284.76V318.76C264.242 319.299 264.081 319.822 263.811 320.29C263.541 320.757 263.168 321.158 262.72 321.46L114.29 407.18C114.159 407.269 114.007 407.321 113.85 407.33C113.67 407.33 113.67 406.87 113.67 406.82V372.82C113.708 372.281 113.868 371.758 114.138 371.29C114.409 370.822 114.782 370.422 115.23 370.12L263.66 284.4C263.79 284.317 263.937 284.266 264.09 284.25ZM264.09 283.32C263.772 283.332 263.462 283.425 263.19 283.59L114.76 369.33C114.175 369.718 113.69 370.238 113.343 370.847C112.995 371.457 112.796 372.139 112.76 372.84V406.84C112.76 407.76 113.22 408.29 113.88 408.29C114.202 408.278 114.516 408.182 114.79 408.01L263.22 322.27C263.806 321.884 264.293 321.365 264.641 320.755C264.989 320.145 265.187 319.461 265.22 318.76V284.76C265.22 283.85 264.77 283.32 264.1 283.32H264.09Z" fill="#BA68C8"/>
<path d="M141.33 366.4C143.33 367.56 144.59 370.06 144.59 373.61C144.59 380.72 139.59 389.36 133.45 392.91C130.37 394.69 127.59 394.86 125.57 393.69L122 391.64C120 390.48 118.73 387.98 118.73 384.43C118.73 377.32 123.73 368.68 129.88 365.12C132.95 363.35 135.74 363.18 137.76 364.34L141.33 366.4Z" fill="#BA68C8"/>
<path opacity="0.2" d="M141.33 366.4C143.33 367.56 144.59 370.06 144.59 373.61C144.59 380.72 139.59 389.36 133.45 392.91C130.37 394.69 127.59 394.86 125.57 393.69L122 391.64C120 390.48 118.73 387.98 118.73 384.43C118.73 377.32 123.73 368.68 129.88 365.12C132.95 363.35 135.74 363.18 137.76 364.34L141.33 366.4Z" fill="black"/>
<path d="M133.45 392.91C130.37 394.69 127.59 394.86 125.57 393.69C123.55 392.52 122.31 390.03 122.31 386.48C122.31 379.37 127.31 370.73 133.45 367.18C136.53 365.4 139.31 365.23 141.33 366.39C143.35 367.55 144.59 370.06 144.59 373.61C144.59 380.72 139.6 389.36 133.45 392.91Z" fill="#BA68C8"/>
<path d="M139.37 375L134.65 377.72V371.43C134.65 370.54 134.11 370.14 133.45 370.52C133.085 370.782 132.787 371.125 132.579 371.523C132.37 371.92 132.258 372.361 132.25 372.81V379.11L127.53 381.83C127.165 382.092 126.867 382.435 126.659 382.833C126.45 383.23 126.338 383.671 126.33 384.12C126.33 385.01 126.87 385.41 127.53 385.03L132.25 382.31V388.6C132.25 389.48 132.79 389.89 133.45 389.51C133.815 389.246 134.113 388.901 134.322 388.502C134.53 388.102 134.642 387.66 134.65 387.21V381L139.37 378.28C139.735 378.016 140.033 377.671 140.242 377.271C140.45 376.872 140.562 376.43 140.57 375.98C140.57 375.05 140 374.64 139.37 375Z" fill="#FAFAFA"/>
<path d="M152.26 363.42L256.78 303.05C257.54 302.505 258.161 301.789 258.595 300.961C259.029 300.133 259.264 299.215 259.28 298.28C259.28 296.45 258.16 295.6 256.78 296.4L152.26 356.77C151.504 357.315 150.885 358.029 150.453 358.856C150.02 359.682 149.787 360.598 149.77 361.53C149.77 363.37 150.89 364.21 152.26 363.42ZM256.78 310.42L152.26 370.76C151.502 371.306 150.883 372.022 150.45 372.85C150.018 373.678 149.785 374.596 149.77 375.53C149.77 377.36 150.89 378.21 152.26 377.41L256.78 317.05C257.54 316.505 258.161 315.789 258.595 314.961C259.029 314.133 259.264 313.215 259.28 312.28C259.28 310.45 258.16 309.6 256.78 310.4V310.42Z" fill="#E0E0E0"/>
<path d="M291.42 383.04L298.24 386.97L309.47 380.49V253.31L316.96 248.99L304.12 239.12L297.29 235.18L283.94 260.18L290.76 264.12L291.42 263.73V383.04Z" fill="#BA68C8"/>
<path opacity="0.8" d="M291.42 383.04L298.24 386.97L309.47 380.49V253.31L316.96 248.99L304.12 239.12L297.29 235.18L283.94 260.18L290.76 264.12L291.42 263.73V383.04Z" fill="white"/>
<path d="M298.24 386.97L309.47 380.49V253.31L316.96 248.99L304.12 239.12L290.76 264.12L298.24 259.8V386.97Z" fill="#BA68C8"/>
<path opacity="0.7" d="M298.24 386.97L309.47 380.49V253.31L316.96 248.99L304.12 239.12L290.76 264.12L298.24 259.8V386.97Z" fill="white"/>
<path d="M291.42 383.04L298.24 386.97V259.8L291.42 263.73V383.04Z" fill="#BA68C8"/>
<path opacity="0.5" d="M291.42 383.04L298.24 386.97V259.8L291.42 263.73V383.04Z" fill="white"/>
<path d="M323.34 366.55L328.45 369.5L336.87 364.64V290.54L342.48 287.3L332.85 279.9L327.74 276.95L317.73 295.68L322.84 298.63L323.34 298.35V366.55Z" fill="#F5F5F5"/>
<path d="M328.45 369.5L336.87 364.64V290.54L342.48 287.3L332.85 279.9L322.84 298.63L328.45 295.39V369.5Z" fill="#EBEBEB"/>
<path d="M323.34 366.55L328.45 369.5V295.39L323.34 298.35V366.55Z" fill="#E0E0E0"/>
<path d="M435.75 374.67C435.75 374.67 440.64 375.58 443.37 379.21C446.1 382.84 452.1 393.67 453.3 394.89C452.583 396.05 451.608 397.029 450.45 397.75L447.2 393.91C446.39 393.21 445.07 391.48 445.05 393.7C445.03 395.92 445.27 397.99 445.51 402.29C445.65 404.9 446.51 410.07 441.92 414.99C437.62 419.59 432.5 422.66 429.37 423.04C427.5 423.26 423.31 422.78 423.59 419.04C423.75 417.04 426.26 409.65 426.65 406.04C427.04 402.43 435.75 374.67 435.75 374.67Z" fill="#263238"/>
<path d="M436.49 375.71C435.88 374.9 433.98 371.51 433.06 369.94C432.14 368.37 428.35 360.08 423.68 347.36C417.68 330.98 407.33 318.77 404.18 312.6C400.641 305.873 397.706 298.846 395.41 291.6L382 300.14L364.65 299.44C364.42 302.01 365.4 305.44 367.25 309.51L367.3 309.61C367.47 309.98 367.65 310.36 367.83 310.73C371.53 318.42 377.93 327.73 385.09 337.2L385.27 337.43L385.52 337.76C392.42 346.9 400.02 356.2 406.66 364.26V364.07C413.79 372.7 419.55 379.71 421.59 383.2C427.54 393.43 426.59 403.3 426.54 408.69C426.49 412.05 429.11 412.75 432.69 409.89C435.089 407.95 437.045 405.518 438.425 402.758C439.805 399.998 440.577 396.974 440.69 393.89C441 380.92 440 380.4 436.49 375.71Z" fill="#FFBDA7"/>
<path d="M364.73 204.62C363.37 215.07 362.03 224.78 360.86 252.46C359.86 275.73 358.86 288.2 360.61 299.68C361.23 303.77 363.34 308.55 367.33 314.55C379.81 333.37 404.27 362.91 404.27 362.91C404.27 362.91 409.73 362.73 416.27 357.19C420.08 353.839 422.415 349.121 422.77 344.06C422.77 344.06 422.07 339.73 411.77 322.37C401.47 305.01 399.91 286.07 399.91 286.07L405.52 211.64C389.85 213.32 372.11 210.57 364.73 204.62Z" fill="#455A64"/>
<path d="M416.27 357.19C420.08 353.839 422.415 349.121 422.77 344.06C422.77 344.06 422.07 339.73 411.77 322.37C401.47 305.01 399.91 286.07 399.91 286.07L404.21 229.07C391.92 227.31 374.81 227.74 374.81 227.74C374.59 235.89 376.47 245.94 387.91 251.83C387.91 251.83 386.33 291.89 386.22 303.6C386.14 312.54 388.95 335.24 390.29 345.51C398.07 355.38 404.29 362.89 404.29 362.89C404.29 362.89 409.73 362.73 416.27 357.19Z" fill="#37474F"/>
<path d="M413.85 398.3C416.04 400.656 417.414 403.654 417.77 406.85C418.09 411.73 417.22 425.04 417.56 426.85C416.338 427.475 414.983 427.794 413.61 427.78L412.98 422.4C412.68 421.3 412.81 420.4 411.59 422.4C410.37 424.4 409.35 426.64 407.45 429.55C405.94 431.85 403.81 437.3 397.28 439.07C391.17 440.72 384.13 439.93 381.28 438.44C379.59 437.55 376.56 436.14 378.82 432.95C380.03 431.25 386.82 424.43 389.1 421.41C391.38 418.39 413.85 398.3 413.85 398.3Z" fill="#263238"/>
<path d="M397.36 397.78C397.94 385.05 387.22 326.56 391.04 299.27L425.24 299.61C423.223 307.514 421.865 315.572 421.18 323.7C420.46 331.12 422.48 348.2 418.6 366.53C415.6 380.77 414.27 390.53 414.18 392.45C414.09 394.37 413.84 398.58 413.91 399.67C414.32 405.97 413.28 409.53 406.16 419.35C404.78 421.25 401.44 427.41 392.16 428.41C387.6 428.91 385.78 426.76 387.66 423.74C390.64 418.91 396.78 410.51 397.36 397.78Z" fill="#FFBDA7"/>
<path d="M421.18 323.7C421.05 326.59 421.18 329.47 421.25 332.36C421.32 335.25 421.4 338.14 421.41 341.04C421.441 346.839 421.107 352.633 420.41 358.39C420.05 361.27 419.51 364.12 418.93 366.95L417.17 375.41C416.59 378.23 416.05 381.06 415.55 383.9C415.03 386.74 414.55 389.58 414.18 392.45C414.66 386.687 415.438 380.953 416.51 375.27C417.51 369.56 418.9 363.97 419.51 358.27C419.91 355.43 420.15 352.55 420.36 349.68C420.57 346.81 420.62 343.92 420.71 341.04C420.8 338.16 420.78 335.27 420.79 332.38C420.8 329.49 420.85 326.57 421.18 323.7Z" fill="#F0997A"/>
<path d="M364.73 204.62C364.73 204.62 368.68 218.1 373.09 230.3C376.92 240.9 384.09 246.8 391.57 249.18C391.57 249.18 389.72 297.09 389.14 303.76C388.56 310.43 390.43 334.56 392.03 350.43C393.63 366.3 394.14 371.73 394.14 371.73C394.14 371.73 397.47 375.26 406.68 375.3C415.89 375.34 418.76 371.37 418.76 371.37C418.76 371.37 424.35 352.91 424.4 338.48C424.4 330.22 422.62 326.14 424.04 317.93C425.46 309.72 436.23 273.07 437.91 255.75C439.59 238.43 436.54 223.28 424.39 205.75C411.68 214.61 376.51 212.92 364.73 204.62Z" fill="#455A64"/>
<path d="M419.17 208.53C425.75 217.62 435.3 236.44 429.05 263.71C427.27 271.47 425.513 278.963 423.78 286.19C419.78 303.14 416.58 316.53 416.2 321.63C416.072 324.5 416.247 327.376 416.72 330.21C417.725 336.9 417.812 343.696 416.98 350.41C415.98 359.12 414.38 368.29 413.25 374.49C413.63 374.38 414 374.27 414.34 374.14C415.47 367.94 416.97 359.02 417.99 350.53C418.836 343.733 418.745 336.852 417.72 330.08C417.266 327.314 417.095 324.51 417.21 321.71C417.59 316.71 420.76 303.33 424.77 286.43C426.49 279.18 428.26 271.7 430.04 263.94C436.33 236.47 426.81 217.43 420.13 208.12L419.17 208.53Z" fill="#37474F"/>
<path d="M364.48 201.72C374.52 205.904 385.247 208.196 396.12 208.48C415.42 208.69 424.58 202.66 424.58 202.66C424.679 204.839 425.318 206.959 426.44 208.83C426.44 208.83 415.36 215.48 396.18 214.91C377 214.34 364.26 207.78 364.26 207.78C364.525 205.772 364.599 203.742 364.48 201.72Z" fill="#37474F"/>
<path d="M383.48 142.24C375.48 143.68 371.66 146.17 365.65 155.81C359.64 165.45 341.45 191.06 341.45 191.06C341.45 191.06 345.55 201.43 360.45 204.12C367.45 194.12 381.18 174.44 381.18 174.44L383.48 142.24Z" fill="#BA68C8"/>
<path opacity="0.3" d="M383.48 142.24C375.48 143.68 371.66 146.17 365.65 155.81C359.64 165.45 341.45 191.06 341.45 191.06C341.45 191.06 345.55 201.43 360.45 204.12C367.45 194.12 381.18 174.44 381.18 174.44L383.48 142.24Z" fill="black"/>
<path d="M427.1 199.3C427.1 201.37 432.36 211.77 435.24 222.99C417.98 245.24 366.88 233.1 363.14 220.58C363.94 205.7 364.63 168.13 367.89 161.33C371.499 153.927 376.873 147.526 383.54 142.69C387.141 141.99 390.781 141.505 394.44 141.24C399.882 140.677 405.374 140.818 410.78 141.66C415.62 142.4 423.57 144.5 423.57 144.5C426.57 147.06 435 157.85 433.05 170.85C432.16 176.82 427.08 184.61 427.1 199.3Z" fill="#FAFAFA"/>
<path d="M412.65 140.9L412.58 142.73C412.58 142.73 405.36 161.09 405.12 175.98C404.88 190.87 409.69 249.07 409.69 249.07C409.69 249.07 421.89 247.5 428.69 244.33L429.16 230.25L432.32 243C432.32 243 436.43 241.71 438.54 238.66C438.54 233.15 437.13 221.66 432.32 209.47C427.51 197.28 427.32 195.05 430.68 182.97C434.04 170.89 436.78 165.27 432.79 156.59C428.8 147.91 424.13 144 424.13 144L412.65 140.9Z" fill="#BA68C8"/>
<path d="M392.29 140.9L392.23 143.05C387.725 147.775 383.53 152.785 379.67 158.05C373.72 166.24 373.84 169.52 371.42 182.26C369 195 368.1 237.5 368.1 237.5C365.639 236.835 363.221 236.02 360.86 235.06C360.86 235.06 362.37 210.06 362.92 201.46C363.47 192.86 364.26 173.22 365.53 167.58C366.8 161.94 366.44 160.66 371.3 154.04C374.789 149.566 378.889 145.604 383.48 142.27L392.29 140.9Z" fill="#BA68C8"/>
<path d="M383.15 212.7C382.67 211.3 378.5 208.7 377.59 205.85C377.06 204.18 378.16 201.76 379.94 203.42C383.67 206.91 386.4 207.42 388.85 209.12" fill="#FFBDA7"/>
<path d="M289 186.52C288.08 189.66 290.59 196.2 294.68 197.41C293.227 199.264 292.14 201.378 291.48 203.64C290.14 208.19 293.2 214.04 299.48 215.89L347.56 230L354.45 232.12L370.45 177.6L363.52 175.6C363.52 175.6 356.05 152.24 355.72 148.73C355.39 145.22 360.72 131.73 361.45 129.25C362.18 126.77 350.53 122.25 344.08 130.25C337.63 138.25 335.08 145.7 334.8 154.83L305.74 146.28C299.6 144.48 295.43 149.4 294.41 152.85C293.893 154.546 293.825 156.348 294.214 158.078C294.604 159.809 295.436 161.408 296.63 162.72C294.734 162.72 292.893 163.357 291.403 164.528C289.912 165.7 288.858 167.338 288.41 169.18C287.829 171.233 287.955 173.422 288.768 175.395C289.58 177.368 291.032 179.011 292.89 180.06C292.89 180.06 290.39 181.81 289 186.52Z" fill="#FAFAFA"/>
<path d="M361.48 129.32C362.22 126.8 350.56 122.32 344.11 130.32C337.66 138.32 335.11 145.77 334.83 154.9L335.19 155.4L340.36 156.86C344.74 128.77 355.94 127.84 361.48 129.32Z" fill="#E0E0E0"/>
<path d="M352.298 239.4L373.25 245.563L391.857 182.302L370.905 176.14L352.298 239.4Z" fill="#BA68C8"/>
<path opacity="0.2" d="M352.298 239.4L373.25 245.563L391.857 182.302L370.905 176.14L352.298 239.4Z" fill="black"/>
<path d="M292.92 180.16C292.92 180.16 290.39 181.81 289.01 186.52C288.936 186.768 288.886 187.022 288.86 187.28C288.46 190.6 290.86 196.28 294.68 197.41C293.229 199.266 292.143 201.38 291.48 203.64C291.349 204.098 291.259 204.566 291.21 205.04C290.78 209.32 293.83 214.23 299.48 215.89L309.14 218.73C303.48 217.07 300.44 212.16 300.86 207.88C300.91 207.403 301 206.931 301.13 206.47C301.792 204.212 302.878 202.101 304.33 200.25C300.55 199.13 298.11 193.44 298.51 190.11C298.537 189.856 298.587 189.605 298.66 189.36C300.04 184.65 302.58 183 302.58 183C300.722 181.951 299.269 180.309 298.455 178.336C297.641 176.363 297.512 174.174 298.09 172.12L298.15 171.97C298.62 170.163 299.676 168.563 301.152 167.421C302.629 166.279 304.443 165.66 306.31 165.66C305.119 164.347 304.288 162.747 303.899 161.018C303.51 159.288 303.576 157.487 304.09 155.79C304.15 155.59 304.22 155.39 304.3 155.17C305.61 151.79 309.65 147.53 315.42 149.22L305.77 146.39C299.99 144.69 295.95 148.95 294.65 152.33C294.57 152.55 294.5 152.75 294.44 152.95C293.923 154.646 293.856 156.448 294.245 158.178C294.634 159.909 295.466 161.508 296.66 162.82C294.793 162.821 292.978 163.441 291.5 164.582C290.021 165.724 288.963 167.323 288.49 169.13L288.44 169.28C287.86 171.333 287.986 173.522 288.798 175.495C289.611 177.468 291.062 179.111 292.92 180.16Z" fill="#E0E0E0"/>
<path d="M347.45 230.4L299.38 216.25C296.45 215.44 293.926 213.568 292.3 211C291.596 209.909 291.127 208.682 290.924 207.399C290.72 206.117 290.787 204.805 291.12 203.55C291.749 201.415 292.744 199.405 294.06 197.61C292.048 196.628 290.468 194.941 289.62 192.87C288.577 190.895 288.225 188.628 288.62 186.43C289.218 184.065 290.469 181.917 292.23 180.23C290.462 179.072 289.106 177.384 288.356 175.408C287.607 173.432 287.503 171.269 288.06 169.23C288.501 167.442 289.488 165.836 290.885 164.635C292.281 163.435 294.016 162.699 295.85 162.53C294.796 161.189 294.083 159.612 293.771 157.935C293.459 156.258 293.558 154.53 294.06 152.9C294.754 150.721 296.11 148.812 297.94 147.44C299.052 146.594 300.351 146.028 301.728 145.789C303.104 145.551 304.518 145.647 305.85 146.07L334.45 154.48C334.84 145.08 337.65 137.78 343.79 130.16C348.37 124.47 355.91 124.78 359.79 126.81C361.34 127.62 362.08 128.59 361.79 129.47C361.61 130.09 361.16 131.34 360.6 132.92C358.93 137.57 355.83 146.23 356.08 148.81C356.39 152.07 363.08 173.16 363.8 175.41L370.9 177.41L354.7 232.62L347.45 230.4ZM363.25 176L363.19 175.81C362.88 174.81 355.7 152.37 355.37 148.81C355.11 146.06 358.13 137.63 359.93 132.6C360.5 131.02 360.93 129.78 361.12 129.19C361.31 128.6 360.59 128 359.46 127.41C355.8 125.5 348.72 125.22 344.4 130.57C338.26 138.18 335.51 145.47 335.21 154.92V155.41L305.68 146.73C304.46 146.343 303.164 146.254 301.903 146.472C300.641 146.69 299.45 147.207 298.43 147.98C296.735 149.255 295.474 151.022 294.82 153.04C294.322 154.675 294.257 156.411 294.633 158.078C295.008 159.745 295.81 161.286 296.96 162.55L297.58 163.22H296.66C294.845 163.209 293.08 163.816 291.655 164.941C290.23 166.066 289.231 167.642 288.82 169.41C288.271 171.38 288.396 173.478 289.175 175.369C289.954 177.26 291.343 178.837 293.12 179.85L293.68 180.15L293.15 180.5C293.15 180.5 290.71 182.15 289.39 186.65C289.041 188.666 289.372 190.742 290.33 192.55C291.43 194.91 293.07 196.55 294.81 197.06L295.36 197.23L294.99 197.67C293.58 199.489 292.519 201.554 291.86 203.76C291.56 204.915 291.504 206.119 291.696 207.297C291.887 208.474 292.321 209.599 292.97 210.6C294.49 213.019 296.858 214.784 299.61 215.55L347.69 229.69L354.21 231.69L370 177.9L363.25 176Z" fill="#455A64"/>
<path opacity="0.2" d="M352.302 239.398L373.255 245.56L382.558 213.93L361.606 207.767L352.302 239.398Z" fill="black"/>
<path d="M368.23 235.2C368.406 234.601 368.4 233.963 368.214 233.366C368.027 232.77 367.668 232.243 367.182 231.851C366.696 231.458 366.104 231.219 365.482 231.163C364.86 231.107 364.235 231.236 363.687 231.535C363.138 231.834 362.691 232.288 362.4 232.841C362.11 233.394 361.99 234.021 362.056 234.642C362.121 235.263 362.369 235.851 362.769 236.331C363.168 236.811 363.701 237.162 364.3 237.34C365.105 237.576 365.971 237.483 366.707 237.082C367.444 236.681 367.992 236.004 368.23 235.2Z" fill="#F0F0F0"/>
<path d="M388.85 209.12C391.31 210.85 393.85 211.45 398.7 211.67C403.88 211.9 424.39 203.48 424.39 203.48L420.61 176.19C420.61 176.19 416.27 155.57 424.24 144.65C436.93 147.35 437.93 151.09 439.51 156.37C440.72 160.37 442.12 165.68 443.95 183.37C445.6 199.19 445.77 203.37 445.6 211.32C445.44 218.22 439.94 220.43 430.39 222.65C420.84 224.87 414.7 225.65 401.13 227.65C394.61 228.65 390.91 228.17 385.25 228.04C383.105 228.065 380.969 227.754 378.92 227.12C377.043 226.563 375.328 225.561 373.92 224.2C373.694 223.922 373.428 223.679 373.13 223.48C372.806 223.315 372.472 223.172 372.13 223.05C371.482 222.852 370.866 222.562 370.3 222.19C369.772 221.706 369.289 221.174 368.86 220.6C368.663 220.34 368.449 220.092 368.22 219.86C367.959 219.634 367.678 219.433 367.38 219.26C366.576 218.868 365.849 218.336 365.23 217.69C365.08 217.507 364.98 217.288 364.94 217.055C364.9 216.822 364.92 216.583 365 216.36C365 216.36 363.93 215.93 363.57 215.76C363.074 215.524 362.605 215.235 362.17 214.9C362.074 214.847 361.991 214.772 361.929 214.682C361.866 214.592 361.826 214.489 361.81 214.38C361.81 214.25 361.852 214.124 361.93 214.02C362.93 212.26 365.03 212.27 366.82 212.43C371.47 212.84 374.31 214.07 379.01 213.97C381.57 213.91 382.26 213.85 382.96 213.36C383.068 213.293 383.148 213.189 383.185 213.068C383.222 212.946 383.213 212.815 383.16 212.7" fill="#FFBDA7"/>
<path d="M424.39 203.48C427.674 201.843 431.119 200.549 434.67 199.62C434.67 199.62 431.43 198.35 424.13 201.62L424.39 203.48Z" fill="#F0997A"/>
<path d="M365.16 216.55C366.22 217.03 367.33 217.41 368.43 217.79C369.53 218.17 370.65 218.5 371.75 218.86C372.3 219.04 372.85 219.24 373.42 219.4C373.99 219.56 374.56 219.69 375.13 219.79C376.274 220.023 377.429 220.196 378.59 220.31L376.9 219.89C376.33 219.76 375.77 219.62 375.21 219.47C374.65 219.32 374.08 219.18 373.53 219C372.98 218.82 372.44 218.63 371.88 218.45C370.77 218.09 369.65 217.77 368.53 217.45L365.16 216.55Z" fill="#F0997A"/>
<path d="M368.1 219.76C368.842 220.289 369.632 220.748 370.46 221.13C371.28 221.5 372.12 221.82 372.96 222.13C373.8 222.44 374.67 222.7 375.53 222.94C376.393 223.189 377.272 223.38 378.16 223.51C377.31 223.23 376.48 222.91 375.63 222.62L373.11 221.72L370.59 220.81C369.76 220.5 368.91 220.14 368.1 219.76Z" fill="#F0997A"/>
<path d="M424.13 144C432.84 146.24 436.72 147.76 438.54 152.06C440.36 156.36 441.25 159.06 443.22 170.67C445.123 183.412 446.229 196.26 446.53 209.14C446.44 215.49 447.15 218.14 440.08 220.77C433.01 223.4 417 225.69 417 225.69C417.362 222.774 417.271 219.819 416.73 216.93C415.97 213.607 414.669 210.432 412.88 207.53L423.62 203.24C423.62 203.24 419.86 178.9 419.33 174.61C418.8 170.32 417.31 153.12 424.13 144Z" fill="#BA68C8"/>
<path opacity="0.3" d="M424.13 144C432.84 146.24 436.72 147.76 438.54 152.06C440.36 156.36 441.25 159.06 443.22 170.67C445.123 183.412 446.229 196.26 446.53 209.14C446.44 215.49 447.15 218.14 440.08 220.77C433.01 223.4 417 225.69 417 225.69C417.362 222.774 417.271 219.819 416.73 216.93C415.97 213.607 414.669 210.432 412.88 207.53L423.62 203.24C423.62 203.24 419.86 178.9 419.33 174.61C418.8 170.32 417.31 153.12 424.13 144Z" fill="black"/>
<path d="M379.41 116L377.82 115.51C370.69 111.68 371.05 102.39 372.82 97.51C376.69 86.7 388.38 82.6499 395.61 82.2499C409.33 81.4999 416.03 85.0399 417.44 92.15C419.3 91.99 421.86 93.4899 423.44 95.5899C426.81 100.18 430.83 116.18 413.04 133.06L379.41 116Z" fill="#37474F"/>
<path d="M416.27 127.75C418.75 128.11 420.67 126.81 422.1 125.11C425.28 121.32 425.44 117.59 423.8 115.17C422.44 113.17 419.25 112.01 417.11 113.47C414.82 115.04 414.79 116.24 413.97 117.94C413.15 119.64 409.7 119.63 408.62 112.94C407.62 106.7 407.89 100.16 404.72 97.45C399.97 93.45 394.04 94.8001 392.32 97.3701C391.418 96.0087 390.016 95.0575 388.417 94.7224C386.819 94.3874 385.153 94.6955 383.78 95.5801C380.78 97.3501 378.52 102.14 377.91 114.07C377.28 126.23 380.42 133.67 383.28 135.6C385.45 137.07 387.84 137.67 392.39 137.7L392.23 143.04C392.23 143.04 386.07 154.68 386.49 165.04C386.49 165.04 389 163.31 400.3 153.43L412.58 142.7L413.22 125.93C413.548 126.453 413.996 126.891 414.526 127.207C415.056 127.524 415.654 127.71 416.27 127.75Z" fill="#FFBDA7"/>
<path d="M381.08 108.22L385.55 106.51C385.453 106.215 385.297 105.943 385.092 105.71C384.886 105.477 384.636 105.288 384.356 105.154C384.075 105.021 383.771 104.945 383.461 104.932C383.15 104.92 382.841 104.97 382.55 105.08C381.948 105.314 381.46 105.771 381.186 106.355C380.912 106.94 380.874 107.608 381.08 108.22Z" fill="#263238"/>
<path d="M397.67 106.48L402.1 109.06C402.282 108.779 402.404 108.465 402.46 108.136C402.516 107.806 402.505 107.469 402.426 107.144C402.348 106.82 402.204 106.514 402.003 106.247C401.803 105.98 401.55 105.756 401.26 105.59C400.662 105.251 399.956 105.154 399.288 105.32C398.62 105.486 398.042 105.901 397.67 106.48Z" fill="#263238"/>
<path d="M403.62 98.27C404.69 99.63 405.48 101 405.31 105.88C405.25 107.88 405.4 112.66 406.76 115.49C407.95 117.97 409.19 119.49 411.83 119.9C413.432 120.139 415.068 119.974 416.59 119.42C417.52 118.99 420.15 117.14 419.83 114.42C419.289 115.003 418.632 115.467 417.9 115.78C417.346 116.01 416.759 116.152 416.16 116.2C415.263 116.197 414.381 115.967 413.596 115.531C412.811 115.096 412.149 114.47 411.67 113.71C409.9 111.08 410.01 107.54 409.47 104.52C408.78 100.7 408.12 96.35 404.66 94.45C400.58 92.21 393.2 93.21 392.32 97.38C393.946 96.0208 396.039 95.3528 398.152 95.5192C400.264 95.6856 402.227 96.6731 403.62 98.27Z" fill="#37474F"/>
<path d="M397.48 124.36L390.8 126.21C390.931 126.675 391.157 127.108 391.465 127.481C391.772 127.854 392.154 128.159 392.586 128.377C393.018 128.594 393.49 128.719 393.973 128.744C394.456 128.768 394.939 128.692 395.39 128.52C395.803 128.388 396.185 128.174 396.515 127.893C396.844 127.611 397.114 127.266 397.309 126.879C397.504 126.491 397.619 126.069 397.648 125.637C397.678 125.204 397.621 124.77 397.48 124.36Z" fill="#B16668"/>
<path d="M393.48 128.64C393.615 127.748 394.077 126.938 394.775 126.367C395.473 125.796 396.359 125.505 397.26 125.55C397.374 125.564 397.488 125.584 397.6 125.61C397.59 126.267 397.371 126.904 396.973 127.428C396.575 127.952 396.021 128.334 395.39 128.52C394.772 128.714 394.117 128.755 393.48 128.64Z" fill="#F0997A"/>
<path d="M392.31 109.78L390.91 121.68L384.45 119.17L392.31 109.78Z" fill="#F0997A"/>
<path d="M392.39 137.71C396.795 137.415 401.127 136.437 405.23 134.81C406.72 134.15 408.71 131.41 410.32 128.37C410.32 128.37 409.23 134.37 406.02 136.43C401.13 139.61 392.32 140.36 392.32 140.36L392.39 137.71Z" fill="#F0997A"/>
<path d="M382.2 111.78C381.85 112.78 382.52 113.08 383.46 113.42C384.4 113.76 385.24 113.96 385.59 112.99C385.674 112.766 385.713 112.528 385.704 112.289C385.696 112.05 385.639 111.816 385.539 111.599C385.438 111.382 385.296 111.188 385.119 111.026C384.943 110.865 384.736 110.741 384.511 110.661C384.286 110.58 384.047 110.546 383.808 110.559C383.57 110.571 383.336 110.632 383.121 110.736C382.906 110.84 382.714 110.986 382.556 111.165C382.397 111.345 382.277 111.554 382.2 111.78Z" fill="#263238"/>
<path d="M385.41 111C384.993 110.763 384.54 110.594 384.07 110.5C383.613 110.386 383.138 110.355 382.67 110.41C382.174 110.459 381.69 110.594 381.24 110.81C381.24 110.81 381.18 110.93 381.24 110.92C381.63 110.92 381.96 110.83 382.52 110.81C383.047 110.815 383.571 110.886 384.08 111.02C384.699 111.163 385.295 111.392 385.85 111.7C386.03 111.79 386.38 111.99 386.42 112.02C386.46 112.05 386.52 111.92 386.49 111.88C386.204 111.506 385.834 111.205 385.41 111Z" fill="#263238"/>
<path d="M400.37 112.44C400.59 113.44 399.87 113.68 398.9 113.88C397.93 114.08 397.06 114.19 396.84 113.17C396.792 112.938 396.79 112.699 396.835 112.467C396.879 112.234 396.969 112.013 397.099 111.815C397.229 111.617 397.397 111.447 397.592 111.314C397.788 111.181 398.008 111.088 398.24 111.04C398.472 110.992 398.711 110.99 398.943 111.035C399.176 111.079 399.397 111.169 399.595 111.299C399.793 111.429 399.963 111.597 400.096 111.792C400.229 111.988 400.322 112.208 400.37 112.44Z" fill="#263238"/>
<path d="M397.29 111.22C397.738 111.044 398.21 110.936 398.69 110.9C399.159 110.853 399.633 110.887 400.09 111C400.572 111.123 401.031 111.323 401.45 111.59C401.45 111.59 401.5 111.72 401.45 111.71C401.08 111.62 400.75 111.51 400.2 111.42C399.679 111.355 399.151 111.355 398.63 111.42C397.999 111.474 397.38 111.619 396.79 111.85L396.18 112.09C396.12 112.09 396.09 111.98 396.12 111.94C396.453 111.618 396.852 111.372 397.29 111.22Z" fill="#263238"/>
<path d="M320.64 224.71C317.84 224.71 317.69 224.39 317.27 223C316.911 221.92 316.815 220.769 316.988 219.644C317.162 218.519 317.602 217.452 318.27 216.53C319.49 214.95 320.64 213.3 321.68 212.78C322.72 212.26 323.95 214.24 322.89 216.69C321.23 220.55 322.15 221.18 322.15 221.18C322.85 219.529 323.637 217.917 324.51 216.35C325.33 215.07 327.51 213.26 328.78 212.02C330.05 210.78 332.02 211.81 330.92 214.64L333.19 212.37C334.78 210.78 336.19 210.87 336.27 213.08C336.32 213.815 336.119 214.545 335.7 215.15C335.7 215.15 337.09 213.24 337.75 213.66C339.66 214.87 339.28 216.4 337.59 221.08C336.16 225.08 336.71 227.08 338.29 227.7L339.29 228C339.29 228 337.35 228.86 335.47 229.52C334.1 230 332.75 230.27 331.56 228.74C331.56 228.74 330.07 230.88 328.68 230.06C327.699 229.396 326.87 228.53 326.25 227.52C325.764 227.745 325.223 227.827 324.692 227.757C324.16 227.686 323.66 227.465 323.25 227.12C322.42 226.524 321.811 225.669 321.52 224.69L320.64 224.71Z" fill="#FFBDA7"/>
<path d="M330.93 214.64C330.212 215.285 329.562 216.002 328.99 216.78C328.536 217.652 328.223 218.59 328.06 219.56C327.647 221.415 327.389 223.302 327.29 225.2C327.976 223.429 328.508 221.602 328.88 219.74C329.025 218.838 329.252 217.95 329.56 217.09C330 216.31 330.52 215.5 330.93 214.64Z" fill="#F0997A"/>
<path d="M335.71 215.15C334.878 215.802 334.222 216.651 333.8 217.62C333.374 218.569 333.039 219.557 332.8 220.57C332.305 222.564 332.023 224.606 331.96 226.66C332.613 224.727 333.164 222.761 333.61 220.77C333.952 218.782 334.664 216.875 335.71 215.15Z" fill="#F0997A"/>
<path d="M347.59 56.8198C352.95 61.7552 356.224 68.5517 356.74 75.8198L356.8 79.1098C356.503 86.3088 353.51 93.1329 348.414 98.2266C343.318 103.32 336.492 106.311 329.293 106.604C322.094 106.898 315.048 104.473 309.554 99.8106C304.061 95.1486 300.522 88.5908 299.64 81.4398L299.42 78.1598C299.372 72.56 300.964 67.0685 303.998 62.362C307.033 57.6555 311.378 53.9397 316.499 51.6723C321.619 49.4049 327.291 48.6851 332.816 49.6015C338.34 50.5179 343.476 53.0306 347.59 56.8298V56.8198Z" fill="white"/>
<path d="M305.18 56.8599C299.888 62.6117 296.951 70.1427 296.953 77.9586C296.955 85.7746 299.895 93.3042 305.19 99.0535C310.485 104.803 317.747 108.351 325.537 108.995C333.326 109.639 341.073 107.332 347.24 102.53L356.24 106.05C356.579 106.187 356.952 106.217 357.309 106.136C357.666 106.056 357.99 105.868 358.238 105.599C358.485 105.329 358.645 104.991 358.696 104.628C358.746 104.266 358.685 103.897 358.52 103.57L354.24 94.8899C358.456 88.3372 360.064 80.4423 358.745 72.7627C357.426 65.0832 353.277 58.1766 347.117 53.4058C340.956 48.635 333.231 46.3463 325.466 46.9912C317.701 47.6362 310.459 51.168 305.17 56.8899L305.18 56.8599ZM347.56 56.7799C352.928 61.7128 356.212 68.5085 356.74 75.7799L356.8 79.0699C356.535 86.2824 353.562 93.1302 348.474 98.2481C343.385 103.366 336.554 106.378 329.343 106.683C322.132 106.989 315.071 104.565 309.568 99.8956C304.064 95.2262 300.523 88.6542 299.65 81.4899L299.43 78.2099C299.369 72.6091 300.949 67.113 303.975 62.3995C307.001 57.686 311.34 53.9613 316.458 51.6847C321.575 49.4082 327.247 48.6795 332.774 49.5885C338.301 50.4974 343.441 53.0043 347.56 56.7999V56.7799Z" fill="#455A64"/>
<path d="M323.84 95.6799C323.238 95.68 322.643 95.5567 322.091 95.3176C321.539 95.0785 321.042 94.7288 320.63 94.2899L310.63 83.6299C310.212 83.2124 309.883 82.7149 309.661 82.1672C309.439 81.6195 309.33 81.0329 309.34 80.4421C309.351 79.8514 309.479 79.2688 309.72 78.729C309.96 78.1892 310.306 77.7033 310.738 77.3002C311.17 76.8971 311.679 76.5852 312.234 76.383C312.789 76.1807 313.379 76.0924 313.969 76.1232C314.559 76.1539 315.137 76.3032 315.668 76.5621C316.199 76.8209 316.672 77.1841 317.06 77.6299L323.54 84.5499L338.9 65.0999C339.259 64.6462 339.703 64.2675 340.208 63.9856C340.713 63.7036 341.268 63.5238 341.842 63.4565C342.417 63.3891 342.999 63.4356 343.555 63.5932C344.111 63.7508 344.631 64.0164 345.085 64.3749C345.539 64.7334 345.917 65.1778 346.199 65.6826C346.481 66.1875 346.661 66.7429 346.728 67.3173C346.796 67.8916 346.749 68.4736 346.592 69.0299C346.434 69.5863 346.169 70.1062 345.81 70.5599L327.3 93.9999C326.903 94.5009 326.403 94.9104 325.834 95.2004C325.264 95.4903 324.639 95.6539 324 95.6799H323.84Z" fill="#BA68C8"/>
</svg>
