<svg width="477" height="422" viewBox="0 0 477 422" fill="none" xmlns="http://www.w3.org/2000/svg">
<g opacity="0.4">
<path d="M470.702 356.908L438.081 340.707L352.462 348.032L373.919 289.204L305.11 275.77L304.999 275.703L256.996 250.372L168.602 258.219L184.222 217.998L109.26 228.303L109.006 226.98L186.537 216.327L170.869 256.668L257.376 248.996L305.728 274.513L375.933 288.228L354.683 346.508L438.43 339.33L438.652 339.437L471.51 355.758L470.702 356.908Z" fill="#27043D"/>
<path d="M378.724 290.674C376.567 291.717 373.078 291.717 370.906 290.661C368.749 289.605 368.733 287.907 370.874 286.865C373.031 285.822 376.52 285.822 378.692 286.878C380.865 287.934 380.865 289.632 378.724 290.674Z" fill="#27043D"/>
<path d="M309.582 276.919C307.425 277.962 303.936 277.962 301.764 276.906C299.607 275.85 299.591 274.153 301.732 273.11C303.889 272.067 307.377 272.067 309.55 273.123C311.723 274.179 311.738 275.877 309.582 276.919Z" fill="#27043D"/>
<path d="M261.008 251.536C258.851 252.578 255.362 252.578 253.19 251.522C251.033 250.466 251.017 248.769 253.158 247.726C255.315 246.683 258.804 246.683 260.976 247.739C263.149 248.795 263.165 250.493 261.008 251.536Z" fill="#27043D"/>
<path d="M358.108 349.115C355.951 350.157 352.463 350.157 350.29 349.101C348.133 348.045 348.117 346.348 350.258 345.305C352.415 344.263 355.904 344.263 358.076 345.319C360.249 346.361 360.265 348.059 358.108 349.115Z" fill="#27043D"/>
<path d="M442.093 342.003C439.937 343.046 436.448 343.046 434.275 341.99C432.119 340.934 432.103 339.237 434.244 338.194C436.4 337.151 439.889 337.151 442.062 338.207C444.234 339.263 444.25 340.961 442.093 342.003Z" fill="#27043D"/>
<path d="M475.301 358.124C473.144 359.167 469.655 359.167 467.483 358.111C465.326 357.055 465.31 355.357 467.451 354.314C469.608 353.272 473.096 353.272 475.269 354.328C477.442 355.384 477.457 357.081 475.301 358.124Z" fill="#27043D"/>
<path d="M173.962 259.249C171.805 260.291 168.316 260.291 166.144 259.235C163.987 258.179 163.971 256.482 166.112 255.439C168.269 254.396 171.758 254.396 173.93 255.452C176.103 256.495 176.103 258.206 173.962 259.249Z" fill="#27043D"/>
<path d="M189.455 218.773C187.299 219.816 183.81 219.816 181.637 218.76C179.48 217.704 179.465 216.006 181.605 214.963C183.762 213.921 187.251 213.921 189.424 214.977C191.596 216.033 191.612 217.73 189.455 218.773Z" fill="#27043D"/>
<path d="M112.527 229.293C110.37 230.336 106.881 230.336 104.709 229.28C102.552 228.224 102.536 226.526 104.677 225.483C106.834 224.441 110.323 224.441 112.495 225.497C114.668 226.553 114.684 228.25 112.527 229.293Z" fill="#27043D"/>
<path d="M404.351 419.746L355.618 395.391L253.792 396.086L290.266 330.414L204.949 323.704L234.223 290.647L155.741 299.536L107.563 276.505L11.5255 275.904V274.567L107.976 275.168L108.166 275.262L156.058 298.146L237.744 288.896L207.914 322.595L292.645 329.265L256.298 394.736L356.046 394.055L405.16 418.597L404.351 419.746Z" fill="#27043D"/>
<path d="M295.246 331.805C293.089 332.847 289.6 332.847 287.428 331.791C285.271 330.735 285.255 329.038 287.396 327.995C289.553 326.953 293.042 326.953 295.214 328.009C297.387 329.051 297.403 330.762 295.246 331.805Z" fill="#27043D"/>
<path d="M210.594 324.934C208.438 325.976 204.949 325.976 202.776 324.92C200.62 323.864 200.604 322.167 202.745 321.124C204.901 320.081 208.39 320.081 210.563 321.137C212.735 322.18 212.751 323.891 210.594 324.934Z" fill="#27043D"/>
<path d="M239.805 291.623C237.649 292.666 234.16 292.666 231.987 291.61C229.831 290.554 229.815 288.856 231.956 287.814C234.112 286.771 237.601 286.771 239.774 287.827C241.946 288.883 241.962 290.58 239.805 291.623Z" fill="#27043D"/>
<path d="M259.581 397.25C257.424 398.292 253.935 398.292 251.762 397.236C249.59 396.18 249.59 394.483 251.731 393.44C253.887 392.397 257.376 392.397 259.549 393.453C261.721 394.496 261.721 396.207 259.581 397.25Z" fill="#27043D"/>
<path d="M359.678 396.715C357.521 397.758 354.032 397.758 351.86 396.702C349.703 395.646 349.687 393.948 351.828 392.905C353.985 391.863 357.474 391.863 359.646 392.919C361.819 393.961 361.835 395.672 359.678 396.715Z" fill="#27043D"/>
<path d="M408.95 420.976C406.793 422.019 403.304 422.019 401.132 420.963C398.975 419.907 398.959 418.209 401.1 417.167C403.257 416.124 406.745 416.124 408.918 417.18C411.091 418.223 411.106 419.92 408.95 420.976Z" fill="#27043D"/>
<path d="M160.118 300.646C157.961 301.689 154.472 301.689 152.299 300.633C150.143 299.577 150.127 297.879 152.268 296.836C154.424 295.794 157.913 295.794 160.086 296.85C162.258 297.906 162.274 299.603 160.118 300.646Z" fill="#27043D"/>
<path d="M111.845 277.454C109.688 278.497 106.199 278.497 104.027 277.441C101.87 276.385 101.854 274.687 103.995 273.645C106.152 272.602 109.641 272.602 111.813 273.658C113.986 274.714 113.986 276.412 111.845 277.454Z" fill="#27043D"/>
<path d="M14.9192 276.893C12.7625 277.935 9.27367 277.935 7.10109 276.879C4.94437 275.823 4.92848 274.126 7.06934 273.083C9.22607 272.04 12.7149 272.04 14.8875 273.096C17.0601 274.139 17.0759 275.837 14.9192 276.893Z" fill="#27043D"/>
</g>
<path opacity="0.2" d="M85.8533 274.714C85.8533 276.826 87.677 279.045 91.2451 280.796L142.88 322.341C149.413 325.522 159.293 325.87 164.954 323.116L258.899 277.12C261.626 275.783 262.863 273.979 262.689 272.107C262.705 272.201 262.721 272.308 262.721 272.442C262.721 272.495 262.721 278.363 262.721 278.43C262.673 280.141 261.42 281.785 258.899 283.015L164.954 328.997C159.293 331.751 149.413 331.404 142.88 328.222L91.2451 286.677C87.6135 284.913 85.7898 282.641 85.8374 280.515C85.8533 280.141 85.774 276.198 85.8533 274.714Z" fill="url(#paint0_linear_147_1087)"/>
<g opacity="0.2">
<path opacity="0.0909" d="M149.207 230.255L86.7731 261.093C86.7413 261.106 86.0277 261.467 85.996 261.481C81.0799 263.913 78.8757 267.763 79.1611 271.894C79.4465 276.091 83.1891 280.769 88.5967 283.403L139.312 324.199C144.148 326.551 150.349 327.714 156.248 327.474C160.942 327.474 166.16 326.137 169.521 324.493L262.483 278.978C267.224 276.666 269.904 273.043 269.889 269.033C269.873 264.649 266.606 260.545 260.897 257.765L178.957 231.204C177.308 230.402 174.961 229.587 173.058 229.052C169.807 228.157 166.255 227.635 162.671 227.609C157.549 227.555 152.87 228.464 149.207 230.255Z" fill="black"/>
<path opacity="0.1818" d="M149.572 230.777L87.0585 261.641C87.0109 261.668 86.329 262.002 86.2814 262.029C81.3654 264.502 79.7954 268.351 80.3663 272.428C80.8896 276.184 85.0128 281.25 89.8813 283.603L139.66 323.651C144.672 326.083 151.237 327.166 157.12 326.672C161.339 326.672 167.111 324.934 170.14 323.463L262.134 278.43C266.685 276.224 269.222 272.776 269.175 268.966C269.127 264.822 266.003 260.933 260.548 258.273L179.132 231.873C177.641 231.151 174.977 230.242 173.248 229.761C170.029 228.852 166.524 228.277 162.956 228.21C157.882 228.13 153.188 229.012 149.572 230.777Z" fill="black"/>
<path opacity="0.2727" d="M149.921 231.298L87.3439 262.203C87.2646 262.243 86.6303 262.55 86.5669 262.59C81.6666 265.103 79.8747 269.087 81.5715 272.99C81.5715 276.358 86.8523 281.745 91.1657 283.844L140.009 323.129C145.179 325.642 152.125 326.645 157.977 325.896C161.719 325.896 168.063 323.771 170.743 322.461L261.753 277.909C266.098 275.797 268.493 272.522 268.429 268.926C268.366 265.023 265.385 261.334 260.167 258.794L179.258 232.555C177.926 231.913 174.929 230.91 173.407 230.469C170.235 229.547 166.762 228.905 163.226 228.812C158.215 228.705 153.52 229.547 149.921 231.298Z" fill="black"/>
<path opacity="0.3636" d="M150.285 231.819L87.6452 262.75C87.5501 262.804 86.9633 263.098 86.8682 263.138C81.9838 265.678 80.5249 269.741 82.7926 273.524C82.7926 276.465 88.6919 282.213 92.4661 284.057L140.374 322.594C145.718 325.201 153.029 326.11 158.849 325.121C162.132 325.121 169.014 322.608 171.361 321.458L261.404 277.374C265.559 275.355 267.811 272.254 267.716 268.872C267.621 265.21 264.798 261.734 259.818 259.315L179.417 233.249C178.259 232.688 174.929 231.605 173.597 231.204C170.457 230.269 167.032 229.56 163.511 229.453C158.532 229.279 153.838 230.095 150.285 231.819Z" fill="black"/>
<path opacity="0.4545" d="M150.65 232.341L87.9308 263.312C87.8039 263.379 87.2647 263.646 87.1537 263.713C82.2852 266.293 81.1593 270.41 83.9979 274.099C83.9979 276.626 90.5156 282.721 93.7666 284.298L140.739 322.087C146.257 324.774 153.933 325.603 159.737 324.359C162.544 324.359 169.981 321.445 171.995 320.47L261.055 276.866C265.02 274.942 267.129 272.014 267.018 268.846C266.907 265.424 264.211 262.163 259.486 259.85L179.592 233.945C178.592 233.464 174.929 232.274 173.803 231.926C170.711 230.964 167.317 230.215 163.828 230.068C158.865 229.868 154.155 230.63 150.65 232.341Z" fill="black"/>
<path opacity="0.5455" d="M150.999 232.862L88.216 263.873C88.0733 263.94 87.5817 264.194 87.439 264.274C82.5705 266.894 81.8093 271.078 85.203 274.647C85.203 276.746 92.3551 283.215 95.051 284.525L141.088 321.565C146.765 324.332 154.821 325.094 160.593 323.584C162.94 323.584 170.917 320.282 172.598 319.467L260.691 276.345C264.465 274.513 266.415 271.76 266.289 268.792C266.146 265.611 263.609 262.55 259.105 260.358L179.734 234.626C178.909 234.225 174.913 232.942 173.962 232.635C170.901 231.659 167.539 230.843 164.082 230.67C159.198 230.442 154.488 231.178 150.999 232.862Z" fill="black"/>
<path opacity="0.6364" d="M151.364 233.383L88.5016 264.421C88.3271 264.502 87.8831 264.729 87.7245 264.822C82.8719 267.483 82.4437 271.72 86.4083 275.182C86.4083 276.866 94.1788 283.683 96.3356 284.739L141.452 321.031C147.304 323.878 155.709 324.56 161.466 322.795C163.337 322.795 171.869 319.106 173.216 318.451L260.326 275.81C263.894 274.072 265.718 271.506 265.559 268.739C265.401 265.812 263.006 262.951 258.74 260.879L179.877 235.308C179.211 234.987 174.897 233.597 174.136 233.357C171.123 232.367 167.793 231.499 164.368 231.285C159.515 231.017 154.805 231.712 151.364 233.383Z" fill="black"/>
<path opacity="0.7273" d="M151.713 233.918L88.787 264.996C88.5967 265.09 88.1844 265.29 88.0099 265.397C83.1731 268.084 83.078 272.402 87.6135 275.757C87.6135 277.013 96.0025 284.191 97.62 284.98L141.801 320.523C147.827 323.45 156.597 324.052 162.338 322.047C163.749 322.047 172.82 317.97 173.835 317.475L259.977 275.302C263.355 273.658 265.036 271.265 264.846 268.712C264.655 266.026 262.403 263.379 258.391 261.414L180.035 236.003C179.544 235.763 174.882 234.279 174.326 234.078C171.345 233.063 168.062 232.14 164.653 231.913C159.848 231.592 155.122 232.261 151.713 233.918Z" fill="black"/>
<path opacity="0.8182" d="M152.077 234.439L89.0725 265.544C88.8505 265.651 88.5016 265.838 88.2954 265.945C83.4745 268.672 83.7283 273.043 88.8188 276.291C88.8188 277.134 97.8262 284.673 98.9046 285.194L142.15 319.988C148.351 322.996 157.485 323.517 163.194 321.258C164.13 321.258 173.772 316.78 174.438 316.459L259.596 274.768C262.784 273.217 264.306 270.998 264.1 268.659C263.894 266.213 261.785 263.767 258.011 261.935L180.162 236.698C179.829 236.538 174.85 234.934 174.485 234.814C171.535 233.784 168.3 232.809 164.907 232.541C160.181 232.167 155.455 232.795 152.077 234.439Z" fill="black"/>
<path opacity="0.9091" d="M152.442 234.96L89.3738 266.106C89.1201 266.226 88.8187 266.386 88.5967 266.52C83.7758 269.287 84.3784 273.725 90.0398 276.853C90.0398 277.267 99.6817 285.167 100.221 285.434L142.531 319.467C148.89 322.568 158.405 322.996 164.082 320.483C164.558 320.483 174.739 315.617 175.072 315.457L259.248 274.246C262.245 272.789 263.624 270.744 263.402 268.619C263.165 266.413 261.214 264.181 257.662 262.456L180.337 237.38C180.178 237.3 174.866 235.589 174.675 235.522C171.757 234.479 168.57 233.437 165.208 233.142C160.498 232.741 155.772 233.33 152.442 234.96Z" fill="black"/>
<path d="M164.954 319.721L258.899 273.738C264.56 270.985 263.847 266.173 257.313 262.991L174.866 236.257C168.332 233.076 158.452 232.728 152.791 235.482L89.6593 266.667C83.9979 269.421 84.7115 274.233 91.2451 277.414L142.88 318.959C149.413 322.127 159.293 322.474 164.954 319.721Z" fill="black"/>
</g>
<path d="M164.954 319.601L258.899 273.618C261.42 272.388 262.673 270.758 262.721 269.033C262.721 268.98 262.721 263.112 262.721 263.045C262.673 260.96 260.849 264.582 257.313 262.871L174.866 236.137C168.332 232.956 158.452 232.608 152.791 235.362L89.6593 266.547C87.7721 267.469 86.4083 263.566 85.9167 264.809C85.7581 265.224 85.8533 270.691 85.8533 271.119C85.8057 273.257 87.6294 275.516 91.261 277.281L142.895 318.825C149.413 322.02 159.293 322.354 164.954 319.601Z" fill="url(#paint1_linear_147_1087)"/>
<path d="M164.954 313.733L258.899 267.75C264.56 264.996 263.847 260.184 257.313 257.003L174.866 230.269C168.332 227.088 158.452 226.74 152.791 229.494L89.6593 260.679C83.9979 263.432 84.7115 268.245 91.2451 271.426L142.88 312.971C149.413 316.139 159.293 316.486 164.954 313.733Z" fill="url(#paint2_linear_147_1087)"/>
<path opacity="0.8182" d="M89.6593 260.679L152.791 229.494C158.452 226.74 168.332 227.088 174.866 230.269L216.399 243.743C216.002 244.01 215.59 244.264 215.114 244.491L121.17 290.474C119.869 291.102 118.331 291.57 116.682 291.877L91.2451 271.413C84.7115 268.245 83.9979 263.432 89.6593 260.679Z" fill="url(#paint3_linear_147_1087)"/>
<path opacity="0.6" d="M91.245 270.423L142.88 311.968C149.413 315.149 159.293 315.497 164.954 312.743L258.899 266.761C261.246 265.624 262.483 264.127 262.673 262.537C262.974 264.488 261.737 266.386 258.899 267.763L164.954 313.746C159.293 316.499 149.413 316.152 142.88 312.97L91.245 271.426C87.4232 269.568 85.6153 267.148 85.8849 264.916C86.1703 266.841 87.9782 268.832 91.245 270.423Z" fill="url(#paint4_radial_147_1087)"/>
<path d="M126.546 309.802C120.044 323.129 125.753 337.74 139.28 342.418C152.807 347.11 169.046 340.106 175.548 326.765C182.05 313.438 176.341 298.828 162.814 294.15C149.286 289.471 133.048 296.476 126.546 309.802Z" fill="url(#paint5_radial_147_1087)"/>
<path opacity="0.3" d="M201.904 296.77C208.2 308.011 239.98 306.501 272.886 293.401C305.792 280.301 327.359 260.585 321.063 249.343C314.767 238.102 282.988 239.612 250.082 252.712C217.176 265.812 195.608 285.541 201.904 296.77Z" fill="url(#paint6_radial_147_1087)"/>
<path d="M42.2113 313.987L272.933 201.61C284.732 195.876 294.294 180.463 294.294 167.217V18.4819C294.294 5.22186 284.732 -0.873499 272.933 4.87432L42.2113 117.251C30.4128 122.985 20.8502 138.397 20.8502 151.644V300.379C20.8661 313.639 30.4286 319.734 42.2113 313.987Z" fill="url(#paint7_linear_147_1087)"/>
<path d="M39.4679 303.64L266.939 192.868C276.438 187.788 282.306 177.616 282.306 167.23V17.5192C282.306 15.0596 279.118 13.5224 276.597 14.7656C276.295 14.9126 276.073 15.0195 275.931 15.0997L48.2216 126.006C36.9147 131.5 32.855 141.258 32.855 151.644V300.887C32.855 303.533 36.2487 305.191 38.9604 303.881C39.1824 303.774 39.3569 303.694 39.4679 303.64Z" fill="url(#paint8_linear_147_1087)"/>
<path d="M32.855 151.644V300.887C32.855 303.533 36.2487 305.191 38.9604 303.881C39.1824 303.774 39.341 303.694 39.452 303.64L266.923 192.868C276.422 187.788 282.29 177.616 282.29 167.23V17.5192C282.29 15.0596 279.102 13.5224 276.581 14.7656C276.279 14.9126 276.057 15.0195 275.915 15.0997L48.2216 126.006C36.9147 131.486 32.855 141.244 32.855 151.644ZM35.2496 151.644C35.2496 143.878 37.7076 133.438 49.411 127.757L277.802 16.5033C278.024 16.3963 278.262 16.3429 278.5 16.3429C279.166 16.3429 279.895 16.784 279.895 17.5058V167.216C279.895 177.121 274.297 186.518 265.734 191.103L37.7711 302.116C37.5015 302.25 37.2319 302.303 36.9464 302.303C36.1377 302.303 35.2496 301.755 35.2496 300.873V151.644Z" fill="#BCBEC0"/>
<path d="M36.1693 114.537L266.891 2.16064C271.554 -0.111749 275.883 -0.526131 279.388 0.610065C279.832 0.757103 285.794 3.41714 286.207 3.61764C286.223 3.61764 286.223 3.63101 286.223 3.63101C282.591 2.14728 277.96 2.41462 272.933 4.87415L42.2113 117.251C30.4128 122.985 20.8502 138.397 20.8502 151.644V300.379C20.8502 308.653 24.577 314.134 30.2384 315.697C29.7785 315.724 29.2076 315.564 28.3671 315.163C28.0975 315.029 21.6273 311.955 21.3736 311.808C17.3139 309.415 14.7924 304.496 14.7924 297.679V148.931C14.8083 135.684 24.3708 120.272 36.1693 114.537Z" fill="url(#paint9_linear_147_1087)"/>
<path opacity="0.6" d="M41.1964 116.823L271.918 4.44624C276.755 2.09364 281.195 1.75947 284.779 3.05607C281.719 2.64169 278.214 3.26994 274.472 5.08786L43.7496 117.464C31.951 123.199 22.3885 138.611 22.3885 151.858V300.592C22.3885 308.412 25.7346 313.719 30.8885 315.59C24.2915 314.708 19.8353 309 19.8353 299.951V151.216C19.8353 137.956 29.3979 122.557 41.1964 116.823Z" fill="url(#paint10_radial_147_1087)"/>
<path d="M2.91451 123.841C-3.58738 137.168 1.15423 151.444 13.5078 155.721C25.8614 159.998 41.133 152.66 47.6349 139.333C54.1368 126.006 49.3951 111.73 37.0415 107.453C24.688 103.175 9.40055 110.5 2.91451 123.841Z" fill="url(#paint11_radial_147_1087)"/>
<g opacity="0.3">
<path opacity="0.0909" d="M283.289 94.139C292.693 89.5675 300.305 93.23 300.305 102.32V198.174C300.305 207.264 292.677 218.345 283.289 222.917L230.322 247.86C220.918 252.431 209.881 248.314 209.881 239.225V143.37C209.881 134.28 220.918 123.653 230.322 119.082L283.289 94.139Z" fill="url(#paint12_linear_147_1087)"/>
<path opacity="0.1818" d="M284.193 94.4598C293.597 89.8883 301.209 93.5508 301.209 102.64V198.001C301.209 207.09 293.581 218.172 284.193 222.743L231.194 247.699C221.79 252.271 211.086 248.207 211.086 239.104V143.744C211.086 134.654 221.79 123.988 231.194 119.403L284.193 94.4598Z" fill="url(#paint13_linear_147_1087)"/>
<path opacity="0.2727" d="M285.097 94.7806C294.501 90.2091 302.128 93.8716 302.128 102.961V197.827C302.128 206.917 294.501 217.998 285.097 222.583L232.082 247.566C222.678 252.137 212.323 248.114 212.323 239.024V144.158C212.323 135.069 222.678 124.348 232.082 119.777L285.097 94.7806Z" fill="url(#paint14_linear_147_1087)"/>
<path opacity="0.3636" d="M286.001 95.1148C295.404 90.5433 303.032 94.2059 303.032 103.295V197.667C303.032 206.756 295.404 217.851 286.001 222.422L232.955 247.419C223.551 251.99 213.528 248.007 213.528 238.917V144.546C213.528 135.456 223.551 124.683 232.955 120.111L286.001 95.1148Z" fill="url(#paint15_linear_147_1087)"/>
<path opacity="0.4545" d="M286.905 95.4356C296.308 90.8641 303.936 94.5266 303.936 103.616V197.493C303.936 206.596 296.308 217.677 286.905 222.249L233.843 247.258C224.439 251.83 214.765 247.9 214.765 238.797V144.92C214.765 135.831 224.439 125.017 233.843 120.432L286.905 95.4356Z" fill="url(#paint16_linear_147_1087)"/>
<path opacity="0.5455" d="M287.808 95.7564C297.212 91.1849 304.84 94.8475 304.84 103.937V197.319C304.84 206.422 297.212 217.503 287.808 222.075L234.715 247.111C225.311 251.683 215.97 247.793 215.97 238.703V145.321C215.97 136.218 225.311 125.364 234.715 120.793L287.808 95.7564Z" fill="url(#paint17_linear_147_1087)"/>
<path opacity="0.6364" d="M288.712 96.0906C298.116 91.5191 305.744 95.1817 305.744 104.271V197.159C305.744 206.262 298.116 217.343 288.712 221.928L235.587 246.978C226.183 251.549 217.192 247.713 217.192 238.61V145.722C217.192 136.619 226.183 125.725 235.587 121.14L288.712 96.0906Z" fill="url(#paint18_linear_147_1087)"/>
<path opacity="0.7273" d="M289.616 96.4115C299.02 91.8266 306.648 95.5025 306.648 104.592V196.985C306.648 206.088 299.02 217.169 289.616 221.754L236.475 246.817C227.071 251.402 218.413 247.592 218.413 238.489V146.097C218.413 136.994 227.071 126.046 236.475 121.461L289.616 96.4115Z" fill="url(#paint19_linear_147_1087)"/>
<path opacity="0.8182" d="M290.504 96.7456C299.908 92.1607 307.536 95.8366 307.536 104.94V196.838C307.536 205.941 299.908 217.022 290.504 221.607L237.332 246.697C227.928 251.282 219.618 247.512 219.618 238.423V146.524C219.618 137.421 227.928 126.42 237.332 121.849L290.504 96.7456Z" fill="url(#paint20_linear_147_1087)"/>
<path opacity="0.9091" d="M291.408 97.0664C300.812 92.4815 308.44 96.1574 308.44 105.26V196.664C308.44 205.767 300.812 216.862 291.408 221.433L238.204 246.536C228.8 251.121 220.823 247.405 220.823 238.302V146.899C220.823 137.796 228.8 126.755 238.204 122.17L291.408 97.0664Z" fill="url(#paint21_linear_147_1087)"/>
<path d="M292.312 97.3872C301.716 92.8023 309.36 96.4782 309.36 105.581V196.49C309.36 205.593 301.732 216.688 292.312 221.259L239.092 246.376C229.688 250.961 222.044 247.285 222.044 238.182V147.273C222.044 138.17 229.672 127.075 239.092 122.504L292.312 97.3872Z" fill="url(#paint22_linear_147_1087)"/>
</g>
<path opacity="0.8" d="M292.804 96.1841C302.255 91.5859 309.899 95.2618 309.899 104.405V203.468C309.899 212.597 302.239 223.732 292.804 228.33L239.187 253.648C229.735 258.246 222.092 254.57 222.092 245.427V146.364C222.092 137.234 229.751 126.1 239.187 121.501L292.804 96.1841Z" fill="url(#paint23_linear_147_1087)"/>
<path d="M239.187 121.501L292.804 96.1841C302.255 91.5859 309.899 95.2618 309.899 104.405V105.795C309.899 96.6653 302.239 92.9761 292.804 97.5743L239.187 122.891C229.735 127.49 222.092 138.624 222.092 147.754V146.364C222.076 137.234 229.735 126.1 239.187 121.501Z" fill="url(#paint24_radial_147_1087)"/>
<mask id="mask0_147_1087" style="mask-type:alpha" maskUnits="userSpaceOnUse" x="322" y="259" width="137" height="130">
<path d="M458.57 259.943H322.839V388.36H458.57V259.943Z" fill="url(#paint25_linear_147_1087)"/>
</mask>
<g mask="url(#mask0_147_1087)">
</g>
<defs>
<linearGradient id="paint0_linear_147_1087" x1="255.627" y1="301.469" x2="69.0673" y2="301.469" gradientUnits="userSpaceOnUse">
<stop offset="0.0556" stop-color="#200041"/>
<stop offset="0.2576" stop-color="#210243"/>
<stop offset="0.3572" stop-color="#25084B"/>
<stop offset="0.4341" stop-color="#2C1358"/>
<stop offset="0.4697" stop-color="#311B61"/>
<stop offset="0.482" stop-color="#351F65"/>
<stop offset="0.4954" stop-color="#422C73"/>
<stop offset="0.5093" stop-color="#584188"/>
<stop offset="0.5235" stop-color="#765FA7"/>
<stop offset="0.5303" stop-color="#8770B8"/>
<stop offset="0.5366" stop-color="#7E67AE"/>
<stop offset="0.5617" stop-color="#5C468D"/>
<stop offset="0.5857" stop-color="#442E75"/>
<stop offset="0.6078" stop-color="#362066"/>
<stop offset="0.6263" stop-color="#311B61"/>
<stop offset="0.6724" stop-color="#2A1155"/>
<stop offset="0.7491" stop-color="#230446"/>
<stop offset="0.8131" stop-color="#200041"/>
<stop offset="1" stop-color="#200041"/>
</linearGradient>
<linearGradient id="paint1_linear_147_1087" x1="255.627" y1="277.489" x2="69.0665" y2="277.489" gradientUnits="userSpaceOnUse">
<stop offset="0.0556" stop-color="#200041"/>
<stop offset="0.2576" stop-color="#210243"/>
<stop offset="0.3572" stop-color="#25084B"/>
<stop offset="0.4341" stop-color="#2C1358"/>
<stop offset="0.4697" stop-color="#311B61"/>
<stop offset="0.482" stop-color="#351F65"/>
<stop offset="0.4954" stop-color="#422C73"/>
<stop offset="0.5093" stop-color="#584188"/>
<stop offset="0.5235" stop-color="#765FA7"/>
<stop offset="0.5303" stop-color="#8770B8"/>
<stop offset="0.5366" stop-color="#7E67AE"/>
<stop offset="0.5617" stop-color="#5C468D"/>
<stop offset="0.5857" stop-color="#442E75"/>
<stop offset="0.6078" stop-color="#362066"/>
<stop offset="0.6263" stop-color="#311B61"/>
<stop offset="0.6724" stop-color="#2A1155"/>
<stop offset="0.7491" stop-color="#230446"/>
<stop offset="0.8131" stop-color="#200041"/>
<stop offset="1" stop-color="#200041"/>
</linearGradient>
<linearGradient id="paint2_linear_147_1087" x1="205.706" y1="287.6" x2="128.508" y2="236.936" gradientUnits="userSpaceOnUse">
<stop stop-color="#311B61"/>
<stop offset="0.2031" stop-color="#290F52"/>
<stop offset="0.4949" stop-color="#200041"/>
<stop offset="1" stop-color="#0F001F"/>
</linearGradient>
<linearGradient id="paint3_linear_147_1087" x1="160.856" y1="268.959" x2="148.091" y2="243.568" gradientUnits="userSpaceOnUse">
<stop stop-color="white"/>
<stop offset="1"/>
</linearGradient>
<radialGradient id="paint4_radial_147_1087" cx="0" cy="0" r="1" gradientUnits="userSpaceOnUse" gradientTransform="translate(160.303 300.842) rotate(180) scale(66.3739 55.9469)">
<stop stop-color="#AF8AFC"/>
<stop offset="1" stop-color="#10054D"/>
</radialGradient>
<radialGradient id="paint5_radial_147_1087" cx="0" cy="0" r="1" gradientUnits="userSpaceOnUse" gradientTransform="translate(151.051 318.29) rotate(-160.895) scale(25.9293 26.6564)">
<stop stop-color="#972A74"/>
<stop offset="0.0413" stop-color="#8A266A"/>
<stop offset="0.1941" stop-color="#601B4A"/>
<stop offset="0.35" stop-color="#3D112F"/>
<stop offset="0.5074" stop-color="#220A1B"/>
<stop offset="0.6667" stop-color="#0F040C"/>
<stop offset="0.8293" stop-color="#040103"/>
<stop offset="1"/>
</radialGradient>
<radialGradient id="paint6_radial_147_1087" cx="0" cy="0" r="1" gradientUnits="userSpaceOnUse" gradientTransform="translate(261.475 273.064) rotate(158.3) scale(64.1219 23.1214)">
<stop stop-color="#4F18AD"/>
<stop offset="0.1797" stop-color="#3D1285"/>
<stop offset="0.4587" stop-color="#230B4C"/>
<stop offset="0.6984" stop-color="#100523"/>
<stop offset="0.8866" stop-color="#040109"/>
<stop offset="1"/>
</radialGradient>
<linearGradient id="paint7_linear_147_1087" x1="23.9478" y1="315.295" x2="249.158" y2="-54.4202" gradientUnits="userSpaceOnUse">
<stop stop-color="#311B61"/>
<stop offset="0.2031" stop-color="#290F52"/>
<stop offset="0.4949" stop-color="#200041"/>
<stop offset="1" stop-color="#0F001F"/>
</linearGradient>
<linearGradient id="paint8_linear_147_1087" x1="270.834" y1="15.4664" x2="81.4448" y2="353.328" gradientUnits="userSpaceOnUse">
<stop offset="0.0101" stop-color="#9F19AB"/>
<stop offset="0.4293" stop-color="#5F27BD"/>
<stop offset="0.904" stop-color="#3D065F"/>
</linearGradient>
<linearGradient id="paint9_linear_147_1087" x1="-36.7138" y1="322.528" x2="137.108" y2="-6.9795" gradientUnits="userSpaceOnUse">
<stop offset="0.0556" stop-color="#200041"/>
<stop offset="0.2576" stop-color="#210243"/>
<stop offset="0.3572" stop-color="#25084B"/>
<stop offset="0.4341" stop-color="#2C1358"/>
<stop offset="0.4697" stop-color="#311B61"/>
<stop offset="0.482" stop-color="#351F65"/>
<stop offset="0.4954" stop-color="#422C73"/>
<stop offset="0.5093" stop-color="#584188"/>
<stop offset="0.5235" stop-color="#765FA7"/>
<stop offset="0.5303" stop-color="#8770B8"/>
<stop offset="0.5366" stop-color="#7E67AE"/>
<stop offset="0.5617" stop-color="#5C468D"/>
<stop offset="0.5857" stop-color="#442E75"/>
<stop offset="0.6078" stop-color="#362066"/>
<stop offset="0.6263" stop-color="#311B61"/>
<stop offset="0.6724" stop-color="#2A1155"/>
<stop offset="0.7491" stop-color="#230446"/>
<stop offset="0.8131" stop-color="#200041"/>
<stop offset="1" stop-color="#200041"/>
</linearGradient>
<radialGradient id="paint10_radial_147_1087" cx="0" cy="0" r="1" gradientUnits="userSpaceOnUse" gradientTransform="translate(27.0375 150.171) rotate(180) scale(38.2505 32.2415)">
<stop stop-color="#AF8AFC"/>
<stop offset="1" stop-color="#10054D"/>
</radialGradient>
<radialGradient id="paint11_radial_147_1087" cx="0" cy="0" r="1" gradientUnits="userSpaceOnUse" gradientTransform="translate(25.2709 131.582) rotate(-160.89) scale(23.6646 26.6563)">
<stop stop-color="#972A74"/>
<stop offset="0.0413" stop-color="#8A266A"/>
<stop offset="0.1941" stop-color="#601B4A"/>
<stop offset="0.35" stop-color="#3D112F"/>
<stop offset="0.5074" stop-color="#220A1B"/>
<stop offset="0.6667" stop-color="#0F040C"/>
<stop offset="0.8293" stop-color="#040103"/>
<stop offset="1"/>
</radialGradient>
<linearGradient id="paint12_linear_147_1087" x1="338.96" y1="36.9586" x2="259.632" y2="216.413" gradientUnits="userSpaceOnUse">
<stop offset="0.0101" stop-color="#9F19AB"/>
<stop offset="0.4293" stop-color="#5F27BD"/>
<stop offset="0.904" stop-color="#3D065F"/>
</linearGradient>
<linearGradient id="paint13_linear_147_1087" x1="339.746" y1="37.4368" x2="260.633" y2="216.405" gradientUnits="userSpaceOnUse">
<stop offset="0.0101" stop-color="#9F19AB"/>
<stop offset="0.4293" stop-color="#5F27BD"/>
<stop offset="0.904" stop-color="#3D065F"/>
</linearGradient>
<linearGradient id="paint14_linear_147_1087" x1="340.53" y1="37.9135" x2="261.632" y2="216.396" gradientUnits="userSpaceOnUse">
<stop offset="0.0101" stop-color="#9F19AB"/>
<stop offset="0.4293" stop-color="#5F27BD"/>
<stop offset="0.904" stop-color="#3D065F"/>
</linearGradient>
<linearGradient id="paint15_linear_147_1087" x1="341.312" y1="38.3895" x2="262.629" y2="216.387" gradientUnits="userSpaceOnUse">
<stop offset="0.0101" stop-color="#9F19AB"/>
<stop offset="0.4293" stop-color="#5F27BD"/>
<stop offset="0.904" stop-color="#3D065F"/>
</linearGradient>
<linearGradient id="paint16_linear_147_1087" x1="342.092" y1="38.8639" x2="263.623" y2="216.376" gradientUnits="userSpaceOnUse">
<stop offset="0.0101" stop-color="#9F19AB"/>
<stop offset="0.4293" stop-color="#5F27BD"/>
<stop offset="0.904" stop-color="#3D065F"/>
</linearGradient>
<linearGradient id="paint17_linear_147_1087" x1="342.869" y1="39.3372" x2="264.614" y2="216.365" gradientUnits="userSpaceOnUse">
<stop offset="0.0101" stop-color="#9F19AB"/>
<stop offset="0.4293" stop-color="#5F27BD"/>
<stop offset="0.904" stop-color="#3D065F"/>
</linearGradient>
<linearGradient id="paint18_linear_147_1087" x1="343.644" y1="39.8091" x2="265.603" y2="216.353" gradientUnits="userSpaceOnUse">
<stop offset="0.0101" stop-color="#9F19AB"/>
<stop offset="0.4293" stop-color="#5F27BD"/>
<stop offset="0.904" stop-color="#3D065F"/>
</linearGradient>
<linearGradient id="paint19_linear_147_1087" x1="344.415" y1="40.2795" x2="266.588" y2="216.34" gradientUnits="userSpaceOnUse">
<stop offset="0.0101" stop-color="#9F19AB"/>
<stop offset="0.4293" stop-color="#5F27BD"/>
<stop offset="0.904" stop-color="#3D065F"/>
</linearGradient>
<linearGradient id="paint20_linear_147_1087" x1="345.184" y1="40.7485" x2="267.571" y2="216.326" gradientUnits="userSpaceOnUse">
<stop offset="0.0101" stop-color="#9F19AB"/>
<stop offset="0.4293" stop-color="#5F27BD"/>
<stop offset="0.904" stop-color="#3D065F"/>
</linearGradient>
<linearGradient id="paint21_linear_147_1087" x1="345.95" y1="41.2159" x2="268.549" y2="216.311" gradientUnits="userSpaceOnUse">
<stop offset="0.0101" stop-color="#9F19AB"/>
<stop offset="0.4293" stop-color="#5F27BD"/>
<stop offset="0.904" stop-color="#3D065F"/>
</linearGradient>
<linearGradient id="paint22_linear_147_1087" x1="346.713" y1="41.682" x2="269.526" y2="216.295" gradientUnits="userSpaceOnUse">
<stop offset="0.0101" stop-color="#9F19AB"/>
<stop offset="0.4293" stop-color="#5F27BD"/>
<stop offset="0.904" stop-color="#3D065F"/>
</linearGradient>
<linearGradient id="paint23_linear_147_1087" x1="198.222" y1="286.516" x2="321.947" y2="-0.247242" gradientUnits="userSpaceOnUse">
<stop offset="0.0303" stop-color="#7C1DC9"/>
<stop offset="0.2138" stop-color="#6E41D2"/>
<stop offset="0.6184" stop-color="#4C9BE8"/>
<stop offset="1" stop-color="#2AF6FF"/>
</linearGradient>
<radialGradient id="paint24_radial_147_1087" cx="0" cy="0" r="1" gradientUnits="userSpaceOnUse" gradientTransform="translate(265.99 120.984) rotate(180) scale(83.6103 70.4756)">
<stop stop-color="#711F56"/>
<stop offset="0.1614" stop-color="#6C1E52"/>
<stop offset="0.3626" stop-color="#5C1946"/>
<stop offset="0.5849" stop-color="#431233"/>
<stop offset="0.8208" stop-color="#200918"/>
<stop offset="1"/>
</radialGradient>
<linearGradient id="paint25_linear_147_1087" x1="451.722" y1="222.897" x2="409.296" y2="321.995" gradientUnits="userSpaceOnUse">
<stop stop-color="white"/>
<stop offset="1"/>
</linearGradient>
</defs>
</svg>
