<svg width="25" height="29" viewBox="0 0 25 29" fill="none" xmlns="http://www.w3.org/2000/svg">
<path d="M16.4307 8.88296C15.7227 3.66422 14.0527 0 12.1094 0C10.166 0 8.49609 3.66422 7.78809 8.88296H16.4307ZM7.42188 14.4932C7.42188 15.7906 7.48047 17.0354 7.58301 18.2334H16.6309C16.7334 17.0354 16.792 15.7906 16.792 14.4932C16.792 13.1959 16.7334 11.9511 16.6309 10.7531H7.58301C7.48047 11.9511 7.42188 13.1959 7.42188 14.4932ZM23.2764 8.88296C21.8799 4.91485 19.0527 1.84672 15.5615 0.607781C16.7529 2.58307 17.5732 5.55769 18.0029 8.88296H23.2764ZM8.65234 0.607781C5.16602 1.84672 2.33398 4.91485 0.942383 8.88296H6.21582C6.64062 5.55769 7.46094 2.58307 8.65234 0.607781ZM23.7988 10.7531H18.1982C18.3008 11.9803 18.3594 13.2368 18.3594 14.4932C18.3594 15.7497 18.3008 17.0062 18.1982 18.2334H23.7939C24.0625 17.0354 24.2139 15.7906 24.2139 14.4932C24.2139 13.1959 24.0625 11.9511 23.7988 10.7531ZM5.85938 14.4932C5.85938 13.2368 5.91797 11.9803 6.02051 10.7531H0.419922C0.15625 11.9511 0 13.1959 0 14.4932C0 15.7906 0.15625 17.0354 0.419922 18.2334H6.01562C5.91797 17.0062 5.85938 15.7497 5.85938 14.4932ZM7.78809 20.1035C8.49609 25.3223 10.166 28.9865 12.1094 28.9865C14.0527 28.9865 15.7227 25.3223 16.4307 20.1035H7.78809ZM15.5664 28.3787C19.0527 27.1398 21.8848 24.0716 23.2812 20.1035H18.0078C17.5781 23.4288 16.7578 26.4034 15.5664 28.3787ZM0.942383 20.1035C2.33887 24.0716 5.16602 27.1398 8.65723 28.3787C7.46582 26.4034 6.64551 23.4288 6.21582 20.1035H0.942383Z" fill="white"/>
</svg>
