<svg xmlns="http://www.w3.org/2000/svg" width="604.477" height="508.087" viewBox="0 0 604.477 508.087">
  <g id="Group_43663" data-name="Group 43663" transform="translate(-1046.501 -1876.077)">
    <g id="Group_43659" data-name="Group 43659" transform="translate(1046.501 2087.207)">
      <g id="Group_32397" data-name="Group 32397" transform="translate(23.769 47.44)">
        <g id="Group_32396" data-name="Group 32396">
          <rect id="Rectangle_3860" data-name="Rectangle 3860" width="20.816" height="232.47" fill="#ff5848"/>
        </g>
      </g>
      <g id="Group_32399" data-name="Group 32399" transform="translate(63.955 126.395)">
        <g id="Group_32398" data-name="Group 32398">
          <rect id="Rectangle_3861" data-name="Rectangle 3861" width="20.816" height="153.514" fill="#ff5848"/>
        </g>
      </g>
      <g id="Group_32401" data-name="Group 32401" transform="translate(104.142 76.335)">
        <g id="Group_32400" data-name="Group 32400">
          <rect id="Rectangle_3862" data-name="Rectangle 3862" width="20.816" height="204.756" fill="#ff5848"/>
        </g>
      </g>
      <g id="Group_32403" data-name="Group 32403" transform="translate(144.328 56.417)">
        <g id="Group_32402" data-name="Group 32402">
          <rect id="Rectangle_3863" data-name="Rectangle 3863" width="20.816" height="223.493" fill="#ff5848"/>
        </g>
      </g>
      <g id="Group_32405" data-name="Group 32405" transform="translate(184.514 131.121)">
        <g id="Group_32404" data-name="Group 32404">
          <rect id="Rectangle_3864" data-name="Rectangle 3864" width="20.816" height="148.788" fill="#ff5848"/>
        </g>
      </g>
      <g id="Group_32407" data-name="Group 32407" transform="translate(224.701 160.301)">
        <g id="Group_32406" data-name="Group 32406">
          <rect id="Rectangle_3865" data-name="Rectangle 3865" width="20.816" height="119.609" fill="#ff5848"/>
        </g>
      </g>
      <g id="Group_32409" data-name="Group 32409" transform="translate(264.887 71.3)">
        <g id="Group_32408" data-name="Group 32408">
          <rect id="Rectangle_3866" data-name="Rectangle 3866" width="20.816" height="208.609" fill="#ff5848"/>
        </g>
      </g>
      <g id="Group_32411" data-name="Group 32411" transform="translate(305.074 108.91)">
        <g id="Group_32410" data-name="Group 32410">
          <rect id="Rectangle_3867" data-name="Rectangle 3867" width="20.816" height="170.999" fill="#ff5848"/>
        </g>
      </g>
      <g id="Group_32413" data-name="Group 32413" transform="translate(345.26 78.857)">
        <g id="Group_32412" data-name="Group 32412">
          <rect id="Rectangle_3868" data-name="Rectangle 3868" width="20.816" height="201.053" fill="#ff5848"/>
        </g>
      </g>
      <g id="Group_32415" data-name="Group 32415" transform="translate(385.447 142.935)">
        <g id="Group_32414" data-name="Group 32414">
          <rect id="Rectangle_3869" data-name="Rectangle 3869" width="20.816" height="136.974" fill="#ff5848"/>
        </g>
      </g>
      <g id="Group_32417" data-name="Group 32417" transform="translate(465.603 71.3)">
        <g id="Group_32416" data-name="Group 32416">
          <rect id="Rectangle_3870" data-name="Rectangle 3870" width="20.816" height="208.609" fill="#ff5848"/>
        </g>
      </g>
      <g id="Group_32419" data-name="Group 32419" transform="translate(550.95 205.515)">
        <g id="Group_32418" data-name="Group 32418">
          <rect id="Rectangle_3871" data-name="Rectangle 3871" width="20.816" height="71.379" fill="#ff5848"/>
        </g>
      </g>
      <g id="Group_32421" data-name="Group 32421" transform="translate(509.345 142.935)">
        <g id="Group_32420" data-name="Group 32420">
          <rect id="Rectangle_3872" data-name="Rectangle 3872" width="20.816" height="136.974" fill="#ff5848"/>
        </g>
      </g>
      <g id="Group_32423" data-name="Group 32423" transform="translate(425.633 116.871)">
        <g id="Group_32422" data-name="Group 32422">
          <rect id="Rectangle_3873" data-name="Rectangle 3873" width="20.816" height="163.038" fill="#ff5848"/>
        </g>
      </g>
      <g id="Group_32426" data-name="Group 32426" transform="translate(35.299 72.275)">
        <g id="Group_32425" data-name="Group 32425">
          <g id="Group_32424" data-name="Group 32424">
            <path id="Path_29418" data-name="Path 29418" d="M865.542,213.54a10.905,10.905,0,0,1-1.828-.294l-5.3-1.087a82.29,82.29,0,0,0-8.666-1.377,107.637,107.637,0,0,0-11.92-1,137.759,137.759,0,0,0-32.583,2.8,143.7,143.7,0,0,0-40.424,15.3,165.39,165.39,0,0,0-40.931,32.591c-12.757,13.98-23.51,31.249-34.5,49.527-11.106,18.165-22.4,37.9-38.766,54.794-8.111,8.419-17.569,16.046-28.566,21.365a60.04,60.04,0,0,1-17.606,5.382,56.91,56.91,0,0,1-18.67-.629c-12.349-2.727-23.3-9.212-32.51-17.051-9.336-7.776-17.1-16.928-24.081-26.28-13.97-18.812-23.9-39.092-34.527-57.562-10.485-18.532-21.274-35.857-34.487-49.383a93.686,93.686,0,0,0-21.324-16.772c-3.67-2.387-7.737-3.825-11.522-5.593-3.988-1.255-7.8-2.807-11.758-3.483a85.344,85.344,0,0,0-42.741,1.2A96.391,96.391,0,0,0,343.5,230.1,107.226,107.226,0,0,0,328.1,243.906c-1.516,1.711-2.7,3.049-3.585,4.041a10.932,10.932,0,0,1-1.288,1.331,10.849,10.849,0,0,1,1.1-1.48l3.422-4.2a100.1,100.1,0,0,1,15.222-14.23,95.9,95.9,0,0,1,29.509-14.625,86.31,86.31,0,0,1,43.456-1.55c16.005,3.188,32.307,12.383,45.627,26.1,13.476,13.681,24.405,31.124,34.97,49.673,10.7,18.5,20.659,38.7,34.495,57.264,6.916,9.242,14.593,18.261,23.737,25.866,9.026,7.677,19.667,13.93,31.5,16.546a54.666,54.666,0,0,0,17.865.6,57.76,57.76,0,0,0,16.941-5.175c10.648-5.142,19.928-12.581,27.919-20.86,16.124-16.592,27.41-36.168,38.569-54.316,11.043-18.251,21.931-35.617,34.908-49.715a166.037,166.037,0,0,1,41.564-32.732,143.7,143.7,0,0,1,40.954-15.135,135.6,135.6,0,0,1,32.887-2.431,103.188,103.188,0,0,1,11.977,1.215,75.114,75.114,0,0,1,8.666,1.6l5.259,1.315A10.758,10.758,0,0,1,865.542,213.54Z" transform="translate(-323.222 -208.74)" fill="#263238"/>
          </g>
        </g>
      </g>
      <g id="Group_32429" data-name="Group 32429">
        <g id="Group_32428" data-name="Group 32428">
          <g id="Group_32427" data-name="Group 32427">
            <path id="Path_29419" data-name="Path 29419" d="M302.31,460.27c-.473,0-.856-66.288-.856-148.042,0-81.783.383-148.058.856-148.058s.855,66.275.855,148.058C303.165,393.982,302.782,460.27,302.31,460.27Z" transform="translate(-301.454 -164.17)" fill="#263238"/>
          </g>
        </g>
      </g>
      <g id="Group_32432" data-name="Group 32432" transform="translate(13.912 295.246)">
        <g id="Group_32431" data-name="Group 32431">
          <g id="Group_32430" data-name="Group 32430">
            <path id="Path_29420" data-name="Path 29420" d="M867.886,347.094c0,.474-124.889.856-278.913.856-154.076,0-278.941-.383-278.941-.856s124.864-.855,278.941-.855C743,346.239,867.886,346.622,867.886,347.094Z" transform="translate(-310.033 -346.239)" fill="#263238"/>
          </g>
        </g>
      </g>
      <g id="Group_32474" data-name="Group 32474" transform="translate(205.141 154.668)">
        <g id="Group_32473" data-name="Group 32473">
          <g id="Group_32472" data-name="Group 32472">
            <path id="Path_29434" data-name="Path 29434" d="M436.137,260.551c.018-.355,2.554.535,3.367,4.023a8.565,8.565,0,0,1-.644,6,5.2,5.2,0,0,1-3.034,2.564,5.509,5.509,0,0,1-4.231-.5A7.076,7.076,0,0,1,427.981,266a7.373,7.373,0,0,1,2.9-5.361,4.781,4.781,0,0,1,3.978-.981c.965.29,1.3.756,1.228.859-.1.32-2.112-.641-4.148,1.385a6.082,6.082,0,0,0-1.813,4.187,5.108,5.108,0,0,0,2.58,4.5,3.052,3.052,0,0,0,4.3-1.09,7.587,7.587,0,0,0,.881-4.63C437.614,261.944,435.957,260.833,436.137,260.551Z" transform="translate(-427.958 -259.549)" fill="#263238"/>
          </g>
        </g>
      </g>
      <g id="Group_32477" data-name="Group 32477" transform="translate(479.885 78.501)">
        <g id="Group_32476" data-name="Group 32476">
          <g id="Group_32475" data-name="Group 32475">
            <path id="Path_29435" data-name="Path 29435" d="M604.778,213.328c0-.13.653-.345,1.8,0a6.981,6.981,0,0,1,3.716,3.216,9.2,9.2,0,0,1,.919,7.3c-.81,2.692-3.292,5.685-7.122,5.692a6.134,6.134,0,0,1-4.534-2.366,9.812,9.812,0,0,1-1.915-4.049,9.3,9.3,0,0,1,1.174-7.239c2.559-3.626,5.729-3.439,5.612-3.174.153.339-2.5.85-4.2,4.014a8.049,8.049,0,0,0-.506,5.888c.549,2.14,2.2,4.584,4.437,4.6,2.281.063,4.333-1.995,5.011-4.033a7.946,7.946,0,0,0-.337-5.865C607.334,213.944,604.7,213.628,604.778,213.328Z" transform="translate(-597.384 -212.579)" fill="#263238"/>
          </g>
        </g>
      </g>
    </g>
    <g id="Group_43660" data-name="Group 43660" transform="translate(1426.86 1876.077)">
      <g id="Group_8530" data-name="Group 8530" transform="translate(0 0)">
        <g id="Group_8529" data-name="Group 8529">
          <g id="Group_8528" data-name="Group 8528">
            <g id="Group_8527" data-name="Group 8527">
              <g id="Group_8526" data-name="Group 8526">
                <g id="Group_8525" data-name="Group 8525">
                  <g id="Group_8524" data-name="Group 8524">
                    <path id="Path_29000" data-name="Path 29000" d="M713.17,205.739a91.352,91.352,0,0,1,23.458,6.2l17.239-14.448,29.618,22.541L774.151,240.5a91.26,91.26,0,0,1,12.227,20.962l22.4,1.972,5,36.884-21.06,7.871a91.051,91.051,0,0,1-6.2,23.462l14.448,17.243L778.429,378.5l-20.47-9.33A91.27,91.27,0,0,1,737,381.393l-1.972,22.4L698.141,408.8l-7.871-21.064a91.04,91.04,0,0,1-23.458-6.2l-17.247,14.452-29.614-22.541,9.333-20.474a91.346,91.346,0,0,1-12.223-20.959l-22.4-1.975-5.006-36.88,21.065-7.871a91.058,91.058,0,0,1,6.2-23.462l-14.452-17.243,22.537-29.614L645.48,224.3a91.148,91.148,0,0,1,20.963-12.223l1.972-22.4,36.877-5,7.878,21.061ZM702.106,256.6a39.932,39.932,0,1,0,40.107,30.542A39.944,39.944,0,0,0,702.106,256.6Z" transform="translate(-589.659 -184.678)" fill="#f5f5f5" fill-rule="evenodd"/>
                  </g>
                </g>
              </g>
            </g>
          </g>
        </g>
      </g>
    </g>
    <g id="Group_43661" data-name="Group 43661" transform="translate(1346.073 1986.943)">
      <g id="Group_8530-2" data-name="Group 8530" transform="translate(0 0)">
        <g id="Group_8529-2" data-name="Group 8529">
          <g id="Group_8528-2" data-name="Group 8528">
            <g id="Group_8527-2" data-name="Group 8527">
              <g id="Group_8526-2" data-name="Group 8526">
                <g id="Group_8525-2" data-name="Group 8525">
                  <g id="Group_8524-2" data-name="Group 8524">
                    <path id="Path_29000-2" data-name="Path 29000" d="M666.7,197.815a56.984,56.984,0,0,1,14.632,3.866l10.754-9.012,18.474,14.06L704.739,219.5a56.922,56.922,0,0,1,7.627,13.076l13.972,1.23,3.118,23.007-13.137,4.91a56.792,56.792,0,0,1-3.866,14.635l9.012,10.756L707.408,305.58l-12.769-5.82a56.935,56.935,0,0,1-13.076,7.622l-1.23,13.973-23.007,3.123-4.91-13.139a56.784,56.784,0,0,1-14.632-3.866l-10.758,9.015-18.472-14.06,5.822-12.771a56.969,56.969,0,0,1-7.624-13.074l-13.97-1.232-3.123-23,13.139-4.91a56.811,56.811,0,0,1,3.866-14.635l-9.014-10.756,14.058-18.472,12.771,5.822a56.855,56.855,0,0,1,13.076-7.624l1.23-13.973,23-3.12,4.914,13.137Zm-6.9,31.725a24.908,24.908,0,1,0,25.018,19.051A24.916,24.916,0,0,0,659.8,229.54Z" transform="translate(-589.659 -184.678)" fill="#263238" fill-rule="evenodd"/>
                  </g>
                </g>
              </g>
            </g>
          </g>
        </g>
      </g>
    </g>
    <g id="Group_43662" data-name="Group 43662" transform="translate(1367.931 1894.676)">
      <g id="Group_8539" data-name="Group 8539" transform="translate(20.081 19.54)">
        <g id="Group_8538" data-name="Group 8538">
          <g id="Group_8537" data-name="Group 8537">
            <g id="Group_8536" data-name="Group 8536">
              <g id="Group_8535" data-name="Group 8535">
                <g id="Group_8534" data-name="Group 8534">
                  <g id="Group_8533" data-name="Group 8533">
                    <g id="Group_8532" data-name="Group 8532">
                      <path id="Path_29001" data-name="Path 29001" d="M663.327,127.851a8.188,8.188,0,0,1,2.68-.14,10.779,10.779,0,0,1,6.583,3.066,10.915,10.915,0,0,1,2.714,4.316,11.1,11.1,0,0,1,.338,5.842,11.1,11.1,0,0,1-3.129,5.653,11.053,11.053,0,0,1-13.046,1.771,11.094,11.094,0,0,1-4.523-4.616,11.09,11.09,0,0,1-1.232-5.721,10.927,10.927,0,0,1,1.466-4.883,10.782,10.782,0,0,1,5.528-4.709,8.177,8.177,0,0,1,2.62-.579c.015.075-.954.153-2.531.8a10.8,10.8,0,0,0-5.235,4.7,10.583,10.583,0,0,0-.11,10.121,10.577,10.577,0,0,0,4.307,4.347,10.5,10.5,0,0,0,12.332-1.673,10.584,10.584,0,0,0,2.992-5.337,10.585,10.585,0,0,0-2.8-9.725,10.8,10.8,0,0,0-6.3-3.138C664.286,127.744,663.331,127.927,663.327,127.851Z" transform="translate(-653.7 -127.673)" fill="#455a64"/>
                    </g>
                  </g>
                </g>
              </g>
            </g>
          </g>
        </g>
      </g>
      <g id="Group_8547" data-name="Group 8547">
        <g id="Group_8546" data-name="Group 8546">
          <g id="Group_8545" data-name="Group 8545">
            <g id="Group_8544" data-name="Group 8544">
              <g id="Group_8543" data-name="Group 8543">
                <g id="Group_8542" data-name="Group 8542">
                  <g id="Group_8541" data-name="Group 8541">
                    <g id="Group_8540" data-name="Group 8540">
                      <path id="Path_29002" data-name="Path 29002" d="M662.1,108.767a2.4,2.4,0,0,1-.154-.348c-.105-.263-.246-.616-.428-1.074l-1.649-4.258.107.063-10,1.416.135-.142c-.154,1.842-.326,3.889-.51,6.079l-.009.109-.1.043a24.7,24.7,0,0,0-5.632,3.309l-.1.076-.114-.051-5.562-2.517.269-.067-6.1,8.049-.007-.305,3.93,4.67.1.119-.059.144a24.569,24.569,0,0,0-1.653,6.3l-.02.16-.152.058-5.712,2.144.178-.3c.43,3.142.894,6.531,1.37,10l-.262-.249,6.078.53.177.015.069.165a24.655,24.655,0,0,0,3.282,5.616l.111.144-.075.166-2.529,5.555-.093-.368,8.039,6.112-.386.01,4.678-3.922.144-.121.174.072a24.465,24.465,0,0,0,6.279,1.659h0c.113.089-.251-.2.255.2l0,.006,0,.012.008.022.017.045.033.09.067.18.134.359.269.718.535,1.434q.535,1.431,1.064,2.849l-.333-.2,10.008-1.356-.264.278q.271-3.068.537-6.078l.017-.184.171-.071a24.477,24.477,0,0,0,5.62-3.271l.144-.112.166.076,5.552,2.536-.359.09,6.123-8.029.008.356-3.914-4.683-.109-.13.065-.156a24.524,24.524,0,0,0,1.673-6.292l.021-.163.152-.056,5.717-2.127-.165.277c-.47-3.522-.914-6.846-1.336-10.01l.215.205-6.077-.551-.135-.012-.052-.124a24.655,24.655,0,0,0-3.272-5.648l-.077-.1.052-.112c.926-2.015,1.761-3.83,2.55-5.544l.056.222-8.009-6.151.174,0-4.7,3.891-.047.039-.055-.023a25.618,25.618,0,0,0-4.725-1.466l-1.2-.228a2.581,2.581,0,0,1-.4-.079,2.886,2.886,0,0,1,.406.028c.269.032.675.081,1.215.179a23.913,23.913,0,0,1,4.781,1.382l-.1.016,4.652-3.951.085-.072.089.068,8.063,6.081.116.088-.06.134-2.513,5.562-.025-.21a24.977,24.977,0,0,1,3.361,5.727l-.187-.136,6.08.521.189.016.026.189,1.377,10,.028.2-.194.073-5.711,2.146.172-.218a24.987,24.987,0,0,1-1.691,6.438l-.044-.285,3.926,4.674.148.175-.139.183-6.107,8.04-.143.189-.216-.1-5.556-2.528.31-.036a25.008,25.008,0,0,1-5.756,3.36l.186-.254q-.263,3.009-.532,6.078l-.021.245-.244.033-10.007,1.361-.246.033-.087-.232q-.53-1.419-1.065-2.849l-.535-1.433-.269-.719-.134-.359-.067-.18-.033-.09-.017-.045-.008-.022,0-.011,0-.006c.5.4.139.11.251.2h0a25.05,25.05,0,0,1-6.439-1.7l.317-.049-4.68,3.92-.189.159-.2-.149-8.034-6.12-.193-.148.1-.221,2.536-5.553.036.309a25.2,25.2,0,0,1-3.352-5.758l.247.181-6.076-.542-.231-.02-.031-.229c-.468-3.475-.923-6.865-1.346-10.008l-.03-.22.208-.077,5.718-2.127-.172.218a24.975,24.975,0,0,1,1.71-6.431l.04.263-3.911-4.686-.126-.151.119-.155L638,111.137l.108-.141.16.073,5.548,2.548-.21.025a24.96,24.96,0,0,1,5.743-3.323l-.111.152c.2-2.189.39-4.234.56-6.075l.011-.126.125-.017,10.014-1.3.08-.01.027.074c.666,1.847,1.18,3.27,1.536,4.257.164.471.291.834.387,1.1A2.991,2.991,0,0,1,662.1,108.767Z" transform="translate(-628.285 -102.943)" fill="#455a64"/>
                    </g>
                  </g>
                </g>
              </g>
            </g>
          </g>
        </g>
      </g>
    </g>
  </g>
</svg>
