<svg width="136" height="39" viewBox="0 0 136 39" fill="none" xmlns="http://www.w3.org/2000/svg">
<path d="M2.12988 28.4489C8.4774 26.74 14.4477 23.4432 20.181 20.3123C23.1982 18.6645 29.9033 13.127 31.9073 17.9191C32.5149 19.3721 32.7974 25.8374 34.8817 24.7567C40.4298 21.8798 46.0824 17.5942 50.2661 12.9277C51.739 11.2848 51.2155 10.0524 51.7704 13.5431C52.7239 19.5425 53.3105 22.3672 57.0694 26.8421C60.2741 30.6572 64.0358 34.0538 68.3514 36.6198C69.5087 37.3079 70.6381 30.7984 71.1889 29.5429C72.5788 26.3753 73.0861 20.9229 77.2401 21.7823C82.8497 22.9429 87.0165 23.3118 92.8297 22.6028C94.3338 22.4194 98.8612 22.4336 100.454 21.4063C101.607 20.6623 100.939 18.7029 101.274 17.3721C102.234 13.5534 103.308 9.76475 104.419 5.98763C104.764 4.81537 105.034 1.47922 105.65 2.53468C108.1 6.73464 107.277 12.9972 109.206 17.5772C110.533 20.7289 119.206 20.8895 121.787 21.3721C124.695 21.9159 131.976 21.9892 133.821 24.7567" stroke="#308838" stroke-width="3" stroke-linecap="round"/>
</svg>
