<svg width="125" height="33" viewBox="0 0 125 33" fill="none" xmlns="http://www.w3.org/2000/svg">
<path d="M2.12988 24.7533C4.08457 24.2646 5.76207 22.4435 7.39478 21.3345C9.18114 20.1211 10.8522 19.9089 12.8648 19.2149C16.97 17.7993 18.9742 19.7475 20.181 23.796C20.4484 24.6931 20.8055 27.2768 22.369 27.1122C26.6889 26.6575 29.386 21.6819 31.292 18.3602C32.3549 16.5075 33.3753 14.625 34.1979 12.6508C34.5791 11.7359 34.7169 10.1327 34.7449 12.0355C34.7803 14.4426 34.8645 22.6277 38.9158 22.9071C40.7493 23.0336 43.2799 23.2313 44.9328 22.3601C46.63 21.4657 47.7757 19.5611 49.1037 18.2576C52.1467 15.2709 55.8246 13.4564 59.4968 11.3859C62.668 9.59785 65.7416 7.65571 68.7958 5.67655C69.9992 4.89675 71.3979 3.14475 72.6248 2.53129C74.4951 1.59617 78.7647 19.3356 79.2914 21.061C79.7214 22.4695 80.1953 27.9619 82.8469 27.078C86.3871 25.898 86.7863 22.3847 88.4195 19.6251C89.5788 17.6664 91.7673 14.9893 93.4793 13.5055C94.5693 12.5609 98.5182 15.261 98.7442 15.3858C107.269 20.097 115.212 25.6046 123.359 30.907" stroke="#ED2323" stroke-opacity="0.8" stroke-width="3" stroke-linecap="round"/>
</svg>
