<svg width="125" height="32" viewBox="0 0 125 32" fill="none" xmlns="http://www.w3.org/2000/svg">
<path d="M1.60596 23.9336C3.56064 23.4449 5.23814 21.6238 6.87086 20.5148C8.65721 19.3014 10.3283 19.0892 12.3409 18.3952C16.446 16.9796 18.4503 18.9278 19.657 22.9763C19.9244 23.8734 20.2816 26.4571 21.845 26.2925C26.1649 25.8378 28.8621 20.8622 30.768 17.5405C31.831 15.6878 32.8514 13.8053 33.674 11.8311C34.0552 10.9162 34.193 9.31301 34.221 11.2158C34.2564 13.6229 34.3406 21.808 38.3919 22.0874C40.2254 22.2139 42.756 22.4116 44.4089 21.5404C46.1061 20.646 47.2517 18.7414 48.5798 17.4379C51.6228 14.4512 55.3007 12.6367 58.9728 10.5662C62.1441 8.77815 65.2176 6.83601 68.2719 4.85685C69.4753 4.07705 70.874 2.32505 72.1009 1.71159C73.9711 0.776469 78.2408 18.5159 78.7675 20.2413C79.1975 21.6498 79.6714 27.1422 82.323 26.2583C85.8631 25.0783 86.2624 21.565 87.8956 18.8054C89.0548 16.8467 91.2433 14.1696 92.9554 12.6858C94.0453 11.7412 97.9943 14.4412 98.2203 14.5661C106.745 19.2773 114.688 24.7849 122.835 30.0873" stroke="#ED2323" stroke-opacity="0.8" stroke-width="3" stroke-linecap="round"/>
</svg>
