<svg width="106" height="81" viewBox="0 0 106 81" fill="none" xmlns="http://www.w3.org/2000/svg">
<rect x="0.5" y="0.5" width="105" height="80" stroke="#9F19AB"/>
<path d="M49.16 34.524C49.328 32.316 50.18 30.588 51.716 29.34C53.252 28.092 55.244 27.468 57.692 27.468C59.324 27.468 60.728 27.768 61.904 28.368C63.104 28.944 64.004 29.736 64.604 30.744C65.228 31.752 65.54 32.892 65.54 34.164C65.54 35.652 65.108 36.936 64.244 38.016C63.404 39.096 62.3 39.792 60.932 40.104V40.284C62.492 40.668 63.728 41.424 64.64 42.552C65.552 43.68 66.008 45.156 66.008 46.98C66.008 48.348 65.696 49.584 65.072 50.688C64.448 51.768 63.512 52.62 62.264 53.244C61.016 53.868 59.516 54.18 57.764 54.18C55.22 54.18 53.132 53.52 51.5 52.2C49.868 50.856 48.956 48.96 48.764 46.512H51.932C52.1 47.952 52.688 49.128 53.696 50.04C54.704 50.952 56.048 51.408 57.728 51.408C59.408 51.408 60.68 50.976 61.544 50.112C62.432 49.224 62.876 48.084 62.876 46.692C62.876 44.892 62.276 43.596 61.076 42.804C59.876 42.012 58.064 41.616 55.64 41.616H54.812V38.88H55.676C57.884 38.856 59.552 38.496 60.68 37.8C61.808 37.08 62.372 35.976 62.372 34.488C62.372 33.216 61.952 32.196 61.112 31.428C60.296 30.66 59.12 30.276 57.584 30.276C56.096 30.276 54.896 30.66 53.984 31.428C53.072 32.196 52.532 33.228 52.364 34.524H49.16Z" fill="white"/>
</svg>
