<svg width="124" height="124" viewBox="0 0 124 124" fill="none" xmlns="http://www.w3.org/2000/svg">
<circle cx="62" cy="62" r="62" fill="#9F19AB"/>
<path d="M50.88 53.032C51.104 50.088 52.24 47.784 54.288 46.12C56.336 44.456 58.992 43.624 62.256 43.624C64.432 43.624 66.304 44.024 67.872 44.824C69.472 45.592 70.672 46.648 71.472 47.992C72.304 49.336 72.72 50.856 72.72 52.552C72.72 54.536 72.144 56.248 70.992 57.688C69.872 59.128 68.4 60.056 66.576 60.472V60.712C68.656 61.224 70.304 62.232 71.52 63.736C72.736 65.24 73.344 67.208 73.344 69.64C73.344 71.464 72.928 73.112 72.096 74.584C71.264 76.024 70.016 77.16 68.352 77.992C66.688 78.824 64.688 79.24 62.352 79.24C58.96 79.24 56.176 78.36 54 76.6C51.824 74.808 50.608 72.28 50.352 69.016H54.576C54.8 70.936 55.584 72.504 56.928 73.72C58.272 74.936 60.064 75.544 62.304 75.544C64.544 75.544 66.24 74.968 67.392 73.816C68.576 72.632 69.168 71.112 69.168 69.256C69.168 66.856 68.368 65.128 66.768 64.072C65.168 63.016 62.752 62.488 59.52 62.488H58.416V58.84H59.568C62.512 58.808 64.736 58.328 66.24 57.4C67.744 56.44 68.496 54.968 68.496 52.984C68.496 51.288 67.936 49.928 66.816 48.904C65.728 47.88 64.16 47.368 62.112 47.368C60.128 47.368 58.528 47.88 57.312 48.904C56.096 49.928 55.376 51.304 55.152 53.032H50.88Z" fill="white"/>
</svg>
