<svg width="124" height="124" viewBox="0 0 124 124" fill="none" xmlns="http://www.w3.org/2000/svg">
<circle cx="62" cy="62" r="62" fill="#9F19AB"/>
<path d="M50.448 75.496C54.512 72.232 57.696 69.56 60 67.48C62.304 65.368 64.24 63.176 65.808 60.904C67.408 58.6 68.208 56.344 68.208 54.136C68.208 52.056 67.696 50.424 66.672 49.24C65.68 48.024 64.064 47.416 61.824 47.416C59.648 47.416 57.952 48.104 56.736 49.48C55.552 50.824 54.912 52.632 54.816 54.904H50.592C50.72 51.32 51.808 48.552 53.856 46.6C55.904 44.648 58.544 43.672 61.776 43.672C65.072 43.672 67.68 44.584 69.6 46.408C71.552 48.232 72.528 50.744 72.528 53.944C72.528 56.6 71.728 59.192 70.128 61.72C68.56 64.216 66.768 66.424 64.752 68.344C62.736 70.232 60.16 72.44 57.024 74.968H73.536V78.616H50.448V75.496Z" fill="white"/>
</svg>
