<svg width="303" height="262" viewBox="0 0 303 262" fill="none" xmlns="http://www.w3.org/2000/svg">
<path d="M75.3199 91.97L52.8799 104.2L90.6599 69.01L115.04 56.9L75.3199 91.97Z" fill="#541256"/>
<path opacity="0.3" d="M115.04 56.9L75.3199 91.97L52.8799 104.2L90.6599 69.01L115.04 56.9Z" fill="black"/>
<path d="M-1 0L52.88 104.2L68.36 89.79L-1 0Z" fill="#541256"/>
<path d="M181.91 150.31L142.3 173.18L196.2 124.8L231.05 108.37L181.91 150.31Z" fill="#541256"/>
<path opacity="0.3" d="M231.05 108.37L181.91 150.31L142.3 173.18L196.2 124.8L231.05 108.37Z" fill="black"/>
<path d="M168.12 150L142.3 173.18L90.6599 69.01L115.04 56.9L168.12 150Z" fill="#541256"/>
<path d="M288.14 208.4L231.02 108.37L196.2 124.76L248.53 231.23L233.73 239.78L292.43 261.93L302.96 199.8L288.14 208.4Z" fill="#541256"/>
</svg>
