<svg width="304" height="262" viewBox="0 0 304 262" fill="none" xmlns="http://www.w3.org/2000/svg">
<path d="M227.64 91.97L250.08 104.2L212.3 69.01L187.92 56.9L227.64 91.97Z" fill="#541256"/>
<path opacity="0.3" d="M187.92 56.9L227.64 91.97L250.08 104.2L212.3 69.01L187.92 56.9Z" fill="black"/>
<path d="M303.96 0L250.08 104.2L234.6 89.79L303.96 0Z" fill="#541256"/>
<path d="M121.05 150.31L160.66 173.18L106.76 124.8L71.9102 108.37L121.05 150.31Z" fill="#541256"/>
<path opacity="0.3" d="M71.9102 108.37L121.05 150.31L160.66 173.18L106.76 124.8L71.9102 108.37Z" fill="black"/>
<path d="M134.84 150L160.66 173.18L212.3 69.01L187.92 56.9L134.84 150Z" fill="#541256"/>
<path d="M14.8198 208.4L71.9398 108.37L106.76 124.76L54.4297 231.23L69.2298 239.78L10.5298 261.93L-0.000244141 199.8L14.8198 208.4Z" fill="#541256"/>
</svg>
