<svg width="111" height="116" viewBox="0 0 111 116" fill="none" xmlns="http://www.w3.org/2000/svg">
<ellipse cx="55.5" cy="58" rx="55.5" ry="58" fill="#0F0F0F"/>
<path d="M66.2143 55.75H64.8214V50.6875C64.8214 44.7953 60.8634 40 56 40C51.1366 40 47.1786 44.7953 47.1786 50.6875V55.75H45.7857C44.2478 55.75 43 57.2617 43 59.125V72.625C43 74.4883 44.2478 76 45.7857 76H66.2143C67.7522 76 69 74.4883 69 72.625V59.125C69 57.2617 67.7522 55.75 66.2143 55.75ZM60.1786 55.75H51.8214V50.6875C51.8214 47.8961 53.696 45.625 56 45.625C58.304 45.625 60.1786 47.8961 60.1786 50.6875V55.75Z" fill="#BA68C8"/>
</svg>
