<svg width="127" height="30" viewBox="0 0 127 30" fill="none" xmlns="http://www.w3.org/2000/svg">
<path d="M23.2275 8.17227H1.68747C0.109893 11.3917 -0.384952 15.1988 0.301886 18.8323C0.988723 22.4659 2.80662 25.6579 5.39205 27.7703C8.11935 27.2042 12.0058 25.8361 12.0058 22.6012C12.0058 18.8272 5.78978 17.54 6.15342 13.6918C6.50001 10.093 11.733 9.5134 11.733 9.5134C11.733 9.5134 8.98868 10.4502 9.1705 12.3641C9.44891 15.2418 18.8297 16.4077 19.3638 23.046C19.4533 24.3245 19.242 25.6074 18.7535 26.7519C18.265 27.8965 17.5184 28.8579 16.5967 29.5292C18.324 28.8051 19.8956 27.6384 21.1995 26.1119C22.5034 24.5855 23.5077 22.7369 24.1408 20.6978C24.7738 18.6587 25.0202 16.4791 24.8624 14.3142C24.7045 12.1492 24.1463 10.0522 23.2275 8.17227ZM5.43182 7.08723C5.43182 7.08723 9.69891 2.83471 10.5285 2.83471C11.358 2.83471 15.6422 7.08723 15.6422 7.08723H16.8922L14.2217 4.85651C14.2217 4.85651 14.7899 3.87931 15.3581 3.90627C15.9262 3.93322 19.1479 7.06702 19.1479 7.06702H22.6365C20.9198 4.1809 18.388 2.11992 15.5001 1.2577C13.5376 0.666631 11.483 0.653611 9.51524 1.21978C7.5475 1.78594 5.72629 2.91412 4.21022 4.50607C3.47698 5.2742 2.8211 6.14035 2.25565 7.08723H5.43182ZM53.1312 5.74611C53.1268 5.60001 53.0756 5.4614 52.9879 5.35866C52.9003 5.25592 52.7828 5.19683 52.6596 5.19348H49.938C49.8157 5.19851 49.6997 5.25835 49.6132 5.36092C49.5267 5.46348 49.4763 5.60114 49.472 5.74611L49.6936 7.28268V23.4975L49.472 25.0341C49.4749 25.1803 49.5247 25.3196 49.6113 25.4236C49.6979 25.5276 49.8148 25.5883 49.938 25.5935H52.6596C52.7837 25.59 52.902 25.53 52.9898 25.4258C53.0777 25.3217 53.1283 25.1814 53.1312 25.0341L52.9096 23.4975V7.28268L53.1312 5.74611ZM68.7847 8.6912L70.0972 8.94729C70.1586 8.9482 70.2196 8.93452 70.2764 8.90707C70.3333 8.87962 70.385 8.83895 70.4284 8.78745C70.4718 8.73595 70.5061 8.67467 70.5292 8.60721C70.5524 8.53976 70.5639 8.46749 70.5632 8.39467L70.3472 5.74611C70.3473 5.67239 70.3348 5.59941 70.3107 5.53146C70.2866 5.46352 70.2513 5.40199 70.2068 5.3505C70.1623 5.299 70.1096 5.25858 70.0518 5.23161C69.9939 5.20465 69.9321 5.19168 69.87 5.19348H59.6426C59.519 5.19348 59.4005 5.2517 59.3131 5.35534C59.2258 5.45898 59.1767 5.59954 59.1767 5.74611L59.3983 7.27594V23.5043L59.1767 25.0341C59.1759 25.1072 59.1874 25.1798 59.2105 25.2477C59.2336 25.3155 59.2678 25.3772 59.3111 25.4292C59.3545 25.4813 59.4061 25.5226 59.463 25.5508C59.5199 25.579 59.5809 25.5935 59.6426 25.5935H69.87C69.9941 25.5917 70.1126 25.532 70.1998 25.4273C70.287 25.3226 70.3359 25.1813 70.3359 25.0341L70.5518 22.3855C70.5518 22.239 70.5027 22.0984 70.4153 21.9948C70.328 21.8911 70.2094 21.8329 70.0859 21.8329L68.7847 22.0958H62.5915V16.9873H67.3756L68.6654 17.2502C68.788 17.2484 68.905 17.1894 68.9912 17.0859C69.0773 16.9825 69.1256 16.8429 69.1256 16.6975V13.7592C69.1228 13.6148 69.0736 13.4772 68.988 13.3745C68.9025 13.2717 68.7871 13.2117 68.6654 13.2066L67.3756 13.4694H62.5915V8.6912H68.7847ZM87.9042 23.5043L85.1031 17.3445C87.2395 16.3201 88.7395 14.1433 88.7395 11.4611C88.729 9.78745 88.1587 8.18723 87.1541 7.01202C86.1494 5.8368 84.7925 5.18272 83.3815 5.19348H76.12C75.9965 5.19348 75.878 5.2517 75.7906 5.35534C75.7032 5.45898 75.6541 5.59954 75.6541 5.74611L75.87 7.30289V23.4773L75.6541 25.0071C75.6534 25.0803 75.6649 25.1529 75.6879 25.2207C75.711 25.2885 75.7452 25.3502 75.7886 25.4023C75.8319 25.4543 75.8835 25.4956 75.9404 25.5238C75.9973 25.552 76.0584 25.5665 76.12 25.5665H78.8189C78.9421 25.5614 79.059 25.5006 79.1456 25.3966C79.2322 25.2926 79.282 25.1533 79.2848 25.0071L79.0689 23.4773V17.6073H81.8019L84.2906 23.4908L84.8588 25.3306C84.8969 25.4135 84.9538 25.482 85.0231 25.5285C85.0924 25.575 85.1713 25.5975 85.2508 25.5935H88.2679C88.3537 25.5996 88.4392 25.5774 88.515 25.5294C88.5908 25.4815 88.654 25.4096 88.6975 25.3217C88.741 25.2338 88.7632 25.1334 88.7615 25.0315C88.7599 24.9296 88.7346 24.8302 88.6883 24.7443L87.9042 23.5043ZM83.1144 14.487H79.1087V8.6912H83.1144C83.7498 8.69446 84.359 8.99113 84.813 9.5183C85.267 10.0455 85.53 10.7617 85.5463 11.515C85.5466 12.2883 85.2927 13.0312 84.8387 13.5862C84.3846 14.1411 83.7661 14.4642 83.1144 14.487ZM126.944 24.8319L126.211 23.4841L119.16 5.22044C119.128 5.12139 119.069 5.03724 118.994 4.98027C118.918 4.92329 118.829 4.89646 118.74 4.90369H118.495C118.408 4.90179 118.321 4.93089 118.247 4.98729C118.174 5.04368 118.116 5.12483 118.081 5.22044L110.956 23.511L110.223 24.8589C110.184 24.9402 110.165 25.0325 110.167 25.1258C110.17 25.2191 110.193 25.3098 110.236 25.3882C110.279 25.4666 110.339 25.5297 110.41 25.5706C110.48 25.6115 110.559 25.6288 110.637 25.6204H113.433C113.589 25.6221 113.741 25.5667 113.869 25.4617C113.997 25.3568 114.095 25.2074 114.149 25.0341L114.28 23.5312L114.91 21.8868H122.257L122.882 23.5245L123.018 25.0341C123.066 25.211 123.161 25.3643 123.289 25.4704C123.418 25.5764 123.572 25.6291 123.728 25.6204H126.53C126.608 25.6288 126.687 25.6115 126.758 25.5706C126.828 25.5297 126.888 25.4666 126.931 25.3882C126.974 25.3098 126.997 25.2191 127 25.1258C127.002 25.0325 126.983 24.9402 126.944 24.8589M116.115 18.6587L118.518 12.2428H118.598L121.052 18.6587H116.115ZM106.268 23.5043L103.467 17.3445C105.609 16.3201 107.103 14.1433 107.103 11.4611C107.093 9.78745 106.523 8.18723 105.518 7.01202C104.513 5.8368 103.156 5.18272 101.745 5.19348H94.5009C94.3773 5.19348 94.2588 5.2517 94.1714 5.35534C94.0841 5.45898 94.035 5.59954 94.035 5.74611L94.2566 7.30289V23.4773L94.035 25.0071C94.0342 25.0803 94.0457 25.1529 94.0688 25.2207C94.0919 25.2885 94.1261 25.3502 94.1694 25.4023C94.2128 25.4543 94.2644 25.4956 94.3213 25.5238C94.3782 25.552 94.4392 25.5665 94.5009 25.5665H97.2055C97.3286 25.5614 97.4455 25.5006 97.5321 25.3966C97.6187 25.2926 97.6686 25.1533 97.6714 25.0071L97.4498 23.4773V17.6073H100.177L102.666 23.4908L103.234 25.3306C103.273 25.413 103.33 25.4811 103.399 25.5275C103.468 25.5738 103.547 25.5967 103.626 25.5935H106.649C106.734 25.5982 106.819 25.5751 106.894 25.5266C106.969 25.4781 107.031 25.4061 107.074 25.3185C107.117 25.2309 107.138 25.131 107.137 25.0297C107.135 24.9284 107.109 24.8297 107.064 24.7443L106.268 23.5043ZM101.478 14.487H97.5009V8.6912H101.478C102.114 8.69446 102.723 8.99113 103.177 9.5183C103.631 10.0455 103.894 10.7617 103.91 11.515C103.91 12.2883 103.657 13.0312 103.202 13.5862C102.748 14.1411 102.13 14.4642 101.478 14.487ZM38.9947 13.7255C37.0458 12.782 36.1537 11.8722 36.1537 10.531C36.1537 9.61449 36.898 8.50924 38.2674 8.50924C38.8869 8.51967 39.4976 8.68608 40.0588 8.99745C40.6201 9.30881 41.1192 9.75804 41.5231 10.3154C41.6731 10.4015 41.8458 10.4137 42.0033 10.3493C42.1609 10.2849 42.2906 10.1491 42.364 9.97167L43.3697 8.10488C43.4501 7.95515 43.4802 7.77503 43.4539 7.60026C43.4275 7.42548 43.3468 7.26883 43.2277 7.16137C41.8239 5.96083 40.1453 5.2956 38.4151 5.25413C34.5912 5.25413 33.006 8.19249 33.006 10.7332C33.006 14.1029 35.2787 15.8079 37.5515 16.893C39.5685 17.8634 40.6026 18.8609 40.6026 20.3166C40.6026 21.5431 39.6651 22.5136 38.4151 22.5136C37.7416 22.5418 37.0727 22.372 36.468 22.0192C35.8632 21.6665 35.3415 21.1417 34.9492 20.4918C34.8855 20.4387 34.8133 20.4017 34.737 20.3831C34.6608 20.3645 34.5821 20.3647 34.5059 20.3837C34.4297 20.4026 34.3576 20.44 34.2941 20.4933C34.2306 20.5467 34.177 20.615 34.1367 20.694L33.0969 22.7158C32.881 23.174 33.0003 23.3156 33.2219 23.5649C34.6864 25.0693 36.5753 25.8634 38.5117 25.7889C41.9208 25.7889 44.0458 23.0932 44.0458 20.1481C44.0458 16.4617 41.3526 14.8105 39.0174 13.6985" fill="white" fill-opacity="0.7"/>
</svg>
