<svg width="198" height="32" viewBox="0 0 198 32" fill="none" xmlns="http://www.w3.org/2000/svg">
<path d="M17 0L20.8167 11.0557H33.168L23.1756 17.8885L26.9923 28.9443L17 22.1115L7.00765 28.9443L10.8244 17.8885L0.832039 11.0557H13.1833L17 0Z" fill="#FFC978"/>
<path d="M58 0L61.8167 11.0557H74.168L64.1756 17.8885L67.9923 28.9443L58 22.1115L48.0077 28.9443L51.8244 17.8885L41.832 11.0557H54.1833L58 0Z" fill="#FFC978"/>
<path d="M99 0L102.817 11.0557H115.168L105.176 17.8885L108.992 28.9443L99 22.1115L89.0077 28.9443L92.8244 17.8885L82.832 11.0557H95.1833L99 0Z" fill="#FFC978"/>
<path d="M140 0L143.817 11.0557H156.168L146.176 17.8885L149.992 28.9443L140 22.1115L130.008 28.9443L133.824 17.8885L123.832 11.0557H136.183L140 0Z" fill="#FFC978"/>
<path d="M181 0L184.817 11.0557H197.168L187.176 17.8885L190.992 28.9443L181 22.1115L171.008 28.9443L174.824 17.8885L164.832 11.0557H177.183L181 0Z" fill="#FFC978"/>
</svg>
