<svg xmlns="http://www.w3.org/2000/svg" width="706.774" height="500.767" viewBox="0 0 706.774 500.767">
  <g id="Group_43601" data-name="Group 43601" transform="translate(-874 -429)">
    <g id="Group_43600" data-name="Group 43600" transform="translate(874 429)">
      <g id="Background_Complete" data-name="Background Complete" transform="translate(0 31.727)">
        <g id="Group_43420" data-name="Group 43420">
          <g id="Group_43382" data-name="Group 43382" transform="translate(87.445 144.112)">
            <g id="Group_43360" data-name="Group 43360">
              <g id="Group_43359" data-name="Group 43359">
                <path id="Path_87589" data-name="Path 87589" d="M211.136,192.41s-6.431-5.267-16.527,10.37S180.351,227.6,180.351,227.6s-2.576,3.229-4.718.727-4.739-9.245-8.893-8.5c-4.308.769-6.165,5.3-6.07,12.245s-.254,22.171-.291,23.547c-.036,1.351-1.007,3.249-2.74,1.778s-11.234-14.512-17.152-9.633-2.473,24.186-2.136,26.3-.157,2.957-1.189,3.367-3.812-4.275-6.666-7.873-6.794-7.271-9.974-4.169S115,282.475,126.05,306.707l5.857,10.893,12.409.579c26.632-.38,38.263-8.484,39.706-12.684s-3.564-6.189-8.036-7.229-9.9-1.548-9.969-2.656.477-1.913,2.535-2.516,20.981-5.752,22.858-13.188-13.976-10.444-16.047-11.38-.771-2.626.434-3.236c1.228-.623,14.84-7.455,21.158-10.341s9.618-6.5,8.469-10.725c-1.109-4.073-8.313-3.533-11.492-4.4s-1.363-4.576-1.363-4.576,6.524-7.691,16.335-23.51S211,192.312,211,192.312" transform="translate(-117.879 -191.557)" fill="#ebebeb"/>
              </g>
            </g>
            <g id="Group_43363" data-name="Group 43363" transform="translate(11.833 14.841)">
              <g id="Group_43362" data-name="Group 43362">
                <g id="Group_43361" data-name="Group 43361">
                  <path id="Path_87590" data-name="Path 87590" d="M128.176,317.686c7.251-11.588,20.486-31.969,31.757-49.524s21.454-33.449,28.762-45l8.643-13.688,2.352-3.72q.4-.619.619-.963c.143-.215.223-.321.223-.321s-.059.12-.19.342l-.587.983-2.291,3.758c-1.994,3.262-4.911,7.961-8.539,13.754-7.251,11.588-17.4,27.511-28.669,45.062s-24.54,37.911-31.85,49.461" transform="translate(-128.176 -204.471)" fill="#e0e0e0"/>
                </g>
              </g>
            </g>
            <g id="Group_43366" data-name="Group 43366" transform="translate(52.102 37.848)">
              <g id="Group_43365" data-name="Group 43365">
                <g id="Group_43364" data-name="Group 43364">
                  <path id="Path_87591" data-name="Path 87591" d="M163.227,224.492a3.969,3.969,0,0,1,.225.866c.123.562.276,1.38.456,2.391.355,2.024.776,4.832,1.184,7.94.391,3.065.745,5.837,1.015,7.957.128.955.236,1.76.322,2.409a4.084,4.084,0,0,1,.085.891,3.947,3.947,0,0,1-.232-.865c-.121-.562-.275-1.38-.444-2.394-.336-2.028-.719-4.84-1.126-7.948-.414-3.06-.786-5.829-1.072-7.946-.132-.955-.245-1.76-.334-2.409A4.105,4.105,0,0,1,163.227,224.492Z" transform="translate(-163.218 -224.492)" fill="#e0e0e0"/>
                </g>
              </g>
            </g>
            <g id="Group_43369" data-name="Group 43369" transform="translate(56.504 55.997)">
              <g id="Group_43368" data-name="Group 43368">
                <g id="Group_43367" data-name="Group 43367">
                  <path id="Path_87592" data-name="Path 87592" d="M167.049,244.924c-.018-.1,5.733-1.226,12.844-2.5s12.895-2.232,12.913-2.127-5.731,1.226-12.845,2.505S167.069,245.029,167.049,244.924Z" transform="translate(-167.049 -240.285)" fill="#e0e0e0"/>
                </g>
              </g>
            </g>
            <g id="Group_43372" data-name="Group 43372" transform="translate(37.983 86.8)">
              <g id="Group_43371" data-name="Group 43371">
                <g id="Group_43370" data-name="Group 43370">
                  <path id="Path_87593" data-name="Path 87593" d="M150.932,267.1a4.322,4.322,0,0,1,.912.052l2.468.262c2.083.217,4.962.506,8.15.707s6.081.3,8.176.346l2.481.059a4.215,4.215,0,0,1,.911.065,4.178,4.178,0,0,1-.91.084c-.586.029-1.435.054-2.484.063-2.1.022-5-.024-8.2-.233s-6.08-.534-8.159-.822c-1.039-.148-1.879-.277-2.456-.383A4.128,4.128,0,0,1,150.932,267.1Z" transform="translate(-150.932 -267.09)" fill="#e0e0e0"/>
                </g>
              </g>
            </g>
            <g id="Group_43375" data-name="Group 43375" transform="translate(29.47 67.074)">
              <g id="Group_43374" data-name="Group 43374">
                <g id="Group_43373" data-name="Group 43373">
                  <path id="Path_87594" data-name="Path 87594" d="M143.527,249.925a3.559,3.559,0,0,1,.411.738q.4.845.991,2.07c.822,1.755,1.932,4.19,3.136,6.888s2.278,5.153,3.035,6.935q.521,1.253.88,2.12a3.5,3.5,0,0,1,.274.8,3.615,3.615,0,0,1-.41-.738l-.992-2.07c-.821-1.755-1.932-4.19-3.137-6.89s-2.276-5.151-3.034-6.934c-.347-.834-.64-1.543-.879-2.119A3.59,3.59,0,0,1,143.527,249.925Z" transform="translate(-143.524 -249.925)" fill="#e0e0e0"/>
                </g>
              </g>
            </g>
            <g id="Group_43378" data-name="Group 43378" transform="translate(10.183 88.105)">
              <g id="Group_43377" data-name="Group 43377">
                <g id="Group_43376" data-name="Group 43376">
                  <path id="Path_87595" data-name="Path 87595" d="M126.743,268.226a5.823,5.823,0,0,1,.517.948c.333.691.764,1.58,1.28,2.649,1.065,2.243,2.513,5.352,4.09,8.8s2.987,6.573,3.989,8.845c.471,1.089.864,2,1.169,2.7a5.842,5.842,0,0,1,.38,1.01,5.72,5.72,0,0,1-.516-.948c-.333-.691-.763-1.58-1.28-2.648-1.065-2.243-2.513-5.353-4.091-8.8s-2.986-6.572-3.988-8.844l-1.169-2.7A5.831,5.831,0,0,1,126.743,268.226Z" transform="translate(-126.741 -268.226)" fill="#e0e0e0"/>
                </g>
              </g>
            </g>
            <g id="Group_43381" data-name="Group 43381" transform="translate(21.507 112.367)">
              <g id="Group_43380" data-name="Group 43380">
                <g id="Group_43379" data-name="Group 43379">
                  <path id="Path_87596" data-name="Path 87596" d="M136.594,289.352a6.633,6.633,0,0,1,1.157.036l3.141.218c2.652.182,6.317.418,10.369.565s7.725.2,10.383.207l3.149.016a6.621,6.621,0,0,1,1.156.051,6.723,6.723,0,0,1-1.153.1c-.743.04-1.819.079-3.15.106-2.66.057-6.34.059-10.4-.094s-7.727-.428-10.376-.679c-1.325-.129-2.395-.244-3.134-.34A6.939,6.939,0,0,1,136.594,289.352Z" transform="translate(-136.594 -289.338)" fill="#e0e0e0"/>
                </g>
              </g>
            </g>
          </g>
          <g id="Group_43389" data-name="Group 43389" transform="translate(0 147.742)">
            <g id="Group_43387" data-name="Group 43387">
              <g id="Group_43384" data-name="Group 43384">
                <g id="Group_43383" data-name="Group 43383">
                  <path id="Path_87597" data-name="Path 87597" d="M121.225,235.767a33.082,33.082,0,0,1-.321,5.665,41.2,41.2,0,0,1-5.165,15.206l-.12-.208h.249l-.118.209L83.564,313.72l-.2.357-.218-.348c-10.242-16.339-21.816-34.8-34.026-54.277l-1.673-2.672-.26-.415.49,0h0l-.233.406a41.713,41.713,0,0,1-5.128-14.338,39.7,39.7,0,0,1-.51-7.46q.1-1.853.2-3.692.276-1.822.548-3.627a41.847,41.847,0,0,1,13.89-23.75,40.25,40.25,0,0,1,11.194-6.579l1.48-.552.737-.275.755-.2,3-.781a41.829,41.829,0,0,1,6-.727,40.333,40.333,0,0,1,5.833.1c.952.076,1.881.282,2.809.414l1.382.223c.454.1.9.233,1.341.347l2.634.714,2.5.952c.409.162.825.3,1.223.48l1.162.581,2.278,1.153a41.251,41.251,0,0,1,13.218,12.2,42.006,42.006,0,0,1,5.758,12.321,37.3,37.3,0,0,1,1.015,4.868,26.918,26.918,0,0,1,.385,3.62q.05,1.457.077,2.237c.015.5.008.761.008.761s-.03-.257-.062-.761-.074-1.262-.131-2.231a27.776,27.776,0,0,0-.434-3.6,37.866,37.866,0,0,0-1.057-4.836,42.121,42.121,0,0,0-5.8-12.208,41.056,41.056,0,0,0-13.158-12.042l-2.26-1.132-1.151-.573c-.394-.174-.807-.311-1.212-.47l-2.473-.935-2.61-.7c-.44-.111-.878-.247-1.327-.34l-1.368-.216c-.918-.128-1.838-.329-2.779-.4a39.8,39.8,0,0,0-5.769-.088,41.5,41.5,0,0,0-5.926.732l-2.961.779-.746.2-.726.272-1.462.548a39.855,39.855,0,0,0-11.046,6.518,41.39,41.39,0,0,0-13.691,23.472q-.267,1.782-.538,3.581-.1,1.817-.2,3.647a39.182,39.182,0,0,0,.508,7.366A41.205,41.205,0,0,0,47.909,256.5l.238.407h-.473l.229-.413,1.673,2.671,33.983,54.3-.421.009L115.51,256.5l.121.207h-.252l.122-.209a41.632,41.632,0,0,0,5.259-15.086c.264-1.832.34-3.249.4-4.2.017-.465.03-.822.04-1.079S121.225,235.767,121.225,235.767Z" transform="translate(-41.785 -194.715)" fill="#e0e0e0"/>
                </g>
              </g>
              <g id="Group_43386" data-name="Group 43386" transform="translate(14.428 15.179)">
                <g id="Group_43385" data-name="Group 43385">
                  <path id="Path_87598" data-name="Path 87598" d="M104.913,233.342a2.313,2.313,0,0,1-.047-.407c-.021-.3-.049-.691-.084-1.193-.017-.265-.036-.557-.055-.878-.036-.322-.1-.67-.162-1.049a18.363,18.363,0,0,0-.525-2.591,24.016,24.016,0,0,0-2.78-6.658,24.933,24.933,0,0,0-29.922-10.7,22.808,22.808,0,0,0-6.307,3.376,22.786,22.786,0,0,0-5.275,5.272,24.13,24.13,0,0,0-3.574,6.848,24.676,24.676,0,0,0-.041,15.7,24.109,24.109,0,0,0,3.539,6.867,22.727,22.727,0,0,0,5.248,5.3,22.871,22.871,0,0,0,6.291,3.408A25,25,0,0,0,101.2,246.1a24.014,24.014,0,0,0,2.812-6.643,18.4,18.4,0,0,0,.539-2.588c.059-.379.13-.727.167-1.048l.06-.878c.038-.5.068-.9.09-1.192a2.271,2.271,0,0,1,.049-.407,2.382,2.382,0,0,1,.006.408c-.009.3-.022.693-.037,1.2l-.033.885c-.029.323-.092.675-.142,1.057a17.875,17.875,0,0,1-.494,2.617,23.785,23.785,0,0,1-2.757,6.747,25.313,25.313,0,0,1-17.073,11.963,25.409,25.409,0,0,1-13.334-1.1,23.357,23.357,0,0,1-6.427-3.461,23.252,23.252,0,0,1-5.368-5.4,24.6,24.6,0,0,1-3.622-7.011,25.162,25.162,0,0,1,.043-16.043,24.59,24.59,0,0,1,3.658-6.99,23.252,23.252,0,0,1,5.393-5.375,23.361,23.361,0,0,1,6.445-3.428,25.412,25.412,0,0,1,13.338-1.037,25.324,25.324,0,0,1,17.012,12.048,23.828,23.828,0,0,1,2.724,6.762,17.722,17.722,0,0,1,.48,2.62c.049.383.111.733.137,1.057s.021.618.03.885c.013.506.023.9.031,1.2A2.334,2.334,0,0,1,104.913,233.342Z" transform="translate(-54.34 -207.923)" fill="#e0e0e0"/>
                </g>
              </g>
            </g>
            <g id="Group_43388" data-name="Group 43388" transform="translate(24.729 27.729)">
              <path id="Path_87599" data-name="Path 87599" d="M77.925,243.422l-14.62-10.2,3.56-5.1,9.8,6.84L89.35,218.845l4.888,3.847Z" transform="translate(-63.304 -218.845)" fill="#e0e0e0"/>
            </g>
          </g>
          <g id="Group_43397" data-name="Group 43397" transform="translate(383.041)">
            <g id="Group_43396" data-name="Group 43396">
              <g id="Group_43395" data-name="Group 43395">
                <g id="Group_43394" data-name="Group 43394">
                  <g id="Group_43393" data-name="Group 43393">
                    <g id="Group_43392" data-name="Group 43392">
                      <g id="Group_43391" data-name="Group 43391">
                        <g id="Group_43390" data-name="Group 43390">
                          <path id="Path_87600" data-name="Path 87600" d="M440.584,77.316A48.407,48.407,0,0,1,453.019,80.6l9.14-7.66,15.7,11.95-4.946,10.852a48.317,48.317,0,0,1,6.48,11.112l11.875,1.046,2.651,19.552-11.165,4.174a48.216,48.216,0,0,1-3.287,12.437l7.66,9.14-11.948,15.7-10.852-4.946a48.367,48.367,0,0,1-11.115,6.478l-1.043,11.875-19.554,2.655L428.444,173.8a48.254,48.254,0,0,1-12.436-3.285l-9.143,7.661-15.7-11.95,4.949-10.853a48.42,48.42,0,0,1-6.48-11.111l-11.873-1.047-2.653-19.552,11.166-4.173a48.223,48.223,0,0,1,3.285-12.439l-7.661-9.14,11.948-15.7L404.7,87.157a48.322,48.322,0,0,1,11.114-6.479L416.857,68.8l19.551-2.653,4.176,11.166Zm-5.864,26.962A21.17,21.17,0,1,0,455.98,120.47,21.175,21.175,0,0,0,434.72,104.278Z" transform="translate(-375.107 -66.15)" fill="#f5f5f5" fill-rule="evenodd"/>
                        </g>
                      </g>
                    </g>
                  </g>
                </g>
              </g>
            </g>
          </g>
          <g id="Group_43405" data-name="Group 43405" transform="translate(227.965 66.43)">
            <g id="Group_43404" data-name="Group 43404">
              <g id="Group_43403" data-name="Group 43403">
                <g id="Group_43402" data-name="Group 43402">
                  <g id="Group_43401" data-name="Group 43401">
                    <g id="Group_43400" data-name="Group 43400">
                      <g id="Group_43399" data-name="Group 43399">
                        <g id="Group_43398" data-name="Group 43398">
                          <path id="Path_87601" data-name="Path 87601" d="M282.663,131.2a31.409,31.409,0,0,1,8.073,2.132l5.933-4.972,10.192,7.757-3.211,7.044a31.409,31.409,0,0,1,4.206,7.213l7.71.679,1.72,12.691-7.248,2.71a31.306,31.306,0,0,1-2.133,8.073l4.972,5.934-7.756,10.191-7.044-3.211a31.44,31.44,0,0,1-7.214,4.206l-.678,7.709-12.694,1.723-2.709-7.249a31.319,31.319,0,0,1-8.073-2.133l-5.934,4.974-10.192-7.758,3.212-7.044a31.467,31.467,0,0,1-4.206-7.212l-7.707-.68-1.723-12.691,7.249-2.709a31.267,31.267,0,0,1,2.133-8.074l-4.974-5.934,7.756-10.191,7.046,3.212a31.386,31.386,0,0,1,7.213-4.207l.679-7.707,12.691-1.721,2.71,7.248Zm-3.806,17.5a13.742,13.742,0,1,0,13.8,10.51A13.745,13.745,0,0,0,278.857,148.706Z" transform="translate(-240.16 -123.957)" fill="#ebebeb" fill-rule="evenodd"/>
                        </g>
                      </g>
                    </g>
                  </g>
                </g>
              </g>
            </g>
          </g>
          <g id="Group_43416" data-name="Group 43416" transform="translate(302.795 122.997)">
            <g id="Group_43410" data-name="Group 43410" transform="translate(40.694 40.381)">
              <g id="Group_43409" data-name="Group 43409">
                <g id="Group_43408" data-name="Group 43408">
                  <g id="Group_43407" data-name="Group 43407">
                    <g id="Group_43406" data-name="Group 43406">
                      <path id="Path_87602" data-name="Path 87602" d="M374.162,211.388a16.78,16.78,0,0,1,4.589,3.034,22.1,22.1,0,0,1,7.113,13.075,22.382,22.382,0,0,1-.786,10.419,22.724,22.724,0,0,1-6.561,10.04,22.736,22.736,0,0,1-12.044,5.506,22.652,22.652,0,0,1-23.66-12.978,22.741,22.741,0,0,1-1.831-13.118,22.735,22.735,0,0,1,4.943-10.931,22.392,22.392,0,0,1,8.365-6.261,22.107,22.107,0,0,1,14.848-1.026,16.785,16.785,0,0,1,5.024,2.239c-.065.144-1.757-.909-5.148-1.758A22.132,22.132,0,0,0,354.655,211a21.69,21.69,0,0,0-12.512,16.547,21.689,21.689,0,0,0,1.8,12.412,21.511,21.511,0,0,0,22.364,12.267,21.694,21.694,0,0,0,11.433-5.151,21.694,21.694,0,0,0,7.232-19.443,22.128,22.128,0,0,0-6.561-12.846C375.874,212.382,374.077,211.521,374.162,211.388Z" transform="translate(-340.689 -208.322)" fill="#ebebeb"/>
                    </g>
                  </g>
                </g>
              </g>
            </g>
            <g id="Group_43415" data-name="Group 43415">
              <g id="Group_43414" data-name="Group 43414">
                <g id="Group_43413" data-name="Group 43413">
                  <g id="Group_43412" data-name="Group 43412">
                    <g id="Group_43411" data-name="Group 43411">
                      <path id="Path_87603" data-name="Path 87603" d="M403.144,198.736a4.782,4.782,0,0,1,.17-.761c.148-.562.347-1.316.6-2.29l2.472-9.027.1.233-18.2-9.848.4-.069-8.249,9.4-.148.17-.222-.054a50.62,50.62,0,0,0-13.314-1.409l-.253.007-.124-.223c-1.9-3.4-3.96-7.09-6.1-10.923l.524.215-19.854,5.839.36-.513c.244,3.866.511,8.122.786,12.487l.021.317-.275.165a50.347,50.347,0,0,0-10.4,8.37l-.229.242-.322-.092c-3.728-1.063-7.84-2.233-12.026-3.426l.654-.273c-3.12,5.7-6.484,11.856-9.932,18.16l-.126-.73,9.371,8.279.273.241-.087.357a50.5,50.5,0,0,0-1.435,13.253l.01.372-.328.182-10.938,6.076.3-.721c1.836,6.291,3.8,13.033,5.8,19.868l-.647-.455,12.489-.764.385-.023.2.33a50.171,50.171,0,0,0,8.328,10.385l0,0,0,0c.078.285-.171-.634.175.639l0,.011-.007.024-.013.047-.028.094-.054.19-.109.379-.216.756-.433,1.511-.864,3.015-1.717,5.993-.306-.733,18.146,9.96-.776.134,8.29-9.361.252-.284.368.091a50.147,50.147,0,0,0,13.249,1.456L369.5,286l.18.326,6.061,10.945-.7-.288,19.874-5.772-.421.6q-.381-6.355-.747-12.488l-.021-.346.3-.178a50.232,50.232,0,0,0,10.423-8.333l.231-.242.321.092,12.014,3.462-.61.255,9.993-18.126.1.6-9.345-8.311-.207-.185.067-.268a50.5,50.5,0,0,0,1.488-13.295l-.006-.255.221-.122,10.96-6.031-.178.434c-2.21-7.707-4.093-14.275-5.706-19.9l.292.206-12.491.68-.125.007-.063-.106a52.545,52.545,0,0,0-6-8.172l-1.707-1.842a5.178,5.178,0,0,1-.56-.617,6.476,6.476,0,0,1,.635.542c.4.38,1.014.957,1.786,1.774a49.079,49.079,0,0,1,6.2,8.1l-.188-.1,12.482-.842.226-.015.066.221c1.662,5.608,3.6,12.157,5.879,19.845l.085.288-.264.147-10.918,6.105.215-.377a51.152,51.152,0,0,1-1.438,13.535l-.14-.452,9.385,8.265.292.257-.187.344c-3.136,5.742-6.431,11.775-9.92,18.166l-.2.37-.408-.116L404.7,271.377l.55-.151a51.234,51.234,0,0,1-10.632,8.551l.276-.523q.381,6.131.776,12.486l.03.468-.452.132-19.861,5.811-.465.137-.237-.425q-3-5.392-6.078-10.933l.554.316a51.291,51.291,0,0,1-13.579-1.475l.617-.192-8.282,9.369-.333.378-.442-.242-18.152-9.951-.446-.244.14-.49,1.717-5.994.863-3.014.433-1.511.216-.757.109-.378.054-.19.026-.094.014-.047.007-.024,0-.011c.347,1.271.1.35.171.634l0,0,0,0a51.383,51.383,0,0,1-8.538-10.65l.583.306-12.488.76-.506.03-.142-.485c-1.989-6.838-3.952-13.582-5.783-19.874l-.139-.479.436-.242,10.946-6.061-.317.554a51.617,51.617,0,0,1,1.492-13.573l.186.6-9.354-8.3-.355-.315.228-.415,9.977-18.135.218-.4.437.125,12.015,3.461-.548.149a51.255,51.255,0,0,1,10.653-8.514l-.253.482c-.257-4.365-.509-8.622-.737-12.489l-.024-.4.384-.111,19.882-5.746.35-.1.174.316,6.039,10.958-.376-.216a51.216,51.216,0,0,1,13.514,1.52l-.369.116,8.325-9.331.172-.194.225.125,18.088,10.059.145.08-.047.154c-1.151,3.855-2.039,6.827-2.656,8.888-.3.977-.533,1.731-.708,2.294A5.887,5.887,0,0,1,403.144,198.736Z" transform="translate(-305.277 -173.182)" fill="#ebebeb"/>
                    </g>
                  </g>
                </g>
              </g>
            </g>
          </g>
          <g id="Group_43419" data-name="Group 43419" transform="translate(431.286 96.408)">
            <g id="Group_43417" data-name="Group 43417">
              <path id="Path_87604" data-name="Path 87604" d="M435.123,222.967,417.09,151.256l73.371-1.212Z" transform="translate(-417.09 -150.044)" fill="#ebebeb"/>
            </g>
            <g id="Group_43418" data-name="Group 43418" transform="translate(26.044 13.932)">
              <rect id="Rectangle_7497" data-name="Rectangle 7497" width="41.693" height="168.605" transform="matrix(0.604, -0.797, 0.797, 0.604, 0, 33.213)" fill="#ebebeb"/>
            </g>
          </g>
        </g>
      </g>
      <g id="Character" transform="translate(524.065 60.711)">
        <g id="Group_43573" data-name="Group 43573">
          <path id="Path_87605" data-name="Path 87605" d="M548.01,374.107l9.32,21.131s-18.349,16.571-17.006,20.644l41.621-16.6-13.171-33.521Z" transform="translate(-491.497 -50.443)" fill="#e8505b"/>
          <path id="Path_87606" data-name="Path 87606" d="M548.01,374.107l9.32,21.131s-18.349,16.571-17.006,20.644l41.621-16.6-13.171-33.521Z" transform="translate(-491.497 -50.443)" opacity="0.5"/>
          <path id="Path_87607" data-name="Path 87607" d="M581.961,395.363l-1.459-3.327L541.142,409.2s-1.532,1.546-.8,2.767Z" transform="translate(-491.514 -46.524)" fill="#263238"/>
          <path id="Path_87608" data-name="Path 87608" d="M611.175,400.455l11.666,19.931S606.5,438.94,608.3,442.833L647.757,421.6l-16.9-31.8Z" transform="translate(-481.368 -46.858)" fill="#e8505b"/>
          <path id="Path_87609" data-name="Path 87609" d="M611.175,400.455l11.666,19.931S606.5,438.94,608.3,442.833L647.757,421.6l-16.9-31.8Z" transform="translate(-481.368 -46.858)" opacity="0.5"/>
          <path id="Path_87610" data-name="Path 87610" d="M647.776,417.879l-1.828-3.138L608.8,436.273s-1.346,1.709-.481,2.84Z" transform="translate(-481.388 -43.137)" fill="#263238"/>
          <g id="Group_43501" data-name="Group 43501" transform="translate(31.63)">
            <g id="Group_43497" data-name="Group 43497" transform="translate(5.921 12.809)">
              <g id="Group_43433" data-name="Group 43433">
                <g id="Group_43432" data-name="Group 43432">
                  <g id="Group_43431" data-name="Group 43431">
                    <g id="Group_43425" data-name="Group 43425">
                      <g id="Group_43424" data-name="Group 43424">
                        <g id="Group_43423" data-name="Group 43423">
                          <g id="Group_43422" data-name="Group 43422">
                            <g id="Group_43421" data-name="Group 43421">
                              <path id="Path_87611" data-name="Path 87611" d="M571.843,163.719l-25.577,1.993-.849-14.32s-10.317-.151-11.861-10.228-3.053-33.5-3.053-33.5h0a35.426,35.426,0,0,1,35.875-.525l1.658.941Z" transform="translate(-530.503 -102.518)" fill="#ffbe9d"/>
                            </g>
                          </g>
                        </g>
                      </g>
                    </g>
                    <g id="Group_43430" data-name="Group 43430" transform="translate(14.877 43.14)">
                      <g id="Group_43429" data-name="Group 43429">
                        <g id="Group_43428" data-name="Group 43428">
                          <g id="Group_43427" data-name="Group 43427">
                            <g id="Group_43426" data-name="Group 43426">
                              <path id="Path_87612" data-name="Path 87612" d="M543.449,145.649a23.7,23.7,0,0,0,12.634-5.591s-2.236,7.926-12.437,8.433Z" transform="translate(-543.449 -140.058)" fill="#eb996e"/>
                            </g>
                          </g>
                        </g>
                      </g>
                    </g>
                  </g>
                </g>
              </g>
              <g id="Group_43445" data-name="Group 43445" transform="translate(37.759 15.493)">
                <g id="Group_43438" data-name="Group 43438">
                  <g id="Group_43437" data-name="Group 43437">
                    <g id="Group_43436" data-name="Group 43436">
                      <g id="Group_43435" data-name="Group 43435">
                        <g id="Group_43434" data-name="Group 43434">
                          <path id="Path_87613" data-name="Path 87613" d="M563.361,116.7c.162-.1,6.648-3.027,7.4,3.906s-6.364,6.255-6.4,6.057S563.361,116.7,563.361,116.7Z" transform="translate(-563.361 -116)" fill="#ffbe9d"/>
                        </g>
                      </g>
                    </g>
                  </g>
                </g>
                <g id="Group_43444" data-name="Group 43444" transform="translate(2.776 2.173)">
                  <g id="Group_43443" data-name="Group 43443">
                    <g id="Group_43442" data-name="Group 43442">
                      <g id="Group_43441" data-name="Group 43441">
                        <g id="Group_43440" data-name="Group 43440">
                          <g id="Group_43439" data-name="Group 43439">
                            <path id="Path_87614" data-name="Path 87614" d="M565.833,123.523c.028-.025.13.071.344.144a1.218,1.218,0,0,0,.906-.079,3,3,0,0,0,1.092-2.83,4,4,0,0,0-.524-1.693,1.4,1.4,0,0,0-1.009-.829.617.617,0,0,0-.677.408c-.072.2-.013.338-.048.353-.017.02-.162-.1-.137-.392a.777.777,0,0,1,.225-.464.922.922,0,0,1,.649-.248,1.706,1.706,0,0,1,1.378.938,4.122,4.122,0,0,1,.627,1.887c.107,1.4-.466,2.787-1.438,3.184a1.3,1.3,0,0,1-1.124-.063C565.864,123.69,565.81,123.539,565.833,123.523Z" transform="translate(-565.776 -117.891)" fill="#eb996e"/>
                          </g>
                        </g>
                      </g>
                    </g>
                  </g>
                </g>
              </g>
              <g id="Group_43496" data-name="Group 43496" transform="translate(3.783 9.551)">
                <g id="Group_43495" data-name="Group 43495">
                  <g id="Group_43484" data-name="Group 43484" transform="translate(0.09 5.719)">
                    <g id="Group_43483" data-name="Group 43483">
                      <g id="Group_43482" data-name="Group 43482">
                        <g id="Group_43457" data-name="Group 43457" transform="translate(0 1.855)">
                          <g id="Group_43450" data-name="Group 43450" transform="translate(0.475 2.366)">
                            <g id="Group_43449" data-name="Group 43449">
                              <g id="Group_43448" data-name="Group 43448">
                                <g id="Group_43447" data-name="Group 43447">
                                  <g id="Group_43446" data-name="Group 43446">
                                    <path id="Path_87615" data-name="Path 87615" d="M534.294,120.995a1.456,1.456,0,0,0,1.6,1.258,1.393,1.393,0,0,0,1.3-1.509,1.457,1.457,0,0,0-1.594-1.259A1.393,1.393,0,0,0,534.294,120.995Z" transform="translate(-534.287 -119.479)" fill="#263238"/>
                                  </g>
                                </g>
                              </g>
                            </g>
                          </g>
                          <g id="Group_43456" data-name="Group 43456">
                            <g id="Group_43455" data-name="Group 43455">
                              <g id="Group_43454" data-name="Group 43454">
                                <g id="Group_43453" data-name="Group 43453">
                                  <g id="Group_43452" data-name="Group 43452">
                                    <g id="Group_43451" data-name="Group 43451">
                                      <path id="Path_87616" data-name="Path 87616" d="M533.906,119.371c.206.162,1.184-.8,2.736-1.014,1.547-.236,2.8.4,2.94.188.07-.1-.16-.409-.706-.7a3.994,3.994,0,0,0-2.386-.383,3.838,3.838,0,0,0-2.144,1.041C533.921,118.937,533.807,119.3,533.906,119.371Z" transform="translate(-533.873 -117.42)" fill="#263238"/>
                                    </g>
                                  </g>
                                </g>
                              </g>
                            </g>
                          </g>
                        </g>
                        <g id="Group_43469" data-name="Group 43469" transform="translate(15.29)">
                          <g id="Group_43462" data-name="Group 43462" transform="translate(0.273 2.475)">
                            <g id="Group_43461" data-name="Group 43461">
                              <g id="Group_43460" data-name="Group 43460">
                                <g id="Group_43459" data-name="Group 43459">
                                  <g id="Group_43458" data-name="Group 43458">
                                    <path id="Path_87617" data-name="Path 87617" d="M547.423,119.476a1.456,1.456,0,0,0,1.594,1.258,1.392,1.392,0,0,0,1.3-1.509,1.456,1.456,0,0,0-1.593-1.259A1.393,1.393,0,0,0,547.423,119.476Z" transform="translate(-547.416 -117.96)" fill="#263238"/>
                                  </g>
                                </g>
                              </g>
                            </g>
                          </g>
                          <g id="Group_43468" data-name="Group 43468">
                            <g id="Group_43467" data-name="Group 43467">
                              <g id="Group_43466" data-name="Group 43466">
                                <g id="Group_43465" data-name="Group 43465">
                                  <g id="Group_43464" data-name="Group 43464">
                                    <g id="Group_43463" data-name="Group 43463">
                                      <path id="Path_87618" data-name="Path 87618" d="M547.211,117.757c.206.163,1.185-.8,2.736-1.012,1.547-.237,2.8.4,2.94.187.07-.1-.157-.409-.707-.7a3.988,3.988,0,0,0-2.385-.384,3.834,3.834,0,0,0-2.144,1.041C547.226,117.323,547.112,117.685,547.211,117.757Z" transform="translate(-547.178 -115.807)" fill="#263238"/>
                                    </g>
                                  </g>
                                </g>
                              </g>
                            </g>
                          </g>
                        </g>
                        <g id="Group_43475" data-name="Group 43475" transform="translate(7.185 1.222)">
                          <g id="Group_43474" data-name="Group 43474">
                            <g id="Group_43473" data-name="Group 43473">
                              <g id="Group_43472" data-name="Group 43472">
                                <g id="Group_43471" data-name="Group 43471">
                                  <g id="Group_43470" data-name="Group 43470">
                                    <path id="Path_87619" data-name="Path 87619" d="M544.252,129.895a10.32,10.32,0,0,0-2.584-.1c-.4.014-.787-.012-.892-.272a2.025,2.025,0,0,1,.1-1.211q.357-1.517.747-3.182c1.024-4.523,1.7-8.22,1.521-8.259s-1.159,3.595-2.182,8.118c-.242,1.115-.476,2.177-.7,3.192a2.322,2.322,0,0,0,.013,1.584,1,1,0,0,0,.733.487,2.67,2.67,0,0,0,.686,0A10.2,10.2,0,0,0,544.252,129.895Z" transform="translate(-540.125 -116.87)" fill="#263238"/>
                                  </g>
                                </g>
                              </g>
                            </g>
                          </g>
                        </g>
                        <g id="Group_43481" data-name="Group 43481" transform="translate(11.662 14.676)">
                          <g id="Group_43480" data-name="Group 43480">
                            <g id="Group_43479" data-name="Group 43479">
                              <g id="Group_43478" data-name="Group 43478">
                                <g id="Group_43477" data-name="Group 43477">
                                  <g id="Group_43476" data-name="Group 43476">
                                    <path id="Path_87620" data-name="Path 87620" d="M548.387,128.579c-.255.021-.022,1.705-1.294,3.1s-3.092,1.465-3.072,1.7c-.009.109.446.271,1.206.185a4.231,4.231,0,0,0,2.578-1.326,3.679,3.679,0,0,0,.977-2.586C548.746,128.943,548.5,128.553,548.387,128.579Z" transform="translate(-544.021 -128.578)" fill="#263238"/>
                                  </g>
                                </g>
                              </g>
                            </g>
                          </g>
                        </g>
                      </g>
                    </g>
                  </g>
                  <g id="Group_43489" data-name="Group 43489" transform="translate(14.141)">
                    <g id="Group_43488" data-name="Group 43488">
                      <g id="Group_43487" data-name="Group 43487">
                        <g id="Group_43486" data-name="Group 43486">
                          <g id="Group_43485" data-name="Group 43485">
                            <path id="Path_87621" data-name="Path 87621" d="M546.117,112.477c.211.4,1.733-.018,3.583-.054,1.85-.075,3.393.253,3.581-.16.083-.2-.229-.557-.879-.881a6.226,6.226,0,0,0-5.458.162C546.313,111.907,546.023,112.285,546.117,112.477Z" transform="translate(-546.1 -110.83)" fill="#263238"/>
                          </g>
                        </g>
                      </g>
                    </g>
                  </g>
                  <g id="Group_43494" data-name="Group 43494" transform="translate(0 2.929)">
                    <g id="Group_43493" data-name="Group 43493">
                      <g id="Group_43492" data-name="Group 43492">
                        <g id="Group_43491" data-name="Group 43491">
                          <g id="Group_43490" data-name="Group 43490">
                            <path id="Path_87622" data-name="Path 87622" d="M533.857,115.4c.323.314,1.34-.2,2.622-.4,1.276-.242,2.406-.1,2.605-.5.085-.2-.136-.524-.658-.791a3.84,3.84,0,0,0-4.212.726C533.811,114.865,533.714,115.249,533.857,115.4Z" transform="translate(-533.795 -113.379)" fill="#263238"/>
                          </g>
                        </g>
                      </g>
                    </g>
                  </g>
                </g>
              </g>
            </g>
            <g id="Group_43500" data-name="Group 43500">
              <g id="Group_43499" data-name="Group 43499">
                <g id="Group_43498" data-name="Group 43498">
                  <path id="Path_87623" data-name="Path 87623" d="M525.457,103.643a3.762,3.762,0,0,1,.908-3.522,2.67,2.67,0,0,1,3.461-.225,3.115,3.115,0,0,1,2.125-4.114c1.632-.336,3.211.71,4.863.923a7.568,7.568,0,0,0,4.637-1.207c1.409-.811,2.688-1.839,4.123-2.6a13.033,13.033,0,0,1,17.575,5.257,5.789,5.789,0,0,1,6.4,1.447,9.493,9.493,0,0,1,2.371,6.42,21.212,21.212,0,0,1-.517,4.692c.018.13.049.255.065.386.676,5.565.964,12.172-1.4,12.541-4.119.645-4.229-7.271-4.229-7.271-5.34-1.245-4.521-9.1-5.949-10.072s-4.454-3.276-14.3,3.635c-3.822,2.684-9.307,3.389-12.393,3.13-.09-.006-.18-.007-.271-.016l-.062,0c-.035,0-.06-.017-.093-.023a9.6,9.6,0,0,1-2.882-.771,5.429,5.429,0,0,1-2.593-2.177,2.974,2.974,0,0,1,.134-3.242A6.534,6.534,0,0,1,525.457,103.643Z" transform="translate(-525.35 -91.372)" fill="#263238"/>
                </g>
              </g>
            </g>
          </g>
          <g id="Group_43502" data-name="Group 43502" transform="translate(52.428 51.884)">
            <path id="Path_87624" data-name="Path 87624" d="M543.449,155.094l1.142,40.075,24.934-53.678-.624-4.969Z" transform="translate(-543.449 -136.521)" fill="#ebebeb"/>
          </g>
          <g id="Group_43515" data-name="Group 43515" transform="translate(17.29 180.831)">
            <g id="Group_43503" data-name="Group 43503" transform="translate(0 8.298)">
              <path id="Path_87625" data-name="Path 87625" d="M564.552,257.079c-.914.3-52.828,52.8-51.662,62.233s38.122,79.274,38.122,79.274l26.366-13-24.733-61.231.324-3.8,30.228-24.77-1.615-39.835Z" transform="translate(-512.871 -255.952)" fill="#263238"/>
            </g>
            <g id="Group_43504" data-name="Group 43504" transform="translate(62.875)">
              <path id="Path_87626" data-name="Path 87626" d="M567.585,268.5c.6.916,9.593,83.4,12,87.668s38.52,74.686,38.52,74.686l26.81-10.8-32.729-77.393,3.73-73.248-2.02-20.683-40.477,8.3Z" transform="translate(-567.585 -248.731)" fill="#263238"/>
            </g>
            <g id="Group_43506" data-name="Group 43506" transform="translate(62.846 23.985)">
              <g id="Group_43505" data-name="Group 43505">
                <path id="Path_87627" data-name="Path 87627" d="M579.122,351.606a4.586,4.586,0,0,1-.176-.826c-.1-.6-.227-1.391-.39-2.381-.324-2.134-.776-5.116-1.33-8.775-1.074-7.471-2.544-17.689-4.168-28.977-1.559-11.3-2.971-21.531-4-29.007-.478-3.669-.868-6.659-1.147-8.8q-.176-1.495-.283-2.4a4.485,4.485,0,0,1-.06-.841,4.578,4.578,0,0,1,.175.824c.1.6.228,1.392.39,2.381.323,2.134.776,5.116,1.33,8.774,1.074,7.471,2.544,17.691,4.169,28.984,1.558,11.3,2.969,21.526,4,29,.478,3.669.868,6.659,1.147,8.8.118,1,.213,1.794.284,2.4A4.727,4.727,0,0,1,579.122,351.606Z" transform="translate(-567.559 -269.603)" fill="#455a64"/>
              </g>
            </g>
            <g id="Group_43508" data-name="Group 43508" transform="translate(103.105 91.564)">
              <g id="Group_43507" data-name="Group 43507">
                <path id="Path_87628" data-name="Path 87628" d="M606.285,328.41a78.274,78.274,0,0,1-3.672,12.915,78.56,78.56,0,0,1,3.672-12.915Z" transform="translate(-602.593 -328.41)" fill="#455a64"/>
              </g>
            </g>
            <g id="Group_43510" data-name="Group 43510" transform="translate(106.803 94.045)">
              <g id="Group_43509" data-name="Group 43509">
                <path id="Path_87629" data-name="Path 87629" d="M609.861,346.77a7.528,7.528,0,0,1-1.463-2.035,20.049,20.049,0,0,1-2.5-11.711,7.468,7.468,0,0,1,.507-2.455c.192.014-.592,3.818.411,8.381C607.763,343.525,610.031,346.678,609.861,346.77Z" transform="translate(-605.811 -330.569)" fill="#455a64"/>
              </g>
            </g>
            <g id="Group_43512" data-name="Group 43512" transform="translate(31.125 67.804)">
              <g id="Group_43511" data-name="Group 43511">
                <path id="Path_87630" data-name="Path 87630" d="M539.958,307.747a14.138,14.138,0,0,1,7.417,6.764c-.145.1-1.424-1.78-3.476-3.636C541.862,309,539.877,307.9,539.958,307.747Z" transform="translate(-539.956 -307.734)" fill="#455a64"/>
              </g>
            </g>
            <g id="Group_43514" data-name="Group 43514" transform="translate(35.188 65.374)">
              <g id="Group_43513" data-name="Group 43513">
                <path id="Path_87631" data-name="Path 87631" d="M543.5,305.626a11.489,11.489,0,0,1,4,6.485,34.6,34.6,0,0,1-1.94-3.282A34.27,34.27,0,0,1,543.5,305.626Z" transform="translate(-543.492 -305.619)" fill="#455a64"/>
              </g>
            </g>
          </g>
          <g id="Group_43545" data-name="Group 43545" transform="translate(25.237 54.174)">
            <g id="Group_43517" data-name="Group 43517" transform="translate(28.313)">
              <g id="Group_43516" data-name="Group 43516">
                <path id="Path_87632" data-name="Path 87632" d="M546.946,210.222l6.636,32.925,5.4,45.947s22.266-3.11,31.756-6.114c11.007-3.484,34.956-6.451,34.956-6.451l-4.037,3.994c8.569-2.4,14.026-10.577,14.026-10.577-14.77-13.7-27.368-41.877-27.368-41.877l-11.231-55.761s-1.705-7.866-2.734-11.364-18.082-14.782-20.446-16.208l-1.486-.7-.472-4.469-1.757-1.051L551.735,155.28a20,20,0,0,0-6.423,12.53,144.636,144.636,0,0,0-.8,20.976C544.727,195.318,546.946,210.222,546.946,210.222Z" transform="translate(-544.425 -138.514)" fill="#e8505b"/>
              </g>
            </g>
            <g id="Group_43527" data-name="Group 43527" transform="translate(0 14.002)">
              <g id="Group_43518" data-name="Group 43518" transform="translate(0.277)">
                <path id="Path_87633" data-name="Path 87633" d="M563.255,151.368s-9.751,5.228-11.441,9.663,3.337,53.073,3.337,53.073l-35.014.657-.109,20.863s55.614,4.394,57.779,1.388c2.926-4.066,6.326-42.071,6.326-42.071L585.4,167.6S582.171,146.745,563.255,151.368Z" transform="translate(-520.028 -150.699)" fill="#e8505b"/>
              </g>
              <g id="Group_43520" data-name="Group 43520" transform="translate(36.815 50.813)" opacity="0.3">
                <g id="Group_43519" data-name="Group 43519">
                  <path id="Path_87634" data-name="Path 87634" d="M552.479,234.733a33.491,33.491,0,0,0,14.014,1.31c4.932-.459,9.949-3.157,11.815-7.745,1.427-3.514.832-7.473,1.048-11.259.188-3.29,1-6.507,1.5-9.763s-1.192-9.245-2.266-12.359c0,0-1.249,22.578-4.781,32.056a7.763,7.763,0,0,1-2.165,3.461c-1.249,1.005-2.981,1.094-4.576,1.261-4.468.467-15.245-.308-15.245-.308" transform="translate(-551.823 -194.916)"/>
                </g>
              </g>
              <g id="Group_43522" data-name="Group 43522" transform="translate(0 19.853)">
                <g id="Group_43521" data-name="Group 43521">
                  <path id="Path_87635" data-name="Path 87635" d="M585.372,167.975a3.069,3.069,0,0,1,0,.5c-.014.353-.032.834-.055,1.453-.063,1.305-.154,3.182-.27,5.586-.128,2.434-.283,5.4-.462,8.836-.211,3.443-.324,7.372-.747,11.7-.377,4.325-.83,9.06-1.373,14.137-.563,5.075-1.165,10.5-2.131,16.172a35.248,35.248,0,0,1-.962,4.289,8.37,8.37,0,0,1-2.525,3.782,6.392,6.392,0,0,1-4.357,1.556c-1.544.034-3.091,0-4.655-.024-6.25-.154-12.711-.475-19.325-.833-9.938-.549-19.516-1.169-28.467-1.8l-.257-.018v-.257c.045-7.41.087-14.391.125-20.83l0-.24.239-.006,33.8-.726,9.454-.164,2.489-.024c.563,0,.854.018.854.018s-.29.032-.852.059l-2.488.1-9.451.3-33.79.933.24-.246c-.021,6.439-.044,13.42-.069,20.83l-.255-.276c8.948.611,18.526,1.222,28.46,1.771,6.611.359,13.068.683,19.306.845,1.557.021,3.1.062,4.625.03A5.838,5.838,0,0,0,576.5,234a7.819,7.819,0,0,0,2.364-3.534,34.985,34.985,0,0,0,.949-4.206c.977-5.641,1.6-11.063,2.18-16.13.563-5.071,1.039-9.8,1.441-14.122.448-4.317.591-8.243.832-11.681.217-3.434.406-6.4.56-8.828.163-2.4.29-4.274.378-5.577.047-.617.085-1.1.113-1.45A3.356,3.356,0,0,1,585.372,167.975Z" transform="translate(-519.787 -167.975)" fill="#263238"/>
                </g>
              </g>
              <g id="Group_43524" data-name="Group 43524" transform="translate(6.91 64.387)">
                <g id="Group_43523" data-name="Group 43523">
                  <path id="Path_87636" data-name="Path 87636" d="M526.04,226.96a88.969,88.969,0,0,1-.236-10.117,89.335,89.335,0,0,1,.341-10.115,88.642,88.642,0,0,1,.236,10.117A89.363,89.363,0,0,1,526.04,226.96Z" transform="translate(-525.8 -206.728)" fill="#263238"/>
                </g>
              </g>
              <g id="Group_43526" data-name="Group 43526" transform="translate(2.607 67.282)">
                <g id="Group_43525" data-name="Group 43525">
                  <path id="Path_87637" data-name="Path 87637" d="M522.886,209.522c-.067-.038.283-.427.948-.207a1.077,1.077,0,0,1,.709.926,1.27,1.27,0,0,1-.711,1.25,1.3,1.3,0,0,1-1.408-.26,1.178,1.178,0,0,1-.342-1.1c.157-.661.618-.8.633-.734.056.065-.218.309-.228.784a.8.8,0,0,0,.29.656.823.823,0,0,0,.817.131.788.788,0,0,0,.419-.7.676.676,0,0,0-.35-.586C523.259,209.445,522.921,209.6,522.886,209.522Z" transform="translate(-522.055 -209.247)" fill="#263238"/>
                </g>
              </g>
            </g>
            <g id="Group_43528" data-name="Group 43528" transform="translate(81.129 38.573)">
              <path id="Path_87638" data-name="Path 87638" d="M590.385,172.08S608.6,195.9,610.819,202.388s.5,15.809-3.205,20.264-6.7,2.645-6.7,2.645Z" transform="translate(-590.385 -172.08)" fill="#e8505b"/>
            </g>
            <g id="Group_43530" data-name="Group 43530" transform="translate(81.776 89.828)">
              <g id="Group_43529" data-name="Group 43529">
                <path id="Path_87639" data-name="Path 87639" d="M600.177,216.732a38.174,38.174,0,0,1-9.228,1.584,38.2,38.2,0,0,1,9.228-1.584Z" transform="translate(-590.949 -216.683)" fill="#263238"/>
              </g>
            </g>
            <g id="Group_43532" data-name="Group 43532" transform="translate(94.498 107.438)">
              <g id="Group_43531" data-name="Group 43531">
                <path id="Path_87640" data-name="Path 87640" d="M602.027,232.007a6.131,6.131,0,0,1,.494,1.257c.277.82.7,2,1.235,3.451a102.44,102.44,0,0,0,4.893,11.038,116.163,116.163,0,0,0,6.119,10.415c.85,1.293,1.552,2.332,2.043,3.045a6.18,6.18,0,0,1,.711,1.148,5.976,5.976,0,0,1-.892-1.015c-.548-.675-1.3-1.68-2.2-2.949a89.359,89.359,0,0,1-6.3-10.38,81.173,81.173,0,0,1-4.764-11.165c-.494-1.473-.855-2.679-1.066-3.522A6.1,6.1,0,0,1,602.027,232.007Z" transform="translate(-602.019 -232.007)" fill="#263238"/>
              </g>
            </g>
            <g id="Group_43534" data-name="Group 43534" transform="translate(95.744 110.261)" opacity="0.3">
              <g id="Group_43533" data-name="Group 43533">
                <path id="Path_87641" data-name="Path 87641" d="M603.1,234.463c2.887,5.145,5.854,10.39,10.252,14.322a26.513,26.513,0,0,1,4.474,4.333c1.184,1.713,1.7,4.109.57,5.862a1.839,1.839,0,0,1-1.816.981,2.328,2.328,0,0,1-1.188-.964A70.942,70.942,0,0,1,603.3,235.249" transform="translate(-603.103 -234.463)"/>
              </g>
            </g>
            <g id="Group_43536" data-name="Group 43536" transform="translate(82.659 42.164)" opacity="0.3">
              <g id="Group_43535" data-name="Group 43535">
                <path id="Path_87642" data-name="Path 87642" d="M602.4,224.743c2.495-1.792,3.368-5.2,3-8.25s-1.764-5.861-3.026-8.661a142.6,142.6,0,0,1-8.872-26.02l-1.78-6.607,9.011,47.139Z" transform="translate(-591.717 -175.205)"/>
              </g>
            </g>
            <g id="Group_43538" data-name="Group 43538" transform="translate(48.241 5.763)">
              <g id="Group_43537" data-name="Group 43537">
                <path id="Path_87643" data-name="Path 87643" d="M561.771,150.321a40.289,40.289,0,0,1,3.395-3.391,40.425,40.425,0,0,1,3.391-3.4,20.15,20.15,0,0,1-6.786,6.787Z" transform="translate(-561.766 -143.529)" fill="#263238"/>
              </g>
            </g>
            <g id="Group_43540" data-name="Group 43540" transform="translate(32.871 16.578)">
              <g id="Group_43539" data-name="Group 43539">
                <path id="Path_87644" data-name="Path 87644" d="M561.925,152.953c.029.1-1.052.422-2.664,1.219a21.174,21.174,0,0,0-9.669,9.784c-.778,1.621-1.089,2.705-1.187,2.678-.039-.01.008-.288.125-.787a13.114,13.114,0,0,1,.689-2.057,19.02,19.02,0,0,1,9.87-9.987,13,13,0,0,1,2.048-.714A2.156,2.156,0,0,1,561.925,152.953Z" transform="translate(-548.391 -152.94)" fill="#263238"/>
              </g>
            </g>
            <g id="Group_43542" data-name="Group 43542" transform="translate(81.445 39.081)">
              <g id="Group_43541" data-name="Group 43541">
                <path id="Path_87645" data-name="Path 87645" d="M604.541,229.88a1.941,1.941,0,0,1-.286-.457l-.73-1.366c-.652-1.274-1.535-3-2.621-5.129l-.01-.02-.006-.028c-1.139-5.219-2.751-12.832-4.5-21.3-1.618-7.979-3.081-15.2-4.161-20.525l-1.2-6.233c-.12-.686-.218-1.248-.3-1.7a.3.3,0,1,1,.114-.024c.107.447.24,1,.4,1.679.342,1.544.808,3.642,1.376,6.2,1.123,5.317,2.644,12.525,4.325,20.492,1.753,8.466,3.294,16.093,4.32,21.337l-.016-.047c1.021,2.158,1.85,3.914,2.463,5.207.256.568.467,1.034.638,1.412A2.015,2.015,0,0,1,604.541,229.88Z" transform="translate(-590.66 -172.522)" fill="#263238"/>
              </g>
            </g>
            <g id="Group_43544" data-name="Group 43544" transform="translate(30.833 33.206)">
              <g id="Group_43543" data-name="Group 43543">
                <path id="Path_87646" data-name="Path 87646" d="M550.579,211.593a10.255,10.255,0,0,1-.267-1.726c-.132-1.218-.3-2.809-.514-4.727-.408-3.992-.933-9.513-1.477-15.614s-1.005-11.628-1.31-15.631c-.134-1.924-.245-3.519-.331-4.741a10.264,10.264,0,0,1-.042-1.744,9.982,9.982,0,0,1,.267,1.727c.132,1.218.306,2.81.514,4.727.409,3.993.933,9.513,1.478,15.614s1,11.624,1.309,15.626c.134,1.924.246,3.52.331,4.743A10,10,0,0,1,550.579,211.593Z" transform="translate(-546.618 -167.41)" fill="#263238"/>
              </g>
            </g>
          </g>
          <g id="Group_43563" data-name="Group 43563" transform="translate(0 123.789)">
            <g id="Group_43548" data-name="Group 43548">
              <g id="Group_43546" data-name="Group 43546" transform="translate(0 4.663)">
                <path id="Path_87647" data-name="Path 87647" d="M523.888,209.378s-7.551-5.729-9.393-6.074c-1.411-.264-9.839-.124-13.715-.044A2.774,2.774,0,0,0,498,205.953a1.475,1.475,0,0,0,.026.273,2.528,2.528,0,0,0,1.842,1.916,2.938,2.938,0,0,0-2.041,2.764c-.032,2.188,2.617,2.649,2.617,2.649a3.924,3.924,0,0,0-.378.337,2.611,2.611,0,0,0,1.281,4.382l1.2.271a2.587,2.587,0,0,0-1.594,2.174c.044,2.881,6.522,3.433,6.522,3.433s16.009,2.534,16.355,2.419S523.888,209.378,523.888,209.378Z" transform="translate(-497.826 -203.15)" fill="#ffbe9d"/>
              </g>
              <g id="Group_43547" data-name="Group 43547" transform="translate(4.439)">
                <path id="Path_87648" data-name="Path 87648" d="M501.692,200.459c.071.949.294,2.969,1.909,3.885l8.921-.349s-6.643-2.293-7.588-3.426a7.677,7.677,0,0,0-1.273-1.246A1.261,1.261,0,0,0,501.692,200.459Z" transform="translate(-501.689 -199.093)" fill="#ffbe9d"/>
              </g>
            </g>
            <g id="Group_43550" data-name="Group 43550" transform="translate(2.938 4.521)">
              <g id="Group_43549" data-name="Group 43549">
                <path id="Path_87649" data-name="Path 87649" d="M508.52,203.321a13.1,13.1,0,0,1-4.074.288,16.529,16.529,0,0,1-4.065-.288,13.094,13.094,0,0,1,4.074-.288A16.537,16.537,0,0,1,508.52,203.321Z" transform="translate(-500.382 -203.027)" fill="#eb996e"/>
              </g>
            </g>
            <g id="Group_43552" data-name="Group 43552" transform="translate(2.072 9.468)">
              <g id="Group_43551" data-name="Group 43551">
                <path id="Path_87650" data-name="Path 87650" d="M506.629,207.66a12.924,12.924,0,0,1-7-.249,66.3,66.3,0,0,1,7,.249Z" transform="translate(-499.629 -207.332)" fill="#eb996e"/>
              </g>
            </g>
            <g id="Group_43554" data-name="Group 43554" transform="translate(12.029 9.141)">
              <g id="Group_43553" data-name="Group 43553">
                <path id="Path_87651" data-name="Path 87651" d="M509.875,207.067c.132.082-.039.567-.542.892s-1.017.285-1.038.13.332-.354.724-.614S509.741,206.975,509.875,207.067Z" transform="translate(-508.294 -207.047)" fill="#eb996e"/>
              </g>
            </g>
            <g id="Group_43556" data-name="Group 43556" transform="translate(2.385 15.007)">
              <g id="Group_43555" data-name="Group 43555">
                <path id="Path_87652" data-name="Path 87652" d="M507.571,212.592a25.7,25.7,0,0,1-7.669-.252,25.7,25.7,0,0,1,7.669.252Z" transform="translate(-499.901 -212.152)" fill="#eb996e"/>
              </g>
            </g>
            <g id="Group_43558" data-name="Group 43558" transform="translate(13.289 13.061)">
              <g id="Group_43557" data-name="Group 43557">
                <path id="Path_87653" data-name="Path 87653" d="M511.253,210.46c.071-.021.21.16.253.51a1.836,1.836,0,0,1-1.561,1.985c-.352.041-.558-.052-.555-.125,0-.157.768-.257,1.278-.912S511.1,210.494,511.253,210.46Z" transform="translate(-509.39 -210.459)" fill="#eb996e"/>
              </g>
            </g>
            <g id="Group_43560" data-name="Group 43560" transform="translate(4.535 20.045)">
              <g id="Group_43559" data-name="Group 43559">
                <path id="Path_87654" data-name="Path 87654" d="M508.638,217.473a20.858,20.858,0,0,1-6.866-.849,20.941,20.941,0,0,1,6.866.849Z" transform="translate(-501.772 -216.536)" fill="#eb996e"/>
              </g>
            </g>
            <g id="Group_43562" data-name="Group 43562" transform="translate(14.593 18.168)">
              <g id="Group_43561" data-name="Group 43561">
                <path id="Path_87655" data-name="Path 87655" d="M512.311,214.9c.074-.01.184.185.174.531a2.151,2.151,0,0,1-.478,1.211c-.653.791-1.386,1.077-1.467.97-.115-.137.473-.661,1.011-1.323S512.161,214.929,512.311,214.9Z" transform="translate(-510.524 -214.903)" fill="#eb996e"/>
              </g>
            </g>
          </g>
          <g id="Group_43564" data-name="Group 43564" transform="translate(126.894 190.59)">
            <path id="Path_87656" data-name="Path 87656" d="M609.11,263.3a10.2,10.2,0,0,0,7.736-4.874c.183-.308.34-.729.1-1a.884.884,0,0,0-.675-.2,20.95,20.95,0,0,0-7.331,1.257,1,1,0,0,0-.657.492,1.011,1.011,0,0,0,.031.6l.941,3.624" transform="translate(-608.249 -257.223)" fill="#e8505b"/>
          </g>
          <g id="Group_43566" data-name="Group 43566" transform="translate(126.894 190.59)" opacity="0.4">
            <g id="Group_43565" data-name="Group 43565">
              <path id="Path_87657" data-name="Path 87657" d="M609.11,263.3a10.2,10.2,0,0,0,7.736-4.874c.183-.308.34-.729.1-1a.884.884,0,0,0-.675-.2,20.95,20.95,0,0,0-7.331,1.257,1,1,0,0,0-.657.492,1.011,1.011,0,0,0,.031.6l.941,3.624" transform="translate(-608.249 -257.223)"/>
            </g>
          </g>
          <g id="Group_43572" data-name="Group 43572" transform="translate(49.592 70.458)">
            <g id="Group_43567" data-name="Group 43567">
              <path id="Path_87658" data-name="Path 87658" d="M543.817,152.684s-3.673,12.328-2.66,11.627,3.206-2.647,3.206-2.647Z" transform="translate(-540.98 -152.684)" fill="#ebebeb"/>
            </g>
            <g id="Group_43568" data-name="Group 43568" transform="translate(0.504 5.684)">
              <path id="Path_87659" data-name="Path 87659" d="M543.963,157.63l-2.008,4.8a6.543,6.543,0,0,0-.39,1.55c-.165,1.345-.357,3.809.444,3.981a2.7,2.7,0,0,0,2.147-.887Z" transform="translate(-541.419 -157.63)" fill="#263238"/>
            </g>
            <g id="Group_43571" data-name="Group 43571" transform="translate(0.26 2.752)">
              <g id="Group_43569" data-name="Group 43569">
                <path id="Path_87660" data-name="Path 87660" d="M606.281,158.768s-19.646-7.665-30.525-.9-12.86,17.57-19.338,17.57c-12.634,0-12.229-8.915-12.229-8.915l-2.686.814c-.052,1.824-2.928,14.921,10.386,16.544s18.909-16.527,30.887-16.544a39.758,39.758,0,0,1,21.07,6.478l8.6-5.442Z" transform="translate(-541.206 -155.079)" fill="#263238"/>
              </g>
              <g id="Group_43570" data-name="Group 43570" transform="translate(14.663 1.023)">
                <path id="Path_87661" data-name="Path 87661" d="M553.966,183.534a18.461,18.461,0,0,0,7.579-8.695c3.052-7.042,9.6-15.082,15.075-17.1s18.128-3.43,26.87,2.267l5.6,7.564-7.27,4.715a67.5,67.5,0,0,0-12.81-5.129c-9.035-2.522-14.525.326-19.778,5.3-.326.31-.626.616-.888.911a59.569,59.569,0,0,1-8.317,7.364C557.458,182.561,555.136,183.555,553.966,183.534Z" transform="translate(-553.966 -155.969)" fill="#455a64"/>
              </g>
            </g>
          </g>
        </g>
      </g>
      <g id="Flag" transform="translate(87.438 0)">
        <g id="Group_43581" data-name="Group 43581">
          <g id="Group_43574" data-name="Group 43574" transform="translate(0.482)">
            <path id="Path_87662" data-name="Path 87662" d="M212.157,94.085c-11.653,1.795-20.194-7.992-22.919-16.708-2.514-8.044-3.71-16.413-7.243-24.065-4.937-10.694-18.015-15.635-29.753-14.647s-23.564,6.87-33.949,12.428l2.865,64.373s22.614-24.081,33.48-24.52c18.131-.732,17.143,29.07,34.749,33.47,0,0,24.682,6.692,41.369-14.862,10.59-13.678,11.528-30.3,11.528-30.3S234.172,90.693,212.157,94.085Z" transform="translate(-118.293 -38.541)" fill="#e8505b"/>
          </g>
          <g id="Group_43576" data-name="Group 43576" transform="translate(0 1.872)">
            <g id="Group_43575" data-name="Group 43575">
              <path id="Path_87663" data-name="Path 87663" d="M117.88,40.17c.16-.007,3.33,68.351,7.082,152.66,3.753,84.34,6.666,152.695,6.507,152.7s-3.329-68.336-7.082-152.675C120.634,108.546,117.721,40.178,117.88,40.17Z" transform="translate(-117.874 -40.17)" fill="#263238"/>
            </g>
          </g>
          <g id="Group_43578" data-name="Group 43578" transform="translate(62.246 34.382)" opacity="0.2">
            <g id="Group_43577" data-name="Group 43577">
              <path id="Path_87664" data-name="Path 87664" d="M172.04,68.461a78.332,78.332,0,0,0,8.569,19.322c3.356,5.255,8.446,9.679,14.551,10.953a14.122,14.122,0,0,1,3.266.848,3.158,3.158,0,0,1,1.944,2.56c.047,1.686-1.7,2.789-3.208,3.535a26.433,26.433,0,0,1-6.7,2.574c-2.358.441-4.207.687-5.826-1.084a33.846,33.846,0,0,1-4.214-5.049c-5.319-9.063-7.951-22.028-8.383-32.285" transform="translate(-172.04 -68.461)"/>
            </g>
          </g>
          <g id="Group_43580" data-name="Group 43580" transform="translate(61.16 20.981)">
            <g id="Group_43579" data-name="Group 43579">
              <path id="Path_87665" data-name="Path 87665" d="M187.938,111.538a2.362,2.362,0,0,1-.524-.3c-.332-.214-.806-.553-1.392-1.023a23.953,23.953,0,0,1-4.3-4.669,35.822,35.822,0,0,1-4.3-8.369,92.153,92.153,0,0,1-3.187-11.061,123.508,123.508,0,0,1-2.969-20.67c-.148-2.671-.174-4.835-.171-6.328.015-.694.028-1.262.038-1.72a2.318,2.318,0,0,1,.054-.6,2.42,2.42,0,0,1,.062.6c.018.457.041,1.025.07,1.718.067,1.49.154,3.646.354,6.3A138.165,138.165,0,0,0,174.8,85.988a98.691,98.691,0,0,0,3.123,11.007,36.922,36.922,0,0,0,4.139,8.32,26.133,26.133,0,0,0,4.109,4.732C187.282,111.03,187.967,111.5,187.938,111.538Z" transform="translate(-171.095 -56.799)" fill="#263238"/>
            </g>
          </g>
        </g>
      </g>
      <g id="Stairs" transform="translate(17.181 301.947)">
        <g id="Group_43582" data-name="Group 43582" transform="translate(0 18.877)">
          <path id="Path_87666" data-name="Path 87666" d="M56.736,317.722l153.955,25.2v-25.2Z" transform="translate(-56.736 -317.722)" fill="#e0e0e0"/>
        </g>
        <g id="Group_43583" data-name="Group 43583" transform="translate(179.37 75.813)">
          <path id="Path_87667" data-name="Path 87667" d="M212.824,367.267l153.955,25.2v-25.2Z" transform="translate(-212.824 -367.267)" fill="#e0e0e0"/>
        </g>
        <g id="Group_43584" data-name="Group 43584" transform="translate(357.504 130.277)">
          <path id="Path_87668" data-name="Path 87668" d="M367.835,414.662l153.955,25.2v-25.2Z" transform="translate(-367.835 -414.662)" fill="#e0e0e0"/>
        </g>
        <g id="Group_43585" data-name="Group 43585" transform="translate(535.403 173.617)">
          <path id="Path_87669" data-name="Path 87669" d="M522.643,452.376,676.6,477.58v-25.2Z" transform="translate(-522.643 -452.376)" fill="#e0e0e0"/>
        </g>
        <g id="Group_43588" data-name="Group 43588">
          <g id="Group_43586" data-name="Group 43586">
            <rect id="Rectangle_7498" data-name="Rectangle 7498" width="153.955" height="18.877" fill="#e8505b"/>
          </g>
          <g id="Group_43587" data-name="Group 43587" transform="translate(105.913)" opacity="0.3">
            <rect id="Rectangle_7499" data-name="Rectangle 7499" width="48.042" height="18.877"/>
          </g>
        </g>
        <g id="Group_43591" data-name="Group 43591" transform="translate(179.37 56.935)">
          <g id="Group_43589" data-name="Group 43589">
            <rect id="Rectangle_7500" data-name="Rectangle 7500" width="153.955" height="18.878" fill="#e8505b"/>
          </g>
          <g id="Group_43590" data-name="Group 43590" transform="translate(105.913)" opacity="0.3">
            <rect id="Rectangle_7501" data-name="Rectangle 7501" width="48.042" height="18.878"/>
          </g>
        </g>
        <g id="Group_43594" data-name="Group 43594" transform="translate(357.504 111.399)">
          <g id="Group_43592" data-name="Group 43592" transform="translate(0)">
            <rect id="Rectangle_7502" data-name="Rectangle 7502" width="153.955" height="18.878" fill="#e8505b"/>
          </g>
          <g id="Group_43593" data-name="Group 43593" transform="translate(105.913)" opacity="0.3">
            <rect id="Rectangle_7503" data-name="Rectangle 7503" width="48.042" height="18.878"/>
          </g>
        </g>
        <g id="Group_43597" data-name="Group 43597" transform="translate(535.638 154.739)">
          <g id="Group_43595" data-name="Group 43595">
            <rect id="Rectangle_7504" data-name="Rectangle 7504" width="153.955" height="18.878" fill="#e8505b"/>
          </g>
          <g id="Group_43596" data-name="Group 43596" transform="translate(105.913)" opacity="0.3">
            <rect id="Rectangle_7505" data-name="Rectangle 7505" width="48.042" height="18.878"/>
          </g>
        </g>
        <g id="Group_43599" data-name="Group 43599" transform="translate(594.714 81.841)">
          <g id="Group_43598" data-name="Group 43598">
            <path id="Path_87670" data-name="Path 87670" d="M574.256,376.7a4.186,4.186,0,1,0,4.186-4.188A4.186,4.186,0,0,0,574.256,376.7Z" transform="translate(-574.256 -372.513)" fill="#ebebeb"/>
          </g>
        </g>
      </g>
    </g>
  </g>
</svg>
