<svg width="227" height="423" viewBox="0 0 227 423" fill="none" xmlns="http://www.w3.org/2000/svg">
<path d="M39.9839 120.933C32.1643 116.141 27.4798 101.546 23.2277 103.276C18.9755 105.006 25.7321 112.735 23.9303 113.979C22.1286 115.222 14.9216 110.753 12.1469 107.835C9.37226 104.916 4.52555 101.06 0.97611 109.294C-2.57333 117.528 4.00306 125.041 13.4983 129.744C22.1106 133.996 27.6419 134.879 34.0561 137.906C37.9845 133.334 40.6766 127.832 41.8757 121.924C41.2279 121.628 40.5963 121.297 39.9839 120.933Z" fill="#FFA8A7"/>
<path d="M123.279 76.1056C110.486 72.5021 101.658 78.7542 97.0093 90.1592L79.8928 132.158C79.8928 132.158 51.9658 126.518 41.876 121.87C40.6769 127.777 37.9848 133.279 34.0564 137.851C34.705 138.158 35.3537 138.464 36.0203 138.824C41.0652 141.491 65.4067 153.04 80.0009 159.382C83.072 160.721 86.5344 160.854 89.6994 159.756C92.8643 158.657 95.4998 156.408 97.0814 153.455C112.36 125.059 127.657 88.88 123.279 76.1056Z" fill="#455A64"/>
<path d="M75.0639 389.393C76.6942 390.939 78.6241 392.135 80.7343 392.906C82.8446 393.678 85.0906 394.009 87.3337 393.879C91.8303 393.594 96.2379 392.495 100.342 390.636C104.486 388.943 109.711 384.186 114.198 384.276C118.59 384.253 122.977 383.958 127.332 383.393C127.507 377.46 126.901 371.529 125.531 365.754L104.576 365.214C98.919 372.907 87.9103 379.303 79.5862 381.7C78.3144 382.049 77.1606 382.736 76.2471 383.687C75.3337 384.639 74.6945 385.82 74.3972 387.105C74.4072 387.146 74.4072 387.189 74.3972 387.231C74.5246 387.977 74.7487 388.704 75.0639 389.393Z" fill="#37474F"/>
<path d="M114.198 384.294C109.711 384.204 104.486 388.961 100.342 390.654C96.2378 392.513 91.8303 393.612 87.3336 393.897C85.0905 394.027 82.8445 393.696 80.7342 392.925C78.624 392.153 76.6941 390.957 75.0638 389.411C74.7282 388.743 74.4799 388.034 74.325 387.303C74.335 387.262 74.335 387.218 74.325 387.177C74.1361 388.086 74.1361 389.024 74.325 389.934C74.4814 390.67 74.7296 391.385 75.0638 392.06C76.6926 393.607 78.6226 394.802 80.7336 395.571C82.8446 396.34 85.0913 396.666 87.3336 396.528C91.8303 396.242 96.2378 395.144 100.342 393.285C104.486 391.591 109.711 386.853 114.198 386.943C118.521 386.974 122.842 386.728 127.134 386.204C127.242 385.267 127.296 384.402 127.332 383.411C122.977 383.976 118.59 384.271 114.198 384.294Z" fill="#263238"/>
<path d="M178.826 400.996C178.842 403.272 178.613 405.544 178.142 407.771C177.412 411.737 175.178 415.268 171.908 417.626C168.885 419.339 165.472 420.244 161.998 420.257C158.963 420.563 155.897 420.244 152.989 419.32C150.776 418.537 148.899 417.016 147.674 415.014C147.681 415.055 147.681 415.098 147.674 415.14C148.113 416.606 148.898 417.945 149.965 419.043C151.031 420.141 152.347 420.965 153.8 421.446C156.706 422.376 159.775 422.689 162.809 422.365C166.288 422.369 169.709 421.469 172.736 419.752C176.007 417.394 178.241 413.863 178.97 409.897C179.426 407.668 179.649 405.397 179.637 403.122C179.646 401.571 179.97 400.039 180.589 398.617C181.209 397.195 182.111 395.914 183.24 394.852C183.811 394.342 184.347 393.794 184.844 393.213C185.197 392.815 185.466 392.349 185.633 391.844C185.801 391.339 185.863 390.806 185.817 390.276C185.817 389.843 185.817 389.429 185.691 389.032C184.862 389.987 182.916 392.276 182.43 392.726C181.293 393.783 180.387 395.063 179.767 396.486C179.147 397.909 178.827 399.444 178.826 400.996Z" fill="#263238"/>
<path d="M161.602 377.429C162.334 382.078 161.708 386.839 159.8 391.141C157.903 395.434 155.437 399.452 152.467 403.086C151.02 404.804 149.741 406.656 148.647 408.618C147.569 410.564 147.182 412.819 147.548 415.014C148.773 417.016 150.65 418.537 152.863 419.32C155.771 420.244 158.836 420.563 161.872 420.257C165.346 420.244 168.759 419.339 171.781 417.626C175.052 415.268 177.286 411.737 178.016 407.771C178.486 405.544 178.716 403.272 178.7 400.996C178.701 399.444 179.021 397.909 179.641 396.486C180.261 395.063 181.167 393.783 182.304 392.726C182.79 392.276 184.736 389.987 185.565 389.033C185.112 385.646 183.965 382.389 182.196 379.465L161.602 377.429Z" fill="#37474F"/>
<path d="M103.621 182.913C103.621 182.913 98.3243 251.992 98.7747 271.199C99.2252 290.405 101.189 366.349 101.189 366.349C112 372.637 127.729 367.952 127.729 367.952C129.008 307.342 134.774 294.297 130.846 272.118C133.62 255.65 137.44 217.272 137.44 217.272C142.845 263.433 146.773 287.216 146.773 287.216L159.692 379.61C170.304 385.105 183.673 379.61 183.673 379.61C183.673 326.945 184.826 304.657 179.295 269.901C179.274 239.193 177.469 208.512 173.889 178.012L103.621 182.913Z" fill="#455A64"/>
<path opacity="0.2" d="M116.45 200.75C120.162 209.759 131.765 209.759 131.765 209.759L133.855 219.993L133.08 256.37C135.296 238.677 137.44 217.272 137.44 217.272L135.999 206.318C129.04 206.732 122.146 204.769 116.45 200.75Z" fill="black"/>
<path d="M164.322 19.4949C162.216 17.064 159.281 15.5034 156.088 15.1167L113.081 19.1166C108.126 29.6207 112.09 36.5574 112.09 36.5574C111.423 52.593 110.865 62.7728 117.909 66.1601C122.893 68.1474 128.284 68.8955 133.621 68.3402C138.634 68.0436 143.537 66.7383 148.035 64.5025L148.269 64.3764C149.823 63.5574 151.179 62.4092 152.243 61.012C153.307 59.6147 154.054 58.0021 154.431 56.2865C155.156 53.1683 155.65 50.0006 155.908 46.8094C155.987 44.9965 156.186 43.1909 156.503 41.4041C156.842 39.6064 157.678 37.9398 158.917 36.5935C159.546 35.9355 160.326 35.4407 161.189 35.1518C162.053 34.863 162.973 34.7889 163.872 34.9359C164.183 35.0201 164.484 35.1348 164.773 35.2782C165.98 28.1613 166.34 21.9813 164.322 19.4949Z" fill="#37474F"/>
<path d="M148.575 20.72C147.83 23.7102 148.031 26.858 149.151 29.7288C150.261 32.5744 151.17 35.4944 151.872 38.4672C152.432 41.4597 152.022 44.5528 150.701 47.2958C150.015 48.6394 149.047 49.8185 147.862 50.7517C146.676 51.6848 145.303 52.3499 143.836 52.701C139.224 53.6739 134.701 50.9893 130.071 50.0884C125.631 49.3547 121.074 50.196 117.188 52.4668C116.857 52.6614 116.48 52.7678 116.096 52.7758C115.711 52.7838 115.331 52.6932 114.991 52.5125C114.652 52.3318 114.364 52.0672 114.156 51.7438C113.947 51.4203 113.825 51.049 113.801 50.665C113.243 41.4401 113.261 26.9721 114.63 20.1975L148.575 20.72Z" fill="#FFA8A7"/>
<path d="M156.719 51.4219C156.719 51.4219 156.629 55.1695 156.539 59.6378C158.448 57.9989 159.838 55.8387 160.539 53.4218C159.056 53.2706 157.688 52.5544 156.719 51.4219Z" fill="#37474F"/>
<path d="M115.387 12.36L109.981 8.64835C109.432 10.4359 109.332 12.3314 109.69 14.1668C110.049 16.0022 110.854 17.7209 112.036 19.1706C114.478 22.0093 117.791 23.9604 121.459 24.7199C125.103 25.4642 128.842 25.6344 132.539 25.2244C137.956 24.7842 143.316 23.8064 148.539 22.3056C150.901 21.8145 153.079 20.6724 154.827 19.0084C155.912 17.6193 156.527 15.9219 156.586 14.1605C156.644 12.3991 156.142 10.6646 155.151 9.20691C154.124 7.77959 152.806 6.58577 151.284 5.70388C149.763 4.82199 148.072 4.27196 146.323 4.08994C142.752 3.7989 139.157 4.07869 135.674 4.91875C132.191 5.75891 128.594 6.02064 125.026 5.69349C123.243 5.50619 121.532 4.89062 120.039 3.89925C118.546 2.90788 117.314 1.57012 116.45 0C113.405 4.88273 115.387 12.36 115.387 12.36Z" fill="#37474F"/>
<path d="M128.792 37.0618L120.954 46.575L128.143 49.1154L128.792 37.0618Z" fill="#F28F8F"/>
<path d="M134.719 53.8362L128.666 55.6379C129.061 56.3397 129.673 56.8945 130.411 57.2193C131.148 57.544 131.971 57.6214 132.756 57.4397C133.438 57.1442 134.002 56.629 134.358 55.976C134.714 55.323 134.841 54.5698 134.719 53.8362Z" fill="#F28F8F"/>
<path opacity="0.3" d="M134.719 53.8362L128.666 55.6379C129.061 56.3397 129.673 56.8945 130.411 57.2193C131.148 57.544 131.971 57.6214 132.756 57.4397C133.438 57.1442 134.002 56.629 134.358 55.976C134.714 55.323 134.841 54.5698 134.719 53.8362Z" fill="black"/>
<path d="M130.774 57.4396C131.405 57.6867 132.098 57.7308 132.756 57.5658C133.316 57.3533 133.802 56.9801 134.151 56.4929C134.501 56.0057 134.698 55.4262 134.72 54.8271C133.913 54.7016 133.087 54.8541 132.377 55.2595C131.58 55.7503 131.005 56.5322 130.774 57.4396Z" fill="#F28F8F"/>
<path d="M139.458 39.1519C139.436 39.5794 139.288 39.9908 139.031 40.3338C138.775 40.6769 138.423 40.9361 138.019 41.0788C137.616 41.2214 137.179 41.2411 136.764 41.1351C136.349 41.0292 135.975 40.8025 135.689 40.4838C135.404 40.1651 135.219 39.7687 135.159 39.3448C135.098 38.921 135.165 38.4888 135.351 38.103C135.536 37.7172 135.832 37.3951 136.201 37.1777C136.57 36.9603 136.995 36.8573 137.422 36.8817C137.993 36.9143 138.527 37.1713 138.909 37.5967C139.29 38.0221 139.488 38.5812 139.458 39.1519Z" fill="#263238"/>
<path d="M121.441 37.4943C121.403 38.0631 121.145 38.5947 120.721 38.9753C120.296 39.3558 119.74 39.5551 119.17 39.5303C118.743 39.5082 118.331 39.3597 117.988 39.1035C117.645 38.8474 117.386 38.4952 117.243 38.0915C117.101 37.6879 117.081 37.2509 117.187 36.8361C117.293 36.4213 117.52 36.0473 117.838 35.7615C118.157 35.4756 118.554 35.2909 118.977 35.2305C119.401 35.1702 119.833 35.2371 120.219 35.4227C120.605 35.6083 120.927 35.9043 121.144 36.2731C121.362 36.6419 121.465 37.0669 121.441 37.4943Z" fill="#263238"/>
<path d="M119.801 28.8098L114.864 31.8548C114.687 31.2534 114.697 30.612 114.893 30.0164C115.089 29.4207 115.463 28.8993 115.964 28.5216C116.565 28.202 117.245 28.0594 117.924 28.1105C118.603 28.1615 119.254 28.404 119.801 28.8098Z" fill="#263238"/>
<path d="M138.233 29.5485L142.827 33.152C143.069 32.573 143.127 31.9333 142.991 31.3205C142.856 30.7078 142.534 30.1518 142.071 29.7287C141.513 29.3398 140.857 29.1164 140.178 29.0845C139.499 29.0527 138.824 29.2135 138.233 29.5485Z" fill="#263238"/>
<path d="M173.042 77.1146L164.034 76.1597L120.341 75.8894C104.991 75.8894 103.027 94.7897 102.144 111.51C101.261 128.23 104.09 161.869 100.342 184.336L118.612 196.138L123.747 190.624L131.945 198.246C159.746 198.246 176.105 182.823 178.213 180.228L173.042 77.1146Z" fill="#BA68C8"/>
<path opacity="0.2" d="M173.042 77.1146L164.034 76.1597L120.341 75.8894C104.991 75.8894 103.027 94.7897 102.144 111.51C101.261 128.23 104.09 161.869 100.342 184.336L118.612 196.138L123.747 190.624L131.945 198.246C159.746 198.246 176.105 182.823 178.213 180.228L173.042 77.1146Z" fill="white"/>
<path d="M127.513 81.6912C123.423 94.7359 125.981 112.915 127.513 121.095C137.891 106.826 147.602 92.5017 150.647 86.8622L136.233 79.8354L127.513 81.6912Z" fill="#455A64"/>
<path d="M167.728 38.3953C167.147 37.0307 166.091 35.9231 164.755 35.2783C164.467 35.1348 164.165 35.0202 163.854 34.9359C162.956 34.789 162.035 34.8631 161.172 35.1519C160.308 35.4407 159.528 35.9355 158.899 36.5935C157.661 37.9398 156.824 39.6065 156.485 41.4042C156.168 43.1909 155.97 44.9966 155.89 46.8094C155.624 50.0803 155.112 53.3266 154.359 56.5208C153.965 58.1967 153.213 59.7678 152.156 61.1266C151.099 62.4855 149.76 63.6001 148.233 64.3944L148.017 64.5025C143.519 66.7384 138.617 68.0437 133.603 68.3403V82.7542L153.927 72.7185C154.644 72.2986 155.242 71.7026 155.664 70.9869C156.087 70.2711 156.32 69.4594 156.341 68.6286C156.341 66.3223 156.449 61.9621 156.503 59.6198C156.593 55.1515 156.683 51.4039 156.683 51.4039C157.652 52.5365 159.02 53.2526 160.503 53.4038C161.17 53.5053 161.851 53.4685 162.503 53.2957C163.469 52.9942 164.365 52.5004 165.136 51.844C165.907 51.1876 166.537 50.3821 166.989 49.476C167.878 47.6616 168.364 45.6762 168.412 43.6564C168.583 41.8735 168.349 40.0752 167.728 38.3953Z" fill="#FFA8A7"/>
<path d="M150.918 64.2141C152.117 62.6787 152.971 60.9026 153.422 59.0071C152.308 61.3129 150.491 63.2056 148.233 64.4123L148.017 64.5204C143.519 66.7563 138.617 68.0615 133.603 68.3581V71.9616C136.499 71.6989 139.353 71.0941 142.107 70.1599C145.546 69.0489 148.601 66.9876 150.918 64.2141Z" fill="#F28F8F"/>
<path d="M133.566 93.6727L129.963 92.8079C128.218 97.3663 126.761 102.03 125.603 106.771C125.983 111.606 126.615 116.417 127.494 121.185C129.53 118.393 131.53 115.582 133.476 112.843C132.86 106.466 132.891 100.044 133.566 93.6727Z" fill="#BA68C8"/>
<path opacity="0.2" d="M133.404 94.4114C133.404 94.1772 133.404 93.9069 133.404 93.6727L129.801 92.8079L129.603 93.3484C130.174 93.868 130.869 94.2338 131.62 94.4114C132.209 94.5343 132.816 94.5343 133.404 94.4114Z" fill="black"/>
<path d="M135.476 84.3037L138.287 82.502L144.845 86.1054C142.604 87.8263 139.927 88.8871 137.116 89.1684L135.476 84.3037Z" fill="#BA68C8"/>
<path d="M131.134 83.6009L130.287 81.691L126.972 83.763C127.331 85.0115 128.083 86.111 129.116 86.8981L131.134 83.6009Z" fill="#BA68C8"/>
<path opacity="0.2" d="M135.476 84.3037L138.287 82.502L144.845 86.1054C142.604 87.8263 139.927 88.8871 137.116 89.1684L135.476 84.3037Z" fill="black"/>
<path opacity="0.2" d="M131.134 83.6009L130.287 81.691L126.972 83.763C127.331 85.0115 128.083 86.111 129.116 86.8981L131.134 83.6009Z" fill="black"/>
<path d="M137.116 89.1323C136.828 87.4464 136.274 85.8166 135.476 84.3036L131.134 83.601C130.34 84.6207 129.663 85.7268 129.116 86.8981C129.019 88.9055 129.312 90.9127 129.981 92.8079C131.095 93.3821 132.331 93.6787 133.585 93.6727C135.206 92.5643 136.441 90.9769 137.116 89.1323Z" fill="#BA68C8"/>
<path d="M133.945 82.7722C140.827 82.664 145.044 88.1774 151.332 89.9791L164.16 76.1237L159.187 68.7365C158.196 67.2591 157.908 66.0159 156.413 65.1331V67.8177C156.413 69.4032 154.503 70.8626 153.133 71.6554L133.945 82.7722Z" fill="#37474F"/>
<path d="M133.945 82.7721C130.125 81.583 124.414 86.3756 124.414 86.3756C126.414 75.3129 132.449 70.9526 133.927 70.9526L133.945 82.7721Z" fill="#37474F"/>
<path opacity="0.2" d="M126.197 122.068L121.495 128.392C120.2 130.121 119.562 132.254 119.693 134.41L122.846 186.967L117.441 134.824C117.29 133.357 117.496 131.874 118.042 130.503C118.588 129.132 119.457 127.913 120.576 126.951L126.197 122.068Z" fill="black"/>
<path d="M196.141 182.877C193.018 181.42 190.311 179.202 188.267 176.427L185.186 181.832C181.132 180.193 176.862 178.769 172.826 177.13C171.867 176.658 170.815 176.406 169.746 176.391C169.208 176.393 168.685 176.57 168.256 176.895C167.827 177.22 167.515 177.675 167.367 178.193C167.348 178.751 167.466 179.306 167.711 179.809C167.956 180.311 168.321 180.746 168.773 181.075C170.872 183.124 173.311 184.794 175.98 186.012C172.31 189.441 168.033 192.154 163.367 194.012C161.895 194.519 160.472 195.158 159.115 195.922C157.757 196.72 156.757 198.01 156.322 199.525C156.185 200.521 156.276 201.534 156.589 202.489C156.901 203.445 157.426 204.316 158.124 205.039C159.669 206.695 161.55 208 163.642 208.867C165.734 209.735 167.987 210.143 170.25 210.065C174.793 209.874 179.202 208.475 183.024 206.012C186.831 203.563 190.391 200.751 193.655 197.615C197.987 193.727 201.922 189.418 205.402 184.751C202.211 184.855 199.04 184.214 196.141 182.877Z" fill="#FFA8A7"/>
<path d="M224.05 158.319C225.57 156.161 226.491 153.638 226.719 151.008C226.947 148.378 226.474 145.734 225.347 143.347C213.114 117.582 197.601 91.6007 197.601 91.6007C191.33 80.7902 186.79 76.1597 172.881 77.0966C167.475 95.5645 172.394 105.546 185.871 126.681L202.087 152.121L188.195 176.427C190.167 179.135 192.783 181.31 195.806 182.754C198.829 184.198 202.164 184.865 205.51 184.697L206.249 183.724L224.05 158.319Z" fill="#455A64"/>
</svg>
