<svg width="172" height="62" viewBox="0 0 172 62" fill="none" xmlns="http://www.w3.org/2000/svg">
<path d="M65.0423 38.6453C65.0423 41.2401 66.1885 44.5571 68.705 44.5571C71.0112 44.5571 72.0318 41.744 72.0318 39.3488C71.9898 36.3854 70.5506 33.57 68.4118 33.57C66.0065 33.57 65.0421 36.3854 65.0421 38.6453M73.654 39.0641C73.654 42.6646 71.4725 44.9598 68.5373 44.9598C65.5876 44.9598 63.4205 42.6646 63.4205 39.0478C63.4205 35.4798 65.602 33.1697 68.5236 33.1697C72.1026 33.1697 73.654 36.0818 73.654 39.0639M78.0959 39.8194C79.2538 39.8057 80.6026 39.1706 80.6026 37.5676C80.6026 35.8782 79.3619 35.1993 78.0959 35.2144V39.8194ZM77.0354 37.9152C77.0354 35.7057 76.975 35.3731 75.6243 35.2283V35.0266L78.5664 34.9097C81.6048 34.7952 81.8444 36.5702 81.8444 37.2643C81.8444 38.4777 81.2182 39.1708 80.3494 39.6327L80.4098 39.7329C81.338 41.6825 82.4959 44.1665 84.4845 44.6578L84.4496 44.8739C83.1718 44.8028 82.231 44.8474 81.5307 43.979C80.736 42.9825 80.109 41.7107 79.8568 41.0914C79.3736 39.893 78.9393 40.2386 78.096 40.0657V42.3899C78.096 43.979 78.1209 44.2684 79.7711 44.5437V44.7598H75.5406V44.5437C76.9867 44.3116 76.9994 43.8776 77.0354 42.3899V37.9152ZM93.1631 43.6453V43.8636C91.8736 44.5123 90.8842 44.9311 89.5218 44.9311C87.0385 44.9311 84.929 43.1262 84.929 39.9633C84.929 36.7582 87.2673 34.7643 89.7867 34.7643C90.7402 34.7643 91.7053 34.9674 92.6081 35.3289L92.5603 37.841H92.4034C92.1026 36.1656 91.1386 35.112 89.6785 35.112C87.5943 35.112 86.3273 37.0174 86.3273 39.4302C86.3273 42.2898 88.0278 44.4413 90.4254 44.4413C91.5231 44.4413 91.5123 44.0947 91.5123 43.1543V42.2898C91.5123 40.6854 91.1618 40.5129 89.8841 40.3252V40.1081H93.4523V40.325C92.6081 40.5281 92.572 40.9317 92.572 41.8266V43.6457L93.1631 43.6453ZM98.0435 36.2232L96.9099 39.9777H99.2959L98.0435 36.2232ZM96.7044 40.6416C96.501 41.364 95.9691 42.8665 95.9691 43.5585C95.9691 44.4405 96.8019 44.4405 97.3424 44.5421V44.758H94.041V44.5419C95.1122 44.1944 95.2232 43.9062 95.5963 42.7802L96.9566 38.5193L97.6803 36.1648C97.7885 35.7904 97.9452 35.4424 97.8136 35.1697C98.1389 35.01 98.4409 34.7507 98.6929 34.3903L101.346 42.8513C101.67 43.906 101.876 44.3237 102.84 44.5419V44.7578H99.2959V44.5417C99.7185 44.4249 100.225 44.2664 100.225 43.6167C100.225 43.0112 99.7662 41.6531 99.4526 40.6416H96.7044ZM111.339 42.4907L111.279 37.2205C111.268 35.8472 110.953 35.4436 109.59 35.1554V34.9393H112.882V35.1554C112.049 35.2851 111.893 35.8344 111.797 36.7725C111.627 38.3616 111.689 41.842 111.748 44.9897L111.591 45.0332C109.663 42.303 107.517 39.7762 105.48 37.1496V39.8063C105.48 43.3858 105.409 44.1233 107.156 44.5421V44.7592H103.552V44.5421C105.179 44.339 105.118 43.0125 105.118 39.7329V37.5663C105.118 36.1231 104.925 35.5608 103.395 35.1558V34.9399H105.383L111.339 42.4907ZM116.689 42.3895C116.725 43.877 116.736 44.3112 118.183 44.5421V44.759H114.134V44.5421C115.579 44.311 115.592 43.877 115.628 42.3895V37.3071C115.592 35.8196 115.579 35.3868 114.134 35.1556V34.9395H118.183V35.1556C116.736 35.3868 116.725 35.8196 116.689 37.3071V42.3895ZM120.242 34.9401H126.642L126.704 35.0394L121.364 44.3254H122.508C123.449 44.3254 124.738 44.3254 125.619 43.8926C126.607 43.4013 126.97 42.2323 127.186 41.0772L127.366 41.1206C127.271 42.362 127.065 43.6034 126.668 44.7596H119.724L119.676 44.658L120.471 43.3581L125.064 35.3729H123.93C123.268 35.3729 121.905 35.3574 121.315 35.6753C120.677 36.023 120.376 37.0053 120.242 37.7859H120.05L120.242 34.9401ZM132.038 36.2232L130.904 39.9777H133.291L132.038 36.2232ZM130.7 40.6416C130.495 41.364 129.964 42.8665 129.964 43.5585C129.964 44.4405 130.796 44.4405 131.338 44.5421V44.758H128.035V44.5419C129.108 44.1944 129.218 43.9062 129.591 42.7802L130.953 38.5193L131.676 36.1648C131.785 35.7904 131.941 35.4424 131.808 35.1697C132.133 35.01 132.435 34.7507 132.688 34.3903L135.34 42.8513C135.666 43.906 135.87 44.3237 136.835 44.5419V44.7578H133.291V44.5417C133.712 44.4249 134.219 44.2664 134.219 43.6167C134.219 43.0112 133.76 41.6531 133.448 40.6416H130.7ZM144.909 34.4923H145.007L145.174 37.192L145.007 37.2355C144.584 35.4446 143.922 35.3721 142.535 35.3721H141.812V42.0435C141.812 43.8344 141.884 44.3118 143.5 44.5427V44.7598H139.063V44.5427C140.679 44.312 140.751 43.8346 140.751 42.0435V35.3723H140.027C138.641 35.3723 137.978 35.4448 137.557 37.2357L137.387 37.1922L137.557 34.4925H137.652L137.774 34.6221C138.075 34.9535 138.123 34.9407 138.521 34.9407H144.042C144.44 34.9407 144.489 34.9543 144.79 34.6221L144.909 34.4923ZM148.989 42.3895C149.025 43.877 149.036 44.3112 150.482 44.5421V44.759H146.433V44.5421C147.878 44.311 147.892 43.877 147.928 42.3895V37.3071C147.892 35.8196 147.878 35.3868 146.433 35.1556V34.9395H150.482V35.1556C149.036 35.3868 149.025 35.8196 148.989 37.3071V42.3895ZM153.588 39.4884C153.588 41.7261 154.576 44.5859 156.746 44.5859C158.735 44.5859 159.615 42.158 159.615 40.0939C159.579 37.5388 158.337 35.1132 156.493 35.1132C154.419 35.1132 153.588 37.5388 153.588 39.4884M161.014 39.849C161.014 42.9537 159.133 44.9325 156.602 44.9325C154.059 44.9325 152.19 42.9537 152.19 39.8338C152.19 36.7582 154.07 34.7643 156.589 34.7643C159.675 34.7643 161.014 37.2787 161.014 39.849M170.457 42.4907L170.396 37.2205C170.385 35.8472 170.071 35.4436 168.708 35.1554V34.9393H172V35.1554C171.168 35.2851 171.012 35.8344 170.915 36.7725C170.746 38.3616 170.806 41.842 170.867 44.9897L170.71 45.0332C168.781 42.303 166.635 39.7762 164.598 37.1496V39.8063C164.598 43.3858 164.526 44.1233 166.275 44.5421V44.7592H162.671V44.5421C164.297 44.339 164.237 43.0125 164.237 39.7329V37.5663C164.237 36.1231 164.044 35.5608 162.514 35.1558V34.9399H164.502L170.457 42.4907ZM65.9232 28.0554H65.7837L63.5049 18.6923C63.1554 17.4707 63.1135 16.9177 61.9526 16.5314V16.2818H65.9084V16.5314C64.2032 16.8338 64.553 17.689 64.8889 19.061L66.3564 25.0067L68.5508 18.0063C68.2712 16.9855 67.8107 16.7158 66.9722 16.5316V16.2816H71.0536V16.5313C69.5295 16.7834 69.7115 17.5698 69.9637 18.5416L71.7391 25.1743L72.8426 21.4059C73.081 20.5694 73.7093 18.4738 73.7093 17.671C73.7093 16.8498 73.0812 16.7332 72.3116 16.5313V16.2816H75.9599V16.5313C75.1213 16.599 74.7025 17.1695 74.4085 18.0562L73.4296 21.2552L71.3747 28.055H71.221L68.7328 18.7433L65.9232 28.0554ZM78.2925 22.3992C78.2925 24.637 79.281 27.4968 81.4508 27.4968C83.4394 27.4968 84.3197 25.07 84.3197 23.0048C84.2836 20.4497 83.042 18.024 81.1985 18.024C79.1241 18.024 78.2927 20.4497 78.2927 22.3992M85.7184 22.7598C85.7184 25.8646 83.838 27.8433 81.306 27.8433C78.763 27.8433 76.8942 25.8646 76.8942 22.7458C76.8942 19.6691 78.7747 17.6763 81.2941 17.6763C84.3803 17.6763 85.7184 20.1893 85.7184 22.7598M89.9468 22.7302C91.1057 22.7166 92.4545 22.0815 92.4545 20.4773C92.4545 18.7892 91.2138 18.1101 89.9468 18.1239V22.7302ZM88.8872 20.8249C88.8872 18.6163 88.8269 18.2826 87.4762 18.1379V17.9374L90.4183 17.8206C93.4558 17.7059 93.6963 19.482 93.6963 20.1749C93.6963 21.3872 93.069 22.0815 92.2013 22.5433L92.2617 22.6436C93.1899 24.5932 94.3469 27.0772 96.3374 27.5684L96.3013 27.7845C95.0236 27.7135 94.0829 27.7581 93.3836 26.8895C92.5869 25.8932 91.9607 24.6214 91.7085 24.002C91.2245 22.8036 90.7911 23.149 89.9468 22.9763V25.3005C89.9468 26.8897 89.9717 27.179 91.6229 27.4543V27.6704H87.3923V27.4543C88.8386 27.2222 88.8513 26.7882 88.8872 25.3005V20.8249ZM96.5045 27.4537C97.9517 27.2226 97.9634 26.7875 97.9993 25.3011V20.2176C97.9636 18.73 97.9515 18.2972 96.5045 18.0661V17.85H100.555V18.0661C99.1087 18.2972 99.0599 18.73 99.0599 20.2176V24.9545C99.0599 25.6769 99.0599 26.4421 99.241 27.1364L100.712 27.266C102.544 27.4234 102.844 26.7444 103.773 24.8965L103.931 24.9828L103.243 27.6697H96.5045V27.4537ZM107.437 25.4444C107.437 26.4129 107.582 27.3358 109.076 27.3358C110.462 27.3358 112.331 26.296 112.331 23.0036C112.331 19.5385 110.052 18.0939 107.437 18.1091V25.4444ZM104.954 17.9353L107.871 17.8184C113.174 17.6177 113.729 21.2859 113.729 22.7877C113.729 24.8515 112.62 27.7403 108.474 27.6973L104.882 27.6708V27.4539C106.327 27.2226 106.341 26.7888 106.377 25.3013V20.2914C106.34 18.8038 106.327 18.3696 104.954 18.1387V17.9353ZM126.671 15.4308H126.785L126.988 18.6557L126.785 18.7082C126.282 16.5684 125.489 16.4822 123.832 16.4822H122.97V24.4534C122.97 26.5932 123.056 27.1613 124.986 27.4378V27.6967H119.686V27.4378C121.617 27.1613 121.704 26.593 121.704 24.4534V16.4822H120.839C119.182 16.4822 118.39 16.5684 117.886 18.7082L117.685 18.6557L117.886 15.4308H118.002L118.145 15.5848C118.506 15.9814 118.564 15.9651 119.038 15.9651H125.634C126.109 15.9651 126.168 15.9806 126.527 15.5848L126.671 15.4308ZM130.817 22.7224C131.973 22.7069 133.324 22.0714 133.324 20.4695C133.324 18.7789 132.082 18.1011 130.817 18.115V22.7224ZM129.756 20.8159C129.756 18.606 129.696 18.275 128.347 18.1302V17.9271L131.287 17.8126C134.325 17.6958 134.566 19.473 134.566 20.1671C134.566 21.3794 133.94 22.0714 133.071 22.5344L133.131 22.636C134.06 24.5856 135.216 27.0684 137.206 27.5608L137.169 27.777C135.891 27.7045 134.951 27.7472 134.253 26.8819C133.458 25.8856 132.829 24.6138 132.576 23.9931C132.095 22.7937 131.662 23.1414 130.817 22.9676V25.2929C130.817 26.8821 130.839 27.1703 132.492 27.4444V27.6605H128.262V27.4444C129.707 27.2133 129.721 26.7805 129.756 25.2929L129.756 20.8159Z" fill="white" fill-opacity="0.7"/>
<path d="M140.7 19.1262L139.566 22.8795H141.953L140.7 19.1262ZM139.363 23.5458C139.158 24.2668 138.627 25.7684 138.627 26.4615C138.627 27.3424 139.458 27.3424 140.001 27.444V27.6599H136.698V27.4438C137.771 27.0972 137.88 26.8081 138.253 25.6809L139.615 21.4224L140.339 19.0678C140.447 18.6921 140.604 18.3457 140.47 18.0715C140.798 17.9129 141.098 17.6516 141.351 17.2908L144.002 25.7543C144.329 26.8079 144.532 27.2267 145.497 27.4438V27.6597H141.954V27.4436C142.376 27.3283 142.882 27.1687 142.882 26.5197C142.882 25.913 142.423 24.555 142.11 23.5458H139.363ZM148.794 25.4366C148.794 26.4027 148.939 27.3279 150.433 27.3279C151.818 27.3279 153.687 26.2882 153.687 22.9958C153.687 19.5306 151.408 18.0861 148.793 18.1002L148.794 25.4366ZM146.31 17.9263L149.227 17.8108C154.531 17.6077 155.086 21.2771 155.086 22.7801C155.086 24.8439 153.977 27.7329 149.83 27.6897L146.238 27.6599V27.4438C147.683 27.2117 147.697 26.78 147.733 25.2923V20.2814C147.697 18.7939 147.683 18.3609 146.31 18.1299V17.9263ZM156.773 27.444C158.22 27.2129 158.233 26.78 158.27 25.2925V20.2102C158.233 18.7226 158.22 18.2884 156.773 18.0563V17.8402H163.247L163.101 20.0653H162.922C162.837 18.2008 161.717 18.1868 160.498 18.1868H159.331V22.303H160.583C161.488 22.303 162.174 22.2154 162.307 20.9752H162.489V24.1944H162.307C162.151 22.9237 161.488 22.9097 160.583 22.9097H159.331V25.2769C159.331 26.1288 159.161 27.3141 161.139 27.3141C162.656 27.3141 163.403 26.62 163.704 24.8021H163.885C163.874 25.8976 163.718 26.7948 163.475 27.6593H156.773V27.444Z" fill="white" fill-opacity="0.7"/>
<path d="M28.1942 6.20764C28.1942 6.20764 21.7588 14.1005 12.6677 14.1005C10.0625 14.1005 7.71267 12.2641 8.83649 8.10347C7.40681 10.2456 7.10013 13.0597 7.10013 13.4892C7.10013 13.9162 6.79444 17.9555 12.9736 17.9555C19.1527 17.9555 27.7346 13.4275 30.4932 9.08244L28.1942 6.20764Z" fill="white" fill-opacity="0.7"/>
<path d="M16.1906 22.3194V26.6025C22.0123 26.0505 41.1796 17.2837 41.1796 7.86008C41.1796 4.25027 38.2696 1.92492 35.8184 0.639099C35.8184 0.639099 38.9834 2.65876 38.9834 6.08535C38.9834 9.51214 34.678 17.5462 16.1901 22.3194" fill="white" fill-opacity="0.7"/>
<path d="M34.9356 23.7874C31.1043 27.8254 21.503 33.455 11.1849 33.455C1.73639 33.455 0.9194 29.6001 2.6723e-05 28.192C2.6723e-05 28.192 -0.102036 36.8807 12.3088 36.8807C24.7197 36.8807 35.905 29.1102 37.4359 26.6624L34.9356 23.7874Z" fill="white" fill-opacity="0.7"/>
<path d="M19.2053 41.225C27.7345 40.6136 53.4401 30.5786 50.3246 13.1409C50.3246 13.1409 51.7543 15.2819 51.7543 18.5255C51.7543 33.3942 30.1343 45.5718 19.2048 45.5718L19.2053 41.225Z" fill="white" fill-opacity="0.7"/>
<path d="M53.7277 35.1075C47.6488 54.2606 34.8331 57.1324 30.2875 57.1324V61.6605C44.5879 61.6605 53.7277 45.9995 53.7277 35.1087" fill="white" fill-opacity="0.7"/>
<path d="M40.7066 42.7944C35.293 47.0156 23.7997 50.8892 13.5349 50.8892C8.98893 50.8892 5.66898 49.1147 4.59668 47.9525C4.59668 47.9525 6.94574 54.4605 18.1316 54.4605C32.8907 54.4605 43.0556 46.8943 43.7187 45.7321L40.7066 42.7944Z" fill="white" fill-opacity="0.7"/>
</svg>
